<?xml version="1.0" encoding="utf-8" standalone="no"?>
<!DOCTYPE svg PUBLIC "-//W3C//DTD SVG 1.1//EN"
  "http://www.w3.org/Graphics/SVG/1.1/DTD/svg11.dtd">
<svg height="528.986562pt" version="1.1" viewBox="0 0 1505.018 528.986562" width="1505.018pt" xmlns="http://www.w3.org/2000/svg" xmlns:xlink="http://www.w3.org/1999/xlink">
 <metadata>
  <rdf:RDF xmlns:cc="http://creativecommons.org/ns#" xmlns:dc="http://purl.org/dc/elements/1.1/" xmlns:rdf="http://www.w3.org/1999/02/22-rdf-syntax-ns#">
   <cc:Work>
    <dc:type rdf:resource="http://purl.org/dc/dcmitype/StillImage"/>
    <dc:date>2022-01-02T13:20:24.156585</dc:date>
    <dc:format>image/svg+xml</dc:format>
    <dc:creator>
     <cc:Agent>
      <dc:title>Matplotlib v3.4.1, https://matplotlib.org/</dc:title>
     </cc:Agent>
    </dc:creator>
   </cc:Work>
  </rdf:RDF>
 </metadata>
 <defs>
  <style type="text/css">*{stroke-linecap:butt;stroke-linejoin:round;}</style>
 </defs>
 <g id="figure_1">
  <g id="patch_1">
   <path d="M -0 528.986562 
L 1505.018 528.986562 
L 1505.018 0 
L -0 0 
z
" style="fill:none;"/>
  </g>
  <g id="axes_1">
   <g id="patch_2">
    <path d="M 102.818 452.717812 
L 1497.818 452.717812 
L 1497.818 17.837812 
L 102.818 17.837812 
z
" style="fill:#ffffff;"/>
   </g>
   <g id="matplotlib.axis_1">
    <g id="xtick_1">
     <g id="line2d_1">
      <defs>
       <path d="M 0 0 
L 0 3.5 
" id="mab7546428e" style="stroke:#000000;stroke-width:0.8;"/>
      </defs>
      <g>
       <use style="stroke:#000000;stroke-width:0.8;" x="166.227091" xlink:href="#mab7546428e" y="452.717812"/>
      </g>
     </g>
     <g id="text_1">
      <!-- 0 -->
      <g transform="translate(157.319591 480.993437)scale(0.28 -0.28)">
       <defs>
        <path d="M 2034 4250 
Q 1547 4250 1301 3770 
Q 1056 3291 1056 2328 
Q 1056 1369 1301 889 
Q 1547 409 2034 409 
Q 2525 409 2770 889 
Q 3016 1369 3016 2328 
Q 3016 3291 2770 3770 
Q 2525 4250 2034 4250 
z
M 2034 4750 
Q 2819 4750 3233 4129 
Q 3647 3509 3647 2328 
Q 3647 1150 3233 529 
Q 2819 -91 2034 -91 
Q 1250 -91 836 529 
Q 422 1150 422 2328 
Q 422 3509 836 4129 
Q 1250 4750 2034 4750 
z
" id="DejaVuSans-30" transform="scale(0.015625)"/>
       </defs>
       <use xlink:href="#DejaVuSans-30"/>
      </g>
     </g>
    </g>
    <g id="xtick_2">
     <g id="line2d_2">
      <g>
       <use style="stroke:#000000;stroke-width:0.8;" x="369.136182" xlink:href="#mab7546428e" y="452.717812"/>
      </g>
     </g>
     <g id="text_2">
      <!-- 200 -->
      <g transform="translate(342.413682 480.993437)scale(0.28 -0.28)">
       <defs>
        <path d="M 1228 531 
L 3431 531 
L 3431 0 
L 469 0 
L 469 531 
Q 828 903 1448 1529 
Q 2069 2156 2228 2338 
Q 2531 2678 2651 2914 
Q 2772 3150 2772 3378 
Q 2772 3750 2511 3984 
Q 2250 4219 1831 4219 
Q 1534 4219 1204 4116 
Q 875 4013 500 3803 
L 500 4441 
Q 881 4594 1212 4672 
Q 1544 4750 1819 4750 
Q 2544 4750 2975 4387 
Q 3406 4025 3406 3419 
Q 3406 3131 3298 2873 
Q 3191 2616 2906 2266 
Q 2828 2175 2409 1742 
Q 1991 1309 1228 531 
z
" id="DejaVuSans-32" transform="scale(0.015625)"/>
       </defs>
       <use xlink:href="#DejaVuSans-32"/>
       <use x="63.623047" xlink:href="#DejaVuSans-30"/>
       <use x="127.246094" xlink:href="#DejaVuSans-30"/>
      </g>
     </g>
    </g>
    <g id="xtick_3">
     <g id="line2d_3">
      <g>
       <use style="stroke:#000000;stroke-width:0.8;" x="572.045273" xlink:href="#mab7546428e" y="452.717812"/>
      </g>
     </g>
     <g id="text_3">
      <!-- 400 -->
      <g transform="translate(545.322773 480.993437)scale(0.28 -0.28)">
       <defs>
        <path d="M 2419 4116 
L 825 1625 
L 2419 1625 
L 2419 4116 
z
M 2253 4666 
L 3047 4666 
L 3047 1625 
L 3713 1625 
L 3713 1100 
L 3047 1100 
L 3047 0 
L 2419 0 
L 2419 1100 
L 313 1100 
L 313 1709 
L 2253 4666 
z
" id="DejaVuSans-34" transform="scale(0.015625)"/>
       </defs>
       <use xlink:href="#DejaVuSans-34"/>
       <use x="63.623047" xlink:href="#DejaVuSans-30"/>
       <use x="127.246094" xlink:href="#DejaVuSans-30"/>
      </g>
     </g>
    </g>
    <g id="xtick_4">
     <g id="line2d_4">
      <g>
       <use style="stroke:#000000;stroke-width:0.8;" x="774.954364" xlink:href="#mab7546428e" y="452.717812"/>
      </g>
     </g>
     <g id="text_4">
      <!-- 600 -->
      <g transform="translate(748.231864 480.993437)scale(0.28 -0.28)">
       <defs>
        <path d="M 2113 2584 
Q 1688 2584 1439 2293 
Q 1191 2003 1191 1497 
Q 1191 994 1439 701 
Q 1688 409 2113 409 
Q 2538 409 2786 701 
Q 3034 994 3034 1497 
Q 3034 2003 2786 2293 
Q 2538 2584 2113 2584 
z
M 3366 4563 
L 3366 3988 
Q 3128 4100 2886 4159 
Q 2644 4219 2406 4219 
Q 1781 4219 1451 3797 
Q 1122 3375 1075 2522 
Q 1259 2794 1537 2939 
Q 1816 3084 2150 3084 
Q 2853 3084 3261 2657 
Q 3669 2231 3669 1497 
Q 3669 778 3244 343 
Q 2819 -91 2113 -91 
Q 1303 -91 875 529 
Q 447 1150 447 2328 
Q 447 3434 972 4092 
Q 1497 4750 2381 4750 
Q 2619 4750 2861 4703 
Q 3103 4656 3366 4563 
z
" id="DejaVuSans-36" transform="scale(0.015625)"/>
       </defs>
       <use xlink:href="#DejaVuSans-36"/>
       <use x="63.623047" xlink:href="#DejaVuSans-30"/>
       <use x="127.246094" xlink:href="#DejaVuSans-30"/>
      </g>
     </g>
    </g>
    <g id="xtick_5">
     <g id="line2d_5">
      <g>
       <use style="stroke:#000000;stroke-width:0.8;" x="977.863455" xlink:href="#mab7546428e" y="452.717812"/>
      </g>
     </g>
     <g id="text_5">
      <!-- 800 -->
      <g transform="translate(951.140955 480.993437)scale(0.28 -0.28)">
       <defs>
        <path d="M 2034 2216 
Q 1584 2216 1326 1975 
Q 1069 1734 1069 1313 
Q 1069 891 1326 650 
Q 1584 409 2034 409 
Q 2484 409 2743 651 
Q 3003 894 3003 1313 
Q 3003 1734 2745 1975 
Q 2488 2216 2034 2216 
z
M 1403 2484 
Q 997 2584 770 2862 
Q 544 3141 544 3541 
Q 544 4100 942 4425 
Q 1341 4750 2034 4750 
Q 2731 4750 3128 4425 
Q 3525 4100 3525 3541 
Q 3525 3141 3298 2862 
Q 3072 2584 2669 2484 
Q 3125 2378 3379 2068 
Q 3634 1759 3634 1313 
Q 3634 634 3220 271 
Q 2806 -91 2034 -91 
Q 1263 -91 848 271 
Q 434 634 434 1313 
Q 434 1759 690 2068 
Q 947 2378 1403 2484 
z
M 1172 3481 
Q 1172 3119 1398 2916 
Q 1625 2713 2034 2713 
Q 2441 2713 2670 2916 
Q 2900 3119 2900 3481 
Q 2900 3844 2670 4047 
Q 2441 4250 2034 4250 
Q 1625 4250 1398 4047 
Q 1172 3844 1172 3481 
z
" id="DejaVuSans-38" transform="scale(0.015625)"/>
       </defs>
       <use xlink:href="#DejaVuSans-38"/>
       <use x="63.623047" xlink:href="#DejaVuSans-30"/>
       <use x="127.246094" xlink:href="#DejaVuSans-30"/>
      </g>
     </g>
    </g>
    <g id="xtick_6">
     <g id="line2d_6">
      <g>
       <use style="stroke:#000000;stroke-width:0.8;" x="1180.772545" xlink:href="#mab7546428e" y="452.717812"/>
      </g>
     </g>
     <g id="text_6">
      <!-- 1000 -->
      <g transform="translate(1145.142545 480.993437)scale(0.28 -0.28)">
       <defs>
        <path d="M 794 531 
L 1825 531 
L 1825 4091 
L 703 3866 
L 703 4441 
L 1819 4666 
L 2450 4666 
L 2450 531 
L 3481 531 
L 3481 0 
L 794 0 
L 794 531 
z
" id="DejaVuSans-31" transform="scale(0.015625)"/>
       </defs>
       <use xlink:href="#DejaVuSans-31"/>
       <use x="63.623047" xlink:href="#DejaVuSans-30"/>
       <use x="127.246094" xlink:href="#DejaVuSans-30"/>
       <use x="190.869141" xlink:href="#DejaVuSans-30"/>
      </g>
     </g>
    </g>
    <g id="xtick_7">
     <g id="line2d_7">
      <g>
       <use style="stroke:#000000;stroke-width:0.8;" x="1383.681636" xlink:href="#mab7546428e" y="452.717812"/>
      </g>
     </g>
     <g id="text_7">
      <!-- 1200 -->
      <g transform="translate(1348.051636 480.993437)scale(0.28 -0.28)">
       <use xlink:href="#DejaVuSans-31"/>
       <use x="63.623047" xlink:href="#DejaVuSans-32"/>
       <use x="127.246094" xlink:href="#DejaVuSans-30"/>
       <use x="190.869141" xlink:href="#DejaVuSans-30"/>
      </g>
     </g>
    </g>
    <g id="text_8">
     <!-- Batch order -->
     <g transform="translate(706.573 515.131562)scale(0.32 -0.32)">
      <defs>
       <path d="M 1259 2228 
L 1259 519 
L 2272 519 
Q 2781 519 3026 730 
Q 3272 941 3272 1375 
Q 3272 1813 3026 2020 
Q 2781 2228 2272 2228 
L 1259 2228 
z
M 1259 4147 
L 1259 2741 
L 2194 2741 
Q 2656 2741 2882 2914 
Q 3109 3088 3109 3444 
Q 3109 3797 2882 3972 
Q 2656 4147 2194 4147 
L 1259 4147 
z
M 628 4666 
L 2241 4666 
Q 2963 4666 3353 4366 
Q 3744 4066 3744 3513 
Q 3744 3084 3544 2831 
Q 3344 2578 2956 2516 
Q 3422 2416 3680 2098 
Q 3938 1781 3938 1306 
Q 3938 681 3513 340 
Q 3088 0 2303 0 
L 628 0 
L 628 4666 
z
" id="DejaVuSans-42" transform="scale(0.015625)"/>
       <path d="M 2194 1759 
Q 1497 1759 1228 1600 
Q 959 1441 959 1056 
Q 959 750 1161 570 
Q 1363 391 1709 391 
Q 2188 391 2477 730 
Q 2766 1069 2766 1631 
L 2766 1759 
L 2194 1759 
z
M 3341 1997 
L 3341 0 
L 2766 0 
L 2766 531 
Q 2569 213 2275 61 
Q 1981 -91 1556 -91 
Q 1019 -91 701 211 
Q 384 513 384 1019 
Q 384 1609 779 1909 
Q 1175 2209 1959 2209 
L 2766 2209 
L 2766 2266 
Q 2766 2663 2505 2880 
Q 2244 3097 1772 3097 
Q 1472 3097 1187 3025 
Q 903 2953 641 2809 
L 641 3341 
Q 956 3463 1253 3523 
Q 1550 3584 1831 3584 
Q 2591 3584 2966 3190 
Q 3341 2797 3341 1997 
z
" id="DejaVuSans-61" transform="scale(0.015625)"/>
       <path d="M 1172 4494 
L 1172 3500 
L 2356 3500 
L 2356 3053 
L 1172 3053 
L 1172 1153 
Q 1172 725 1289 603 
Q 1406 481 1766 481 
L 2356 481 
L 2356 0 
L 1766 0 
Q 1100 0 847 248 
Q 594 497 594 1153 
L 594 3053 
L 172 3053 
L 172 3500 
L 594 3500 
L 594 4494 
L 1172 4494 
z
" id="DejaVuSans-74" transform="scale(0.015625)"/>
       <path d="M 3122 3366 
L 3122 2828 
Q 2878 2963 2633 3030 
Q 2388 3097 2138 3097 
Q 1578 3097 1268 2742 
Q 959 2388 959 1747 
Q 959 1106 1268 751 
Q 1578 397 2138 397 
Q 2388 397 2633 464 
Q 2878 531 3122 666 
L 3122 134 
Q 2881 22 2623 -34 
Q 2366 -91 2075 -91 
Q 1284 -91 818 406 
Q 353 903 353 1747 
Q 353 2603 823 3093 
Q 1294 3584 2113 3584 
Q 2378 3584 2631 3529 
Q 2884 3475 3122 3366 
z
" id="DejaVuSans-63" transform="scale(0.015625)"/>
       <path d="M 3513 2113 
L 3513 0 
L 2938 0 
L 2938 2094 
Q 2938 2591 2744 2837 
Q 2550 3084 2163 3084 
Q 1697 3084 1428 2787 
Q 1159 2491 1159 1978 
L 1159 0 
L 581 0 
L 581 4863 
L 1159 4863 
L 1159 2956 
Q 1366 3272 1645 3428 
Q 1925 3584 2291 3584 
Q 2894 3584 3203 3211 
Q 3513 2838 3513 2113 
z
" id="DejaVuSans-68" transform="scale(0.015625)"/>
       <path id="DejaVuSans-20" transform="scale(0.015625)"/>
       <path d="M 1959 3097 
Q 1497 3097 1228 2736 
Q 959 2375 959 1747 
Q 959 1119 1226 758 
Q 1494 397 1959 397 
Q 2419 397 2687 759 
Q 2956 1122 2956 1747 
Q 2956 2369 2687 2733 
Q 2419 3097 1959 3097 
z
M 1959 3584 
Q 2709 3584 3137 3096 
Q 3566 2609 3566 1747 
Q 3566 888 3137 398 
Q 2709 -91 1959 -91 
Q 1206 -91 779 398 
Q 353 888 353 1747 
Q 353 2609 779 3096 
Q 1206 3584 1959 3584 
z
" id="DejaVuSans-6f" transform="scale(0.015625)"/>
       <path d="M 2631 2963 
Q 2534 3019 2420 3045 
Q 2306 3072 2169 3072 
Q 1681 3072 1420 2755 
Q 1159 2438 1159 1844 
L 1159 0 
L 581 0 
L 581 3500 
L 1159 3500 
L 1159 2956 
Q 1341 3275 1631 3429 
Q 1922 3584 2338 3584 
Q 2397 3584 2469 3576 
Q 2541 3569 2628 3553 
L 2631 2963 
z
" id="DejaVuSans-72" transform="scale(0.015625)"/>
       <path d="M 2906 2969 
L 2906 4863 
L 3481 4863 
L 3481 0 
L 2906 0 
L 2906 525 
Q 2725 213 2448 61 
Q 2172 -91 1784 -91 
Q 1150 -91 751 415 
Q 353 922 353 1747 
Q 353 2572 751 3078 
Q 1150 3584 1784 3584 
Q 2172 3584 2448 3432 
Q 2725 3281 2906 2969 
z
M 947 1747 
Q 947 1113 1208 752 
Q 1469 391 1925 391 
Q 2381 391 2643 752 
Q 2906 1113 2906 1747 
Q 2906 2381 2643 2742 
Q 2381 3103 1925 3103 
Q 1469 3103 1208 2742 
Q 947 2381 947 1747 
z
" id="DejaVuSans-64" transform="scale(0.015625)"/>
       <path d="M 3597 1894 
L 3597 1613 
L 953 1613 
Q 991 1019 1311 708 
Q 1631 397 2203 397 
Q 2534 397 2845 478 
Q 3156 559 3463 722 
L 3463 178 
Q 3153 47 2828 -22 
Q 2503 -91 2169 -91 
Q 1331 -91 842 396 
Q 353 884 353 1716 
Q 353 2575 817 3079 
Q 1281 3584 2069 3584 
Q 2775 3584 3186 3129 
Q 3597 2675 3597 1894 
z
M 3022 2063 
Q 3016 2534 2758 2815 
Q 2500 3097 2075 3097 
Q 1594 3097 1305 2825 
Q 1016 2553 972 2059 
L 3022 2063 
z
" id="DejaVuSans-65" transform="scale(0.015625)"/>
      </defs>
      <use xlink:href="#DejaVuSans-42"/>
      <use x="68.603516" xlink:href="#DejaVuSans-61"/>
      <use x="129.882812" xlink:href="#DejaVuSans-74"/>
      <use x="169.091797" xlink:href="#DejaVuSans-63"/>
      <use x="224.072266" xlink:href="#DejaVuSans-68"/>
      <use x="287.451172" xlink:href="#DejaVuSans-20"/>
      <use x="319.238281" xlink:href="#DejaVuSans-6f"/>
      <use x="380.419922" xlink:href="#DejaVuSans-72"/>
      <use x="419.783203" xlink:href="#DejaVuSans-64"/>
      <use x="483.259766" xlink:href="#DejaVuSans-65"/>
      <use x="544.783203" xlink:href="#DejaVuSans-72"/>
     </g>
    </g>
   </g>
   <g id="matplotlib.axis_2">
    <g id="ytick_1">
     <g id="line2d_8">
      <defs>
       <path d="M 0 0 
L -3.5 0 
" id="m584315580e" style="stroke:#000000;stroke-width:0.8;"/>
      </defs>
      <g>
       <use style="stroke:#000000;stroke-width:0.8;" x="102.818" xlink:href="#m584315580e" y="452.717813"/>
      </g>
     </g>
     <g id="text_9">
      <!-- 1 -->
      <g transform="translate(78.003 463.355625)scale(0.28 -0.28)">
       <use xlink:href="#DejaVuSans-31"/>
      </g>
     </g>
    </g>
    <g id="ytick_2">
     <g id="line2d_9">
      <g>
       <use style="stroke:#000000;stroke-width:0.8;" x="102.818" xlink:href="#m584315580e" y="390.592098"/>
      </g>
     </g>
     <g id="text_10">
      <!-- 2 -->
      <g transform="translate(78.003 401.229911)scale(0.28 -0.28)">
       <use xlink:href="#DejaVuSans-32"/>
      </g>
     </g>
    </g>
    <g id="ytick_3">
     <g id="line2d_10">
      <g>
       <use style="stroke:#000000;stroke-width:0.8;" x="102.818" xlink:href="#m584315580e" y="328.466384"/>
      </g>
     </g>
     <g id="text_11">
      <!-- 3 -->
      <g transform="translate(78.003 339.104196)scale(0.28 -0.28)">
       <defs>
        <path d="M 2597 2516 
Q 3050 2419 3304 2112 
Q 3559 1806 3559 1356 
Q 3559 666 3084 287 
Q 2609 -91 1734 -91 
Q 1441 -91 1130 -33 
Q 819 25 488 141 
L 488 750 
Q 750 597 1062 519 
Q 1375 441 1716 441 
Q 2309 441 2620 675 
Q 2931 909 2931 1356 
Q 2931 1769 2642 2001 
Q 2353 2234 1838 2234 
L 1294 2234 
L 1294 2753 
L 1863 2753 
Q 2328 2753 2575 2939 
Q 2822 3125 2822 3475 
Q 2822 3834 2567 4026 
Q 2313 4219 1838 4219 
Q 1578 4219 1281 4162 
Q 984 4106 628 3988 
L 628 4550 
Q 988 4650 1302 4700 
Q 1616 4750 1894 4750 
Q 2613 4750 3031 4423 
Q 3450 4097 3450 3541 
Q 3450 3153 3228 2886 
Q 3006 2619 2597 2516 
z
" id="DejaVuSans-33" transform="scale(0.015625)"/>
       </defs>
       <use xlink:href="#DejaVuSans-33"/>
      </g>
     </g>
    </g>
    <g id="ytick_4">
     <g id="line2d_11">
      <g>
       <use style="stroke:#000000;stroke-width:0.8;" x="102.818" xlink:href="#m584315580e" y="266.34067"/>
      </g>
     </g>
     <g id="text_12">
      <!-- 4 -->
      <g transform="translate(78.003 276.978482)scale(0.28 -0.28)">
       <use xlink:href="#DejaVuSans-34"/>
      </g>
     </g>
    </g>
    <g id="ytick_5">
     <g id="line2d_12">
      <g>
       <use style="stroke:#000000;stroke-width:0.8;" x="102.818" xlink:href="#m584315580e" y="204.214955"/>
      </g>
     </g>
     <g id="text_13">
      <!-- 5 -->
      <g transform="translate(78.003 214.852768)scale(0.28 -0.28)">
       <defs>
        <path d="M 691 4666 
L 3169 4666 
L 3169 4134 
L 1269 4134 
L 1269 2991 
Q 1406 3038 1543 3061 
Q 1681 3084 1819 3084 
Q 2600 3084 3056 2656 
Q 3513 2228 3513 1497 
Q 3513 744 3044 326 
Q 2575 -91 1722 -91 
Q 1428 -91 1123 -41 
Q 819 9 494 109 
L 494 744 
Q 775 591 1075 516 
Q 1375 441 1709 441 
Q 2250 441 2565 725 
Q 2881 1009 2881 1497 
Q 2881 1984 2565 2268 
Q 2250 2553 1709 2553 
Q 1456 2553 1204 2497 
Q 953 2441 691 2322 
L 691 4666 
z
" id="DejaVuSans-35" transform="scale(0.015625)"/>
       </defs>
       <use xlink:href="#DejaVuSans-35"/>
      </g>
     </g>
    </g>
    <g id="ytick_6">
     <g id="line2d_13">
      <g>
       <use style="stroke:#000000;stroke-width:0.8;" x="102.818" xlink:href="#m584315580e" y="142.089241"/>
      </g>
     </g>
     <g id="text_14">
      <!-- 6 -->
      <g transform="translate(78.003 152.727054)scale(0.28 -0.28)">
       <use xlink:href="#DejaVuSans-36"/>
      </g>
     </g>
    </g>
    <g id="ytick_7">
     <g id="line2d_14">
      <g>
       <use style="stroke:#000000;stroke-width:0.8;" x="102.818" xlink:href="#m584315580e" y="79.963527"/>
      </g>
     </g>
     <g id="text_15">
      <!-- 7 -->
      <g transform="translate(78.003 90.601339)scale(0.28 -0.28)">
       <defs>
        <path d="M 525 4666 
L 3525 4666 
L 3525 4397 
L 1831 0 
L 1172 0 
L 2766 4134 
L 525 4134 
L 525 4666 
z
" id="DejaVuSans-37" transform="scale(0.015625)"/>
       </defs>
       <use xlink:href="#DejaVuSans-37"/>
      </g>
     </g>
    </g>
    <g id="ytick_8">
     <g id="line2d_15">
      <g>
       <use style="stroke:#000000;stroke-width:0.8;" x="102.818" xlink:href="#m584315580e" y="17.837813"/>
      </g>
     </g>
     <g id="text_16">
      <!-- 8 -->
      <g transform="translate(78.003 28.475625)scale(0.28 -0.28)">
       <use xlink:href="#DejaVuSans-38"/>
      </g>
     </g>
    </g>
    <g id="text_17">
     <!-- Batch processing time  -->
     <g transform="translate(31.515 418.892812)rotate(-90)scale(0.32 -0.32)">
      <defs>
       <path d="M 1159 525 
L 1159 -1331 
L 581 -1331 
L 581 3500 
L 1159 3500 
L 1159 2969 
Q 1341 3281 1617 3432 
Q 1894 3584 2278 3584 
Q 2916 3584 3314 3078 
Q 3713 2572 3713 1747 
Q 3713 922 3314 415 
Q 2916 -91 2278 -91 
Q 1894 -91 1617 61 
Q 1341 213 1159 525 
z
M 3116 1747 
Q 3116 2381 2855 2742 
Q 2594 3103 2138 3103 
Q 1681 3103 1420 2742 
Q 1159 2381 1159 1747 
Q 1159 1113 1420 752 
Q 1681 391 2138 391 
Q 2594 391 2855 752 
Q 3116 1113 3116 1747 
z
" id="DejaVuSans-70" transform="scale(0.015625)"/>
       <path d="M 2834 3397 
L 2834 2853 
Q 2591 2978 2328 3040 
Q 2066 3103 1784 3103 
Q 1356 3103 1142 2972 
Q 928 2841 928 2578 
Q 928 2378 1081 2264 
Q 1234 2150 1697 2047 
L 1894 2003 
Q 2506 1872 2764 1633 
Q 3022 1394 3022 966 
Q 3022 478 2636 193 
Q 2250 -91 1575 -91 
Q 1294 -91 989 -36 
Q 684 19 347 128 
L 347 722 
Q 666 556 975 473 
Q 1284 391 1588 391 
Q 1994 391 2212 530 
Q 2431 669 2431 922 
Q 2431 1156 2273 1281 
Q 2116 1406 1581 1522 
L 1381 1569 
Q 847 1681 609 1914 
Q 372 2147 372 2553 
Q 372 3047 722 3315 
Q 1072 3584 1716 3584 
Q 2034 3584 2315 3537 
Q 2597 3491 2834 3397 
z
" id="DejaVuSans-73" transform="scale(0.015625)"/>
       <path d="M 603 3500 
L 1178 3500 
L 1178 0 
L 603 0 
L 603 3500 
z
M 603 4863 
L 1178 4863 
L 1178 4134 
L 603 4134 
L 603 4863 
z
" id="DejaVuSans-69" transform="scale(0.015625)"/>
       <path d="M 3513 2113 
L 3513 0 
L 2938 0 
L 2938 2094 
Q 2938 2591 2744 2837 
Q 2550 3084 2163 3084 
Q 1697 3084 1428 2787 
Q 1159 2491 1159 1978 
L 1159 0 
L 581 0 
L 581 3500 
L 1159 3500 
L 1159 2956 
Q 1366 3272 1645 3428 
Q 1925 3584 2291 3584 
Q 2894 3584 3203 3211 
Q 3513 2838 3513 2113 
z
" id="DejaVuSans-6e" transform="scale(0.015625)"/>
       <path d="M 2906 1791 
Q 2906 2416 2648 2759 
Q 2391 3103 1925 3103 
Q 1463 3103 1205 2759 
Q 947 2416 947 1791 
Q 947 1169 1205 825 
Q 1463 481 1925 481 
Q 2391 481 2648 825 
Q 2906 1169 2906 1791 
z
M 3481 434 
Q 3481 -459 3084 -895 
Q 2688 -1331 1869 -1331 
Q 1566 -1331 1297 -1286 
Q 1028 -1241 775 -1147 
L 775 -588 
Q 1028 -725 1275 -790 
Q 1522 -856 1778 -856 
Q 2344 -856 2625 -561 
Q 2906 -266 2906 331 
L 2906 616 
Q 2728 306 2450 153 
Q 2172 0 1784 0 
Q 1141 0 747 490 
Q 353 981 353 1791 
Q 353 2603 747 3093 
Q 1141 3584 1784 3584 
Q 2172 3584 2450 3431 
Q 2728 3278 2906 2969 
L 2906 3500 
L 3481 3500 
L 3481 434 
z
" id="DejaVuSans-67" transform="scale(0.015625)"/>
       <path d="M 3328 2828 
Q 3544 3216 3844 3400 
Q 4144 3584 4550 3584 
Q 5097 3584 5394 3201 
Q 5691 2819 5691 2113 
L 5691 0 
L 5113 0 
L 5113 2094 
Q 5113 2597 4934 2840 
Q 4756 3084 4391 3084 
Q 3944 3084 3684 2787 
Q 3425 2491 3425 1978 
L 3425 0 
L 2847 0 
L 2847 2094 
Q 2847 2600 2669 2842 
Q 2491 3084 2119 3084 
Q 1678 3084 1418 2786 
Q 1159 2488 1159 1978 
L 1159 0 
L 581 0 
L 581 3500 
L 1159 3500 
L 1159 2956 
Q 1356 3278 1631 3431 
Q 1906 3584 2284 3584 
Q 2666 3584 2933 3390 
Q 3200 3197 3328 2828 
z
" id="DejaVuSans-6d" transform="scale(0.015625)"/>
      </defs>
      <use xlink:href="#DejaVuSans-42"/>
      <use x="68.603516" xlink:href="#DejaVuSans-61"/>
      <use x="129.882812" xlink:href="#DejaVuSans-74"/>
      <use x="169.091797" xlink:href="#DejaVuSans-63"/>
      <use x="224.072266" xlink:href="#DejaVuSans-68"/>
      <use x="287.451172" xlink:href="#DejaVuSans-20"/>
      <use x="319.238281" xlink:href="#DejaVuSans-70"/>
      <use x="382.714844" xlink:href="#DejaVuSans-72"/>
      <use x="421.578125" xlink:href="#DejaVuSans-6f"/>
      <use x="482.759766" xlink:href="#DejaVuSans-63"/>
      <use x="537.740234" xlink:href="#DejaVuSans-65"/>
      <use x="599.263672" xlink:href="#DejaVuSans-73"/>
      <use x="651.363281" xlink:href="#DejaVuSans-73"/>
      <use x="703.462891" xlink:href="#DejaVuSans-69"/>
      <use x="731.246094" xlink:href="#DejaVuSans-6e"/>
      <use x="794.625" xlink:href="#DejaVuSans-67"/>
      <use x="858.101562" xlink:href="#DejaVuSans-20"/>
      <use x="889.888672" xlink:href="#DejaVuSans-74"/>
      <use x="929.097656" xlink:href="#DejaVuSans-69"/>
      <use x="956.880859" xlink:href="#DejaVuSans-6d"/>
      <use x="1054.292969" xlink:href="#DejaVuSans-65"/>
      <use x="1115.816406" xlink:href="#DejaVuSans-20"/>
     </g>
     <!-- (sec) -->
     <g transform="translate(67.348 274.740312)rotate(-90)scale(0.32 -0.32)">
      <defs>
       <path d="M 1984 4856 
Q 1566 4138 1362 3434 
Q 1159 2731 1159 2009 
Q 1159 1288 1364 580 
Q 1569 -128 1984 -844 
L 1484 -844 
Q 1016 -109 783 600 
Q 550 1309 550 2009 
Q 550 2706 781 3412 
Q 1013 4119 1484 4856 
L 1984 4856 
z
" id="DejaVuSans-28" transform="scale(0.015625)"/>
       <path d="M 513 4856 
L 1013 4856 
Q 1481 4119 1714 3412 
Q 1947 2706 1947 2009 
Q 1947 1309 1714 600 
Q 1481 -109 1013 -844 
L 513 -844 
Q 928 -128 1133 580 
Q 1338 1288 1338 2009 
Q 1338 2731 1133 3434 
Q 928 4138 513 4856 
z
" id="DejaVuSans-29" transform="scale(0.015625)"/>
      </defs>
      <use xlink:href="#DejaVuSans-28"/>
      <use x="39.013672" xlink:href="#DejaVuSans-73"/>
      <use x="91.113281" xlink:href="#DejaVuSans-65"/>
      <use x="152.636719" xlink:href="#DejaVuSans-63"/>
      <use x="207.617188" xlink:href="#DejaVuSans-29"/>
     </g>
    </g>
   </g>
   <g id="line2d_16">
    <path clip-path="url(#pe3b740248f)" d="M 166.227091 406.899473 
L 167.241636 406.011539 
L 169.270727 402.982894 
L 170.285273 403.591127 
L 171.299818 287.262472 
L 172.314364 286.551503 
L 173.328909 394.103748 
L 174.343455 405.179963 
L 175.358 398.491964 
L 176.372545 403.187978 
L 177.387091 399.14372 
L 178.401636 292.553766 
L 179.416182 275.61796 
L 180.430727 405.837969 
L 181.445273 404.584188 
L 182.459818 413.839509 
L 183.474364 410.848009 
L 184.488909 408.74046 
L 185.503455 315.370756 
L 186.518 316.035285 
L 187.532545 412.83699 
L 188.547091 393.714489 
L 189.561636 411.871122 
L 190.576182 391.808495 
L 191.590727 419.234598 
L 192.605273 320.58187 
L 193.619818 311.340257 
L 194.634364 411.108519 
L 195.648909 410.474084 
L 196.663455 410.879033 
L 197.678 410.106595 
L 198.692545 408.037737 
L 199.707091 319.468929 
L 200.721636 302.875167 
L 201.736182 415.922673 
L 202.750727 407.88585 
L 203.765273 386.826565 
L 204.779818 406.207529 
L 205.794364 402.679648 
L 206.808909 285.336054 
L 207.823455 318.135446 
L 208.838 410.428698 
L 209.852545 413.791085 
L 210.867091 404.817373 
L 211.881636 419.032675 
L 212.896182 399.342714 
L 213.910727 318.072332 
L 214.925273 316.813926 
L 215.939818 409.496793 
L 216.954364 412.497957 
L 217.968909 390.871276 
L 218.983455 411.767986 
L 219.998 402.012471 
L 221.012545 287.514235 
L 222.027091 311.087371 
L 223.041636 408.226111 
L 224.056182 407.128673 
L 225.070727 407.752357 
L 226.085273 398.284358 
L 227.099818 417.695308 
L 228.114364 297.877748 
L 229.128909 306.913562 
L 230.143455 405.842069 
L 231.158 418.805024 
L 232.172545 412.865651 
L 233.187091 415.614392 
L 234.201636 408.258346 
L 235.216182 309.858266 
L 236.230727 322.880147 
L 237.245273 404.224431 
L 238.259818 416.769711 
L 239.274364 409.346975 
L 240.288909 394.654642 
L 241.303455 406.613888 
L 242.318 319.615309 
L 243.332545 313.719789 
L 244.347091 413.00987 
L 245.361636 417.951593 
L 246.376182 421.876692 
L 247.390727 417.699584 
L 248.405273 406.182183 
L 249.419818 317.26997 
L 250.434364 320.849064 
L 251.448909 414.156486 
L 252.463455 407.408471 
L 253.478 404.95862 
L 254.492545 402.917392 
L 255.507091 422.541743 
L 256.521636 319.583849 
L 257.536182 304.495913 
L 258.550727 420.013326 
L 259.565273 417.359202 
L 260.579818 418.02678 
L 261.594364 404.717826 
L 262.608909 417.081023 
L 263.623455 321.4818 
L 264.638 327.942014 
L 265.652545 418.49312 
L 266.667091 412.445093 
L 267.681636 421.617417 
L 268.696182 417.565403 
L 269.710727 424.953288 
L 270.725273 309.856394 
L 271.739818 318.623062 
L 272.754364 417.746489 
L 273.768909 414.052021 
L 274.783455 413.949173 
L 275.798 416.915155 
L 276.812545 416.799235 
L 277.827091 321.640154 
L 278.841636 305.254367 
L 279.856182 411.854802 
L 280.870727 415.060961 
L 281.885273 415.929871 
L 282.899818 411.810832 
L 283.914364 414.416087 
L 284.928909 302.981764 
L 285.943455 317.427976 
L 286.958 410.252309 
L 287.972545 415.479051 
L 288.987091 377.912826 
L 290.001636 411.778678 
L 291.016182 406.678079 
L 292.030727 319.565356 
L 293.045273 306.04786 
L 294.059818 415.638749 
L 295.074364 418.519373 
L 296.088909 416.01177 
L 297.103455 417.355053 
L 298.118 412.415159 
L 299.132545 313.345813 
L 300.147091 314.809605 
L 301.161636 418.980797 
L 302.176182 421.75085 
L 303.190727 421.568639 
L 304.205273 420.008888 
L 305.219818 416.111515 
L 306.234364 324.481098 
L 307.248909 324.087604 
L 308.263455 420.765063 
L 309.278 422.602388 
L 310.292545 412.463456 
L 311.307091 419.705461 
L 312.321636 413.352874 
L 313.336182 307.310473 
L 314.350727 321.285687 
L 315.365273 405.776077 
L 316.379818 424.080885 
L 317.394364 421.932021 
L 318.408909 413.795782 
L 319.423455 409.62233 
L 320.438 295.124149 
L 321.452545 311.310791 
L 322.467091 415.483444 
L 323.481636 420.05085 
L 324.496182 406.818308 
L 325.510727 410.731607 
L 326.525273 421.133476 
L 327.539818 328.721125 
L 328.554364 321.872521 
L 329.568909 416.047793 
L 330.583455 410.095742 
L 331.598 411.162469 
L 332.612545 420.263535 
L 333.627091 423.614212 
L 334.641636 324.231017 
L 335.656182 322.876065 
L 336.670727 405.449855 
L 337.685273 420.566105 
L 338.699818 408.002256 
L 339.714364 413.133162 
L 340.728909 425.604341 
L 341.743455 323.728486 
L 342.758 308.942936 
L 343.772545 411.405805 
L 344.787091 417.450791 
L 345.801636 405.997127 
L 346.816182 416.471625 
L 347.830727 412.303515 
L 348.845273 314.83105 
L 349.859818 325.189834 
L 350.874364 421.86946 
L 351.888909 414.188937 
L 352.903455 415.146322 
L 353.918 392.357045 
L 354.932545 409.777059 
L 355.947091 304.495965 
L 356.961636 323.347997 
L 357.976182 417.187696 
L 358.990727 410.57553 
L 360.005273 410.491742 
L 361.019818 414.370837 
L 362.034364 414.549204 
L 363.048909 324.155432 
L 364.063455 314.283773 
L 365.078 395.593423 
L 366.092545 412.071457 
L 367.107091 404.054218 
L 368.121636 415.858697 
L 369.136182 418.071118 
L 370.150727 296.461565 
L 371.165273 307.404659 
L 372.179818 421.479038 
L 373.194364 422.245544 
L 374.208909 412.899024 
L 375.223455 420.793459 
L 376.238 417.178113 
L 377.252545 313.389811 
L 378.267091 310.16834 
L 379.281636 417.045558 
L 380.296182 411.179002 
L 381.310727 417.405464 
L 382.325273 407.459937 
L 383.339818 418.090939 
L 384.354364 316.901847 
L 385.368909 316.529164 
L 386.383455 408.158512 
L 387.398 419.356804 
L 388.412545 416.345221 
L 389.427091 414.356951 
L 390.441636 408.137744 
L 391.456182 307.937518 
L 392.470727 325.175644 
L 393.485273 414.013751 
L 394.499818 416.804855 
L 395.514364 408.763141 
L 396.528909 418.568608 
L 397.543455 415.603939 
L 398.558 326.958025 
L 399.572545 311.527479 
L 400.587091 410.886402 
L 401.601636 415.207662 
L 402.616182 405.251037 
L 403.630727 418.903917 
L 404.645273 417.532967 
L 405.659818 306.299357 
L 406.674364 321.341877 
L 407.688909 416.983723 
L 408.703455 404.358494 
L 409.718 414.877037 
L 410.732545 420.559029 
L 411.747091 416.796244 
L 412.761636 312.184681 
L 413.776182 305.479377 
L 414.790727 421.773223 
L 415.805273 420.470994 
L 416.819818 415.033739 
L 417.834364 395.871795 
L 418.848909 406.43104 
L 419.863455 329.169052 
L 420.878 298.235064 
L 421.892545 403.278967 
L 422.907091 405.835233 
L 423.921636 418.755376 
L 424.936182 412.491831 
L 425.950727 418.697482 
L 426.965273 312.329395 
L 427.979818 317.491393 
L 428.994364 417.397229 
L 430.008909 413.139658 
L 431.023455 410.446945 
L 432.038 416.4385 
L 433.052545 407.816417 
L 434.067091 321.316916 
L 435.081636 307.054053 
L 436.096182 414.776444 
L 437.110727 409.730733 
L 438.125273 422.655601 
L 439.139818 404.62371 
L 440.154364 418.94686 
L 441.168909 295.225367 
L 442.183455 315.721327 
L 443.198 408.449179 
L 444.212545 419.770337 
L 445.227091 411.967207 
L 446.241636 416.036745 
L 447.256182 418.23917 
L 448.270727 322.37935 
L 449.285273 278.972705 
L 450.299818 409.946232 
L 451.314364 418.086704 
L 452.328909 415.036892 
L 453.343455 416.59951 
L 454.358 415.247347 
L 455.372545 311.293503 
L 456.387091 286.898757 
L 457.401636 410.306452 
L 458.416182 417.641069 
L 459.430727 411.82994 
L 460.445273 409.179332 
L 461.459818 417.51526 
L 462.474364 308.075984 
L 463.488909 317.688026 
L 464.503455 420.40485 
L 465.518 412.694776 
L 466.532545 415.026138 
L 467.547091 412.587622 
L 468.561636 414.643077 
L 469.576182 300.776875 
L 470.590727 314.682075 
L 471.605273 416.194442 
L 472.619818 399.887552 
L 473.634364 418.937444 
L 474.648909 401.134845 
L 475.663455 407.803297 
L 476.678 312.561746 
L 477.692545 294.429646 
L 478.707091 413.357664 
L 479.721636 418.286277 
L 480.736182 406.107936 
L 481.750727 406.240559 
L 482.765273 403.369724 
L 483.779818 279.160554 
L 484.794364 294.762225 
L 485.808909 410.449892 
L 486.823455 403.108087 
L 487.838 421.652952 
L 488.852545 421.283288 
L 489.867091 418.942998 
L 490.881636 321.316384 
L 491.896182 302.291306 
L 492.910727 417.305659 
L 493.925273 411.105465 
L 494.939818 410.871043 
L 495.954364 405.181318 
L 496.968909 410.256145 
L 497.983455 328.534604 
L 498.998 316.351984 
L 500.012545 384.905391 
L 501.027091 412.142028 
L 502.041636 414.916988 
L 503.056182 407.775417 
L 504.070727 415.327555 
L 505.085273 306.947499 
L 506.099818 303.294127 
L 507.114364 397.996341 
L 508.128909 414.659393 
L 509.143455 410.937017 
L 510.158 416.929609 
L 511.172545 400.808147 
L 512.187091 308.645887 
L 513.201636 306.120899 
L 514.216182 411.406717 
L 515.230727 405.498927 
L 516.245273 417.835292 
L 517.259818 417.130689 
L 518.274364 409.617602 
L 519.288909 321.068484 
L 520.303455 314.006627 
L 521.318 402.591545 
L 522.332545 408.626619 
L 523.347091 420.393782 
L 524.361636 401.494753 
L 525.376182 419.214441 
L 526.390727 306.426885 
L 527.405273 294.10373 
L 528.419818 419.162683 
L 529.434364 413.828337 
L 530.448909 405.371851 
L 531.463455 403.789705 
L 532.478 420.399508 
L 533.492545 317.353535 
L 534.507091 319.210746 
L 535.521636 415.793765 
L 536.536182 404.846423 
L 537.550727 417.495421 
L 538.565273 417.139551 
L 539.579818 411.91976 
L 540.594364 325.075086 
L 541.608909 318.556423 
L 542.623455 417.50084 
L 543.638 411.458979 
L 544.652545 395.002927 
L 545.667091 418.205959 
L 546.681636 417.78551 
L 547.696182 304.391633 
L 548.710727 322.973702 
L 549.725273 399.64155 
L 550.739818 413.948166 
L 551.754364 411.675444 
L 552.768909 406.317795 
L 553.783455 408.553143 
L 554.798 308.80856 
L 555.812545 314.382097 
L 556.827091 406.904468 
L 557.841636 417.921659 
L 558.856182 419.807525 
L 559.870727 415.946959 
L 560.885273 395.153921 
L 561.899818 320.37261 
L 562.914364 317.766973 
L 563.928909 413.774741 
L 564.943455 414.544515 
L 565.958 409.74423 
L 566.972545 413.031325 
L 567.987091 412.256346 
L 569.001636 329.008377 
L 570.016182 323.295841 
L 571.030727 405.256975 
L 572.045273 412.674424 
L 573.059818 405.920003 
L 574.074364 411.334139 
L 575.088909 401.50605 
L 576.103455 312.29074 
L 577.118 287.768714 
L 578.132545 412.33661 
L 579.147091 418.833885 
L 580.161636 410.740837 
L 581.176182 404.945384 
L 582.190727 415.824518 
L 583.205273 315.982328 
L 584.219818 308.757178 
L 585.234364 418.95094 
L 586.248909 416.061389 
L 587.263455 419.572648 
L 588.278 420.161973 
L 589.292545 412.018723 
L 590.307091 325.953837 
L 591.321636 286.708394 
L 592.336182 412.73795 
L 593.350727 413.810084 
L 594.365273 407.096199 
L 595.379818 415.167356 
L 596.394364 417.600484 
L 597.408909 291.4575 
L 598.423455 280.898032 
L 599.438 419.538044 
L 600.452545 420.368249 
L 601.467091 410.058578 
L 602.481636 419.686525 
L 603.496182 423.570152 
L 604.510727 308.220673 
L 605.525273 290.435992 
L 606.539818 412.905145 
L 607.554364 419.232442 
L 608.568909 413.66081 
L 609.583455 411.821964 
L 610.598 418.873668 
L 611.612545 315.920969 
L 612.627091 305.573727 
L 613.641636 407.889753 
L 614.656182 403.200759 
L 615.670727 401.613826 
L 616.685273 415.951928 
L 617.699818 418.05747 
L 618.714364 303.948127 
L 619.728909 303.918059 
L 620.743455 420.069276 
L 621.758 418.181619 
L 622.772545 420.089767 
L 623.787091 403.558416 
L 624.801636 413.859194 
L 626.830727 246.314099 
L 627.845273 400.657371 
L 628.859818 413.561127 
L 629.874364 415.008444 
L 630.888909 420.890068 
L 631.903455 404.621685 
L 632.918 321.07694 
L 633.932545 276.671426 
L 634.947091 412.76484 
L 635.961636 416.532078 
L 636.976182 413.773832 
L 637.990727 412.504075 
L 639.005273 416.514165 
L 640.019818 320.833665 
L 641.034364 324.442447 
L 642.048909 414.849938 
L 643.063455 418.387761 
L 644.078 419.665057 
L 645.092545 404.512029 
L 646.107091 415.9017 
L 647.121636 307.1226 
L 648.136182 309.757214 
L 649.150727 415.766802 
L 650.165273 415.561232 
L 651.179818 401.118999 
L 652.194364 419.221137 
L 653.208909 413.388692 
L 654.223455 269.997907 
L 655.238 290.819225 
L 656.252545 419.134893 
L 657.267091 408.42077 
L 658.281636 404.967855 
L 659.296182 409.87067 
L 660.310727 410.427592 
L 661.325273 292.905319 
L 662.339818 315.132176 
L 663.354364 415.562227 
L 664.368909 402.875281 
L 665.383455 419.598271 
L 666.398 421.692843 
L 667.412545 415.833258 
L 668.427091 326.805066 
L 669.441636 320.509972 
L 670.456182 414.37468 
L 671.470727 413.065486 
L 672.485273 407.007705 
L 673.499818 416.030577 
L 674.514364 420.737672 
L 675.528909 314.65686 
L 676.543455 308.169433 
L 677.558 408.34846 
L 678.572545 390.260106 
L 679.587091 408.042209 
L 680.601636 410.634098 
L 681.616182 412.680747 
L 682.630727 293.13691 
L 683.645273 294.560659 
L 684.659818 421.380171 
L 685.674364 417.017835 
L 686.688909 418.50922 
L 687.703455 410.928371 
L 688.718 414.416777 
L 689.732545 310.611503 
L 690.747091 314.576696 
L 691.761636 422.871696 
L 692.776182 408.947996 
L 693.790727 406.766647 
L 694.805273 420.788253 
L 695.819818 415.944021 
L 696.834364 310.365298 
L 697.848909 298.646052 
L 698.863455 414.242822 
L 699.878 421.273807 
L 700.892545 417.710063 
L 701.907091 417.125869 
L 702.921636 412.01943 
L 703.936182 304.124282 
L 704.950727 308.610482 
L 705.965273 409.825311 
L 706.979818 405.747649 
L 707.994364 412.786125 
L 709.008909 421.347614 
L 710.023455 415.743963 
L 711.038 317.783337 
L 712.052545 320.966036 
L 713.067091 406.03368 
L 714.081636 416.116445 
L 715.096182 415.202004 
L 716.110727 409.937261 
L 717.125273 415.038036 
L 718.139818 319.734996 
L 719.154364 294.233559 
L 720.168909 418.962289 
L 721.183455 409.129548 
L 722.198 411.155537 
L 723.212545 409.295091 
L 724.227091 419.606198 
L 725.241636 315.935115 
L 726.256182 315.097804 
L 727.270727 414.036205 
L 728.285273 406.224845 
L 729.299818 413.522361 
L 730.314364 419.143431 
L 731.328909 401.989058 
L 732.343455 288.569213 
L 733.358 322.128981 
L 734.372545 414.341582 
L 735.387091 406.678181 
L 736.401636 406.460168 
L 737.416182 414.519587 
L 738.430727 409.885537 
L 739.445273 313.220578 
L 740.459818 288.448599 
L 741.474364 408.790523 
L 742.488909 420.443439 
L 743.503455 409.654032 
L 744.518 411.368394 
L 745.532545 417.107441 
L 746.547091 300.859853 
L 747.561636 317.321279 
L 748.576182 420.547177 
L 749.590727 410.300348 
L 750.605273 409.392136 
L 751.619818 423.259251 
L 752.634364 409.615832 
L 753.648909 322.89689 
L 754.663455 329.489895 
L 755.678 418.578352 
L 756.692545 415.665194 
L 757.707091 412.138794 
L 758.721636 409.316988 
L 759.736182 414.455868 
L 760.750727 322.323974 
L 761.765273 311.670754 
L 762.779818 411.566411 
L 763.794364 417.698458 
L 764.808909 419.172348 
L 765.823455 420.031364 
L 766.838 422.81239 
L 767.852545 318.045675 
L 768.867091 293.130721 
L 769.881636 409.081693 
L 770.896182 392.431724 
L 771.910727 417.258743 
L 772.925273 412.704463 
L 773.939818 405.496812 
L 774.954364 310.281791 
L 775.968909 296.191924 
L 776.983455 409.92655 
L 777.998 416.648682 
L 779.012545 415.786041 
L 780.027091 418.937292 
L 781.041636 419.972347 
L 782.056182 306.47268 
L 783.070727 322.952889 
L 784.085273 418.336759 
L 785.099818 414.441233 
L 786.114364 415.781358 
L 787.128909 419.828641 
L 788.143455 409.288082 
L 789.158 294.082721 
L 790.172545 306.274416 
L 791.187091 415.401998 
L 792.201636 408.608268 
L 793.216182 413.381946 
L 794.230727 419.171916 
L 795.245273 399.872409 
L 796.259818 296.446343 
L 797.274364 320.66742 
L 798.288909 420.545546 
L 799.303455 413.571471 
L 800.318 409.532038 
L 801.332545 403.50362 
L 802.347091 413.369107 
L 803.361636 283.55453 
L 804.376182 319.856572 
L 805.390727 422.063751 
L 806.405273 410.58397 
L 807.419818 412.927977 
L 808.434364 422.288016 
L 809.448909 412.962105 
L 810.463455 320.398654 
L 811.478 315.901826 
L 812.492545 403.472702 
L 813.507091 412.400972 
L 814.521636 395.734932 
L 815.536182 407.761481 
L 816.550727 409.501593 
L 817.565273 300.029503 
L 818.579818 292.16064 
L 819.594364 415.534847 
L 820.608909 420.922908 
L 821.623455 415.230204 
L 822.638 415.537897 
L 823.652545 414.91758 
L 824.667091 313.754977 
L 825.681636 310.234359 
L 826.696182 400.912295 
L 827.710727 413.273019 
L 828.725273 410.04097 
L 829.739818 407.630483 
L 830.754364 411.860819 
L 831.768909 309.764695 
L 832.783455 304.311915 
L 833.798 403.040499 
L 834.812545 409.444381 
L 835.827091 412.435885 
L 836.841636 410.819032 
L 837.856182 420.399658 
L 838.870727 316.611802 
L 839.885273 315.962563 
L 840.899818 412.619565 
L 841.914364 413.301991 
L 842.928909 413.214479 
L 843.943455 409.496801 
L 844.958 399.827416 
L 845.972545 298.882148 
L 846.987091 283.440168 
L 848.001636 413.956483 
L 849.016182 417.932255 
L 850.030727 402.76639 
L 851.045273 406.208709 
L 852.059818 415.504182 
L 853.074364 322.674104 
L 854.088909 288.445624 
L 855.103455 404.915811 
L 856.118 413.03047 
L 857.132545 415.159601 
L 858.147091 408.029673 
L 859.161636 414.135399 
L 860.176182 313.599391 
L 861.190727 334.259807 
L 862.205273 404.468461 
L 863.219818 410.457011 
L 864.234364 414.68937 
L 865.248909 414.633203 
L 866.263455 417.733515 
L 867.278 299.16945 
L 868.292545 333.214791 
L 869.307091 416.20858 
L 870.321636 415.485134 
L 871.336182 413.437912 
L 872.350727 417.315128 
L 873.365273 416.204426 
L 874.379818 310.675292 
L 875.394364 326.393074 
L 876.408909 417.32838 
L 877.423455 413.089105 
L 878.438 417.533148 
L 879.452545 416.622386 
L 880.467091 404.570263 
L 881.481636 310.08651 
L 882.496182 320.04036 
L 883.510727 418.624038 
L 884.525273 410.784975 
L 885.539818 420.653121 
L 886.554364 413.706947 
L 887.568909 415.40117 
L 888.583455 309.041432 
L 889.598 312.434201 
L 890.612545 404.507674 
L 891.627091 414.425609 
L 892.641636 413.023812 
L 893.656182 420.62612 
L 894.670727 407.215974 
L 895.685273 290.066287 
L 896.699818 306.470146 
L 897.714364 405.880984 
L 898.728909 393.599874 
L 899.743455 387.695241 
L 900.758 418.440158 
L 901.772545 414.633936 
L 902.787091 308.449399 
L 903.801636 316.100593 
L 904.816182 416.471943 
L 905.830727 407.944484 
L 906.845273 417.234023 
L 907.859818 408.065228 
L 908.874364 408.958709 
L 909.888909 319.460153 
L 910.903455 326.172226 
L 911.918 418.714867 
L 912.932545 416.68447 
L 913.947091 421.450751 
L 914.961636 423.371821 
L 915.976182 420.205836 
L 916.990727 297.804888 
L 918.005273 322.63771 
L 919.019818 409.124094 
L 920.034364 405.7618 
L 921.048909 410.48705 
L 922.063455 422.954757 
L 923.078 419.79316 
L 924.092545 298.128614 
L 925.107091 314.581075 
L 926.121636 418.809674 
L 927.136182 417.693566 
L 928.150727 414.085216 
L 929.165273 420.537868 
L 930.179818 410.500793 
L 931.194364 318.975809 
L 932.208909 307.184127 
L 933.223455 413.714535 
L 934.238 408.55177 
L 936.267091 419.331563 
L 937.281636 419.111114 
L 938.296182 308.97707 
L 939.310727 302.360157 
L 940.325273 420.547784 
L 941.339818 413.418048 
L 942.354364 417.914333 
L 943.368909 407.099453 
L 944.383455 422.310957 
L 945.398 291.808694 
L 946.412545 318.665578 
L 947.427091 413.610445 
L 948.441636 420.605938 
L 949.456182 417.408847 
L 950.470727 398.573383 
L 951.485273 418.694437 
L 952.499818 289.062329 
L 953.514364 358.855957 
L 954.528909 408.436158 
L 955.543455 418.659737 
L 956.558 419.608987 
L 957.572545 419.206743 
L 958.587091 419.628944 
L 959.601636 316.851614 
L 960.616182 299.382345 
L 961.630727 402.470173 
L 962.645273 424.444225 
L 963.659818 413.896993 
L 964.674364 408.450513 
L 965.688909 409.517406 
L 966.703455 299.972064 
L 967.718 319.07104 
L 968.732545 417.558241 
L 969.747091 413.34438 
L 970.761636 395.003617 
L 971.776182 416.524143 
L 972.790727 418.689658 
L 973.805273 318.642542 
L 974.819818 315.595339 
L 975.834364 405.351457 
L 976.848909 419.401304 
L 977.863455 413.241628 
L 978.878 406.140873 
L 979.892545 415.378105 
L 980.907091 290.946072 
L 981.921636 349.95621 
L 982.936182 420.765133 
L 984.965273 401.272966 
L 985.979818 415.588133 
L 986.994364 422.045819 
L 988.008909 289.434496 
L 989.023455 315.09301 
L 990.038 404.950901 
L 991.052545 414.990184 
L 992.067091 410.319415 
L 993.081636 410.91536 
L 994.096182 399.139818 
L 995.110727 327.244418 
L 996.125273 298.139935 
L 997.139818 413.923451 
L 998.154364 414.130937 
L 999.168909 406.829804 
L 1001.198 415.539214 
L 1002.212545 333.959382 
L 1003.227091 384.688132 
L 1004.241636 417.545066 
L 1005.256182 423.107305 
L 1006.270727 414.608504 
L 1007.285273 416.199804 
L 1008.299818 411.592866 
L 1009.314364 319.809589 
L 1010.328909 312.153104 
L 1011.343455 415.988222 
L 1012.358 416.159058 
L 1013.372545 421.577879 
L 1014.387091 420.194831 
L 1015.401636 421.999142 
L 1016.416182 300.134998 
L 1017.430727 315.142605 
L 1018.445273 420.271133 
L 1019.459818 424.39368 
L 1020.474364 425.408035 
L 1021.488909 405.625053 
L 1022.503455 423.350351 
L 1023.518 329.320208 
L 1024.532545 312.418006 
L 1025.547091 419.158628 
L 1026.561636 419.195707 
L 1027.576182 412.878498 
L 1028.590727 422.40288 
L 1029.605273 404.827656 
L 1030.619818 364.145345 
L 1031.634364 341.1478 
L 1032.648909 413.029275 
L 1033.663455 415.139622 
L 1034.678 418.296905 
L 1035.692545 415.396519 
L 1036.707091 415.598071 
L 1037.721636 286.335281 
L 1038.736182 302.844165 
L 1039.750727 401.692748 
L 1040.765273 420.2817 
L 1041.779818 412.720644 
L 1042.794364 421.842545 
L 1043.808909 403.089018 
L 1044.823455 314.774672 
L 1045.838 319.868903 
L 1046.852545 415.95037 
L 1047.867091 413.153047 
L 1048.881636 409.316851 
L 1049.896182 417.493347 
L 1050.910727 415.981685 
L 1051.925273 330.933604 
L 1052.939818 308.93825 
L 1053.954364 400.392558 
L 1054.968909 401.793711 
L 1055.983455 420.164107 
L 1056.998 406.574685 
L 1058.012545 421.637709 
L 1059.027091 313.544362 
L 1060.041636 296.411304 
L 1061.056182 411.201971 
L 1062.070727 417.879951 
L 1063.085273 412.457248 
L 1064.099818 420.344831 
L 1065.114364 421.279998 
L 1066.128909 319.860984 
L 1067.143455 318.228484 
L 1068.158 416.381786 
L 1069.172545 420.495198 
L 1070.187091 405.651999 
L 1071.201636 420.673716 
L 1072.216182 402.626353 
L 1073.230727 321.353844 
L 1074.245273 320.28752 
L 1075.259818 410.219897 
L 1076.274364 414.367713 
L 1077.288909 407.32571 
L 1078.303455 404.716925 
L 1079.318 406.933579 
L 1080.332545 305.496891 
L 1081.347091 329.768527 
L 1082.361636 415.134332 
L 1083.376182 417.162046 
L 1084.390727 415.6008 
L 1085.405273 411.132213 
L 1086.419818 415.918959 
L 1087.434364 299.249903 
L 1088.448909 313.343757 
L 1089.463455 418.79819 
L 1090.478 416.824897 
L 1091.492545 418.722568 
L 1092.507091 417.594975 
L 1093.521636 416.7496 
L 1094.536182 308.37621 
L 1095.550727 314.472441 
L 1096.565273 409.565157 
L 1097.579818 410.628375 
L 1098.594364 404.589843 
L 1099.608909 399.937329 
L 1100.623455 405.429054 
L 1101.638 299.460029 
L 1102.652545 300.409733 
L 1103.667091 414.263579 
L 1104.681636 409.4313 
L 1105.696182 414.579195 
L 1106.710727 416.449175 
L 1107.725273 401.378572 
L 1108.739818 322.927166 
L 1109.754364 322.86503 
L 1110.768909 409.338102 
L 1111.783455 414.681985 
L 1112.798 406.327564 
L 1113.812545 401.352425 
L 1114.827091 412.283817 
L 1115.841636 288.231699 
L 1116.856182 321.294089 
L 1117.870727 414.701737 
L 1118.885273 410.867532 
L 1119.899818 419.999578 
L 1120.914364 411.33482 
L 1121.928909 417.766577 
L 1122.943455 328.445749 
L 1123.958 292.301186 
L 1124.972545 406.595386 
L 1125.987091 412.975861 
L 1127.001636 421.141701 
L 1128.016182 419.74328 
L 1129.030727 416.892024 
L 1130.045273 317.984578 
L 1131.059818 280.127748 
L 1132.074364 418.672986 
L 1133.088909 412.072548 
L 1134.103455 422.326156 
L 1135.118 422.307245 
L 1136.132545 421.235576 
L 1137.147091 318.500994 
L 1138.161636 321.205903 
L 1139.176182 414.804769 
L 1140.190727 415.249785 
L 1141.205273 422.558294 
L 1142.219818 406.236704 
L 1143.234364 418.918567 
L 1144.248909 316.761158 
L 1145.263455 326.245475 
L 1146.278 417.306989 
L 1147.292545 395.940226 
L 1148.307091 417.696787 
L 1149.321636 418.599262 
L 1150.336182 421.99538 
L 1151.350727 320.394839 
L 1152.365273 312.97765 
L 1153.379818 417.3632 
L 1154.394364 412.156456 
L 1155.408909 413.045976 
L 1156.423455 414.598492 
L 1157.438 410.989864 
L 1158.452545 318.699688 
L 1159.467091 316.326719 
L 1160.481636 417.539046 
L 1161.496182 415.189492 
L 1162.510727 414.73298 
L 1163.525273 412.015771 
L 1164.539818 417.309203 
L 1165.554364 312.369375 
L 1166.568909 320.745878 
L 1167.583455 405.718174 
L 1168.598 416.305543 
L 1169.612545 419.533034 
L 1170.627091 399.670788 
L 1171.641636 416.713455 
L 1172.656182 311.52161 
L 1173.670727 315.408343 
L 1174.685273 398.001115 
L 1175.699818 397.789214 
L 1176.714364 420.091934 
L 1178.743455 409.551443 
L 1179.758 244.707993 
L 1180.772545 320.41269 
L 1181.787091 418.584981 
L 1182.801636 408.186506 
L 1183.816182 409.786374 
L 1184.830727 405.752162 
L 1185.845273 419.823512 
L 1186.859818 320.451921 
L 1187.874364 318.564947 
L 1188.888909 398.943031 
L 1189.903455 416.963546 
L 1190.918 407.495733 
L 1191.932545 411.169433 
L 1192.947091 412.589046 
L 1193.961636 307.616372 
L 1194.976182 277.78092 
L 1195.990727 412.28838 
L 1197.005273 396.800485 
L 1198.019818 409.899683 
L 1199.034364 418.381184 
L 1200.048909 416.479477 
L 1201.063455 301.502404 
L 1202.078 315.568239 
L 1203.092545 410.160854 
L 1204.107091 410.656117 
L 1205.121636 422.032395 
L 1206.136182 417.549175 
L 1207.150727 410.112222 
L 1208.165273 302.744242 
L 1209.179818 313.015982 
L 1210.194364 411.844511 
L 1211.208909 421.802102 
L 1212.223455 418.339604 
L 1213.238 419.968353 
L 1214.252545 407.877092 
L 1215.267091 325.019669 
L 1216.281636 312.876881 
L 1217.296182 414.518595 
L 1218.310727 418.069071 
L 1219.325273 415.885639 
L 1220.339818 406.990438 
L 1221.354364 407.586507 
L 1222.368909 317.639878 
L 1223.383455 314.284487 
L 1224.398 414.121649 
L 1225.412545 420.515225 
L 1226.427091 403.286544 
L 1227.441636 413.132172 
L 1228.456182 416.999678 
L 1229.470727 306.809815 
L 1230.485273 318.1019 
L 1231.499818 417.273729 
L 1232.514364 420.035148 
L 1233.528909 417.409232 
L 1234.543455 418.814716 
L 1235.558 414.483128 
L 1236.572545 294.135532 
L 1237.587091 330.257096 
L 1238.601636 422.900581 
L 1239.616182 407.114083 
L 1241.645273 424.431204 
L 1242.659818 406.227463 
L 1243.674364 292.498744 
L 1244.688909 323.195245 
L 1245.703455 414.32382 
L 1246.718 420.619352 
L 1247.732545 414.122793 
L 1248.747091 420.259105 
L 1249.761636 419.600248 
L 1250.776182 316.865226 
L 1251.790727 326.938113 
L 1252.805273 419.021182 
L 1253.819818 418.018907 
L 1254.834364 407.407436 
L 1255.848909 422.134691 
L 1256.863455 420.619978 
L 1257.878 296.464847 
L 1258.892545 320.946321 
L 1259.907091 400.873336 
L 1260.921636 394.657947 
L 1261.936182 408.091352 
L 1262.950727 417.120365 
L 1263.965273 421.811724 
L 1264.979818 310.363092 
L 1265.994364 297.821032 
L 1267.008909 417.681017 
L 1268.023455 420.071142 
L 1269.038 413.220619 
L 1270.052545 417.193471 
L 1271.067091 417.351341 
L 1272.081636 307.715112 
L 1273.096182 305.648885 
L 1274.110727 403.679884 
L 1275.125273 416.169712 
L 1276.139818 404.559588 
L 1277.154364 420.178313 
L 1278.168909 420.960679 
L 1279.183455 301.505521 
L 1280.198 317.987324 
L 1281.212545 413.830202 
L 1282.227091 411.591425 
L 1283.241636 422.990849 
L 1284.256182 404.434978 
L 1285.270727 414.874188 
L 1286.285273 302.676888 
L 1287.299818 312.394991 
L 1288.314364 411.953289 
L 1289.328909 405.434776 
L 1290.343455 415.99598 
L 1291.358 411.645253 
L 1292.372545 412.595876 
L 1293.387091 323.706186 
L 1294.401636 309.171949 
L 1295.416182 414.022483 
L 1296.430727 418.656084 
L 1297.445273 414.136082 
L 1298.459818 412.80665 
L 1299.474364 413.301246 
L 1300.488909 322.576893 
L 1301.503455 315.247909 
L 1302.518 420.426422 
L 1303.532545 407.137992 
L 1304.547091 402.345595 
L 1305.561636 407.525026 
L 1306.576182 407.316134 
L 1307.590727 300.840382 
L 1308.605273 320.575114 
L 1309.619818 405.388911 
L 1310.634364 416.63571 
L 1311.648909 415.861414 
L 1312.663455 402.409983 
L 1313.678 417.190269 
L 1314.692545 305.215126 
L 1315.707091 321.390926 
L 1316.721636 414.382696 
L 1317.736182 417.246843 
L 1318.750727 411.329045 
L 1319.765273 415.771539 
L 1320.779818 423.912373 
L 1321.794364 294.537154 
L 1322.808909 295.022568 
L 1323.823455 407.067438 
L 1324.838 417.70092 
L 1325.852545 411.210391 
L 1326.867091 419.525773 
L 1327.881636 403.807405 
L 1328.896182 291.364163 
L 1329.910727 311.843357 
L 1330.925273 404.790303 
L 1331.939818 415.698363 
L 1332.954364 403.540467 
L 1333.968909 413.21495 
L 1334.983455 417.986302 
L 1335.998 293.541757 
L 1337.012545 316.695983 
L 1338.027091 413.964297 
L 1339.041636 407.587339 
L 1340.056182 416.287978 
L 1341.070727 420.173878 
L 1342.085273 412.620356 
L 1343.099818 340.152553 
L 1344.114364 295.54524 
L 1345.128909 395.49582 
L 1346.143455 422.402184 
L 1348.172545 407.746225 
L 1349.187091 415.554645 
L 1350.201636 298.363687 
L 1351.216182 323.197514 
L 1352.230727 416.521207 
L 1353.245273 413.462042 
L 1354.259818 421.016425 
L 1355.274364 402.293297 
L 1356.288909 413.295309 
L 1357.303455 320.698681 
L 1358.318 301.129071 
L 1359.332545 424.410871 
L 1361.361636 395.048686 
L 1363.390727 410.012168 
L 1364.405273 328.322449 
L 1365.419818 315.763358 
L 1366.434364 414.842705 
L 1367.448909 406.580833 
L 1368.463455 416.412646 
L 1369.478 414.079611 
L 1370.492545 407.355855 
L 1371.507091 303.660763 
L 1372.521636 314.726466 
L 1373.536182 420.070429 
L 1374.550727 417.373736 
L 1375.565273 415.582256 
L 1376.579818 406.317279 
L 1377.594364 413.772016 
L 1378.608909 315.918015 
L 1379.623455 303.545556 
L 1380.638 417.140385 
L 1381.652545 408.986636 
L 1382.667091 419.697388 
L 1383.681636 414.986325 
L 1384.696182 422.538496 
L 1385.710727 321.81134 
L 1386.725273 295.2058 
L 1387.739818 409.496442 
L 1388.754364 423.585705 
L 1389.768909 417.596077 
L 1390.783455 417.704379 
L 1391.798 414.911207 
L 1392.812545 319.000638 
L 1393.827091 308.105371 
L 1394.841636 421.437356 
L 1395.856182 415.830956 
L 1396.870727 406.800731 
L 1397.885273 409.991652 
L 1398.899818 410.134592 
L 1399.914364 308.046669 
L 1400.928909 322.721882 
L 1401.943455 396.181057 
L 1402.958 414.769242 
L 1404.987091 417.765177 
L 1406.001636 404.28723 
L 1407.016182 326.219736 
L 1408.030727 309.359258 
L 1409.045273 403.977043 
L 1410.059818 416.623267 
L 1411.074364 414.228411 
L 1412.088909 416.14626 
L 1413.103455 414.069895 
L 1414.118 320.337246 
L 1415.132545 305.013153 
L 1416.147091 419.402691 
L 1417.161636 409.065917 
L 1418.176182 416.015334 
L 1419.190727 409.491435 
L 1420.205273 423.425357 
L 1421.219818 344.223175 
L 1422.234364 312.330472 
L 1423.248909 411.161938 
L 1424.263455 417.295862 
L 1425.278 403.984336 
L 1426.292545 413.483083 
L 1427.307091 412.474973 
L 1428.321636 291.626754 
L 1429.336182 327.706602 
L 1430.350727 420.040066 
L 1431.365273 417.901903 
L 1432.379818 420.445963 
L 1433.394364 408.465946 
L 1434.408909 411.064111 
L 1434.408909 411.064111 
" style="fill:none;stroke:#1f77b4;stroke-linecap:square;stroke-width:1.5;"/>
   </g>
   <g id="patch_3">
    <path d="M 102.818 452.717813 
L 102.818 17.837813 
" style="fill:none;stroke:#000000;stroke-linecap:square;stroke-linejoin:miter;stroke-width:0.8;"/>
   </g>
   <g id="patch_4">
    <path d="M 1497.818 452.717813 
L 1497.818 17.837813 
" style="fill:none;stroke:#000000;stroke-linecap:square;stroke-linejoin:miter;stroke-width:0.8;"/>
   </g>
   <g id="patch_5">
    <path d="M 102.818 452.717812 
L 1497.818 452.717812 
" style="fill:none;stroke:#000000;stroke-linecap:square;stroke-linejoin:miter;stroke-width:0.8;"/>
   </g>
   <g id="patch_6">
    <path d="M 102.818 17.837812 
L 1497.818 17.837812 
" style="fill:none;stroke:#000000;stroke-linecap:square;stroke-linejoin:miter;stroke-width:0.8;"/>
   </g>
  </g>
 </g>
 <defs>
  <clipPath id="pe3b740248f">
   <rect height="434.88" width="1395" x="102.818" y="17.837812"/>
  </clipPath>
 </defs>
</svg>
