<?xml version="1.0" encoding="utf-8" standalone="no"?>
<!DOCTYPE svg PUBLIC "-//W3C//DTD SVG 1.1//EN"
  "http://www.w3.org/Graphics/SVG/1.1/DTD/svg11.dtd">
<svg height="528.986562pt" version="1.1" viewBox="0 0 1505.018 528.986562" width="1505.018pt" xmlns="http://www.w3.org/2000/svg" xmlns:xlink="http://www.w3.org/1999/xlink">
 <metadata>
  <rdf:RDF xmlns:cc="http://creativecommons.org/ns#" xmlns:dc="http://purl.org/dc/elements/1.1/" xmlns:rdf="http://www.w3.org/1999/02/22-rdf-syntax-ns#">
   <cc:Work>
    <dc:type rdf:resource="http://purl.org/dc/dcmitype/StillImage"/>
    <dc:date>2022-01-02T09:48:01.637677</dc:date>
    <dc:format>image/svg+xml</dc:format>
    <dc:creator>
     <cc:Agent>
      <dc:title>Matplotlib v3.4.1, https://matplotlib.org/</dc:title>
     </cc:Agent>
    </dc:creator>
   </cc:Work>
  </rdf:RDF>
 </metadata>
 <defs>
  <style type="text/css">*{stroke-linecap:butt;stroke-linejoin:round;}</style>
 </defs>
 <g id="figure_1">
  <g id="patch_1">
   <path d="M -0 528.986562 
L 1505.018 528.986562 
L 1505.018 0 
L -0 0 
z
" style="fill:none;"/>
  </g>
  <g id="axes_1">
   <g id="patch_2">
    <path d="M 102.818 452.717812 
L 1497.818 452.717812 
L 1497.818 17.837812 
L 102.818 17.837812 
z
" style="fill:#ffffff;"/>
   </g>
   <g id="matplotlib.axis_1">
    <g id="xtick_1">
     <g id="line2d_1">
      <defs>
       <path d="M 0 0 
L 0 3.5 
" id="m4a1d18d36b" style="stroke:#000000;stroke-width:0.8;"/>
      </defs>
      <g>
       <use style="stroke:#000000;stroke-width:0.8;" x="166.227091" xlink:href="#m4a1d18d36b" y="452.717812"/>
      </g>
     </g>
     <g id="text_1">
      <!-- 0 -->
      <g transform="translate(157.319591 480.993437)scale(0.28 -0.28)">
       <defs>
        <path d="M 2034 4250 
Q 1547 4250 1301 3770 
Q 1056 3291 1056 2328 
Q 1056 1369 1301 889 
Q 1547 409 2034 409 
Q 2525 409 2770 889 
Q 3016 1369 3016 2328 
Q 3016 3291 2770 3770 
Q 2525 4250 2034 4250 
z
M 2034 4750 
Q 2819 4750 3233 4129 
Q 3647 3509 3647 2328 
Q 3647 1150 3233 529 
Q 2819 -91 2034 -91 
Q 1250 -91 836 529 
Q 422 1150 422 2328 
Q 422 3509 836 4129 
Q 1250 4750 2034 4750 
z
" id="DejaVuSans-30" transform="scale(0.015625)"/>
       </defs>
       <use xlink:href="#DejaVuSans-30"/>
      </g>
     </g>
    </g>
    <g id="xtick_2">
     <g id="line2d_2">
      <g>
       <use style="stroke:#000000;stroke-width:0.8;" x="369.136182" xlink:href="#m4a1d18d36b" y="452.717812"/>
      </g>
     </g>
     <g id="text_2">
      <!-- 200 -->
      <g transform="translate(342.413682 480.993437)scale(0.28 -0.28)">
       <defs>
        <path d="M 1228 531 
L 3431 531 
L 3431 0 
L 469 0 
L 469 531 
Q 828 903 1448 1529 
Q 2069 2156 2228 2338 
Q 2531 2678 2651 2914 
Q 2772 3150 2772 3378 
Q 2772 3750 2511 3984 
Q 2250 4219 1831 4219 
Q 1534 4219 1204 4116 
Q 875 4013 500 3803 
L 500 4441 
Q 881 4594 1212 4672 
Q 1544 4750 1819 4750 
Q 2544 4750 2975 4387 
Q 3406 4025 3406 3419 
Q 3406 3131 3298 2873 
Q 3191 2616 2906 2266 
Q 2828 2175 2409 1742 
Q 1991 1309 1228 531 
z
" id="DejaVuSans-32" transform="scale(0.015625)"/>
       </defs>
       <use xlink:href="#DejaVuSans-32"/>
       <use x="63.623047" xlink:href="#DejaVuSans-30"/>
       <use x="127.246094" xlink:href="#DejaVuSans-30"/>
      </g>
     </g>
    </g>
    <g id="xtick_3">
     <g id="line2d_3">
      <g>
       <use style="stroke:#000000;stroke-width:0.8;" x="572.045273" xlink:href="#m4a1d18d36b" y="452.717812"/>
      </g>
     </g>
     <g id="text_3">
      <!-- 400 -->
      <g transform="translate(545.322773 480.993437)scale(0.28 -0.28)">
       <defs>
        <path d="M 2419 4116 
L 825 1625 
L 2419 1625 
L 2419 4116 
z
M 2253 4666 
L 3047 4666 
L 3047 1625 
L 3713 1625 
L 3713 1100 
L 3047 1100 
L 3047 0 
L 2419 0 
L 2419 1100 
L 313 1100 
L 313 1709 
L 2253 4666 
z
" id="DejaVuSans-34" transform="scale(0.015625)"/>
       </defs>
       <use xlink:href="#DejaVuSans-34"/>
       <use x="63.623047" xlink:href="#DejaVuSans-30"/>
       <use x="127.246094" xlink:href="#DejaVuSans-30"/>
      </g>
     </g>
    </g>
    <g id="xtick_4">
     <g id="line2d_4">
      <g>
       <use style="stroke:#000000;stroke-width:0.8;" x="774.954364" xlink:href="#m4a1d18d36b" y="452.717812"/>
      </g>
     </g>
     <g id="text_4">
      <!-- 600 -->
      <g transform="translate(748.231864 480.993437)scale(0.28 -0.28)">
       <defs>
        <path d="M 2113 2584 
Q 1688 2584 1439 2293 
Q 1191 2003 1191 1497 
Q 1191 994 1439 701 
Q 1688 409 2113 409 
Q 2538 409 2786 701 
Q 3034 994 3034 1497 
Q 3034 2003 2786 2293 
Q 2538 2584 2113 2584 
z
M 3366 4563 
L 3366 3988 
Q 3128 4100 2886 4159 
Q 2644 4219 2406 4219 
Q 1781 4219 1451 3797 
Q 1122 3375 1075 2522 
Q 1259 2794 1537 2939 
Q 1816 3084 2150 3084 
Q 2853 3084 3261 2657 
Q 3669 2231 3669 1497 
Q 3669 778 3244 343 
Q 2819 -91 2113 -91 
Q 1303 -91 875 529 
Q 447 1150 447 2328 
Q 447 3434 972 4092 
Q 1497 4750 2381 4750 
Q 2619 4750 2861 4703 
Q 3103 4656 3366 4563 
z
" id="DejaVuSans-36" transform="scale(0.015625)"/>
       </defs>
       <use xlink:href="#DejaVuSans-36"/>
       <use x="63.623047" xlink:href="#DejaVuSans-30"/>
       <use x="127.246094" xlink:href="#DejaVuSans-30"/>
      </g>
     </g>
    </g>
    <g id="xtick_5">
     <g id="line2d_5">
      <g>
       <use style="stroke:#000000;stroke-width:0.8;" x="977.863455" xlink:href="#m4a1d18d36b" y="452.717812"/>
      </g>
     </g>
     <g id="text_5">
      <!-- 800 -->
      <g transform="translate(951.140955 480.993437)scale(0.28 -0.28)">
       <defs>
        <path d="M 2034 2216 
Q 1584 2216 1326 1975 
Q 1069 1734 1069 1313 
Q 1069 891 1326 650 
Q 1584 409 2034 409 
Q 2484 409 2743 651 
Q 3003 894 3003 1313 
Q 3003 1734 2745 1975 
Q 2488 2216 2034 2216 
z
M 1403 2484 
Q 997 2584 770 2862 
Q 544 3141 544 3541 
Q 544 4100 942 4425 
Q 1341 4750 2034 4750 
Q 2731 4750 3128 4425 
Q 3525 4100 3525 3541 
Q 3525 3141 3298 2862 
Q 3072 2584 2669 2484 
Q 3125 2378 3379 2068 
Q 3634 1759 3634 1313 
Q 3634 634 3220 271 
Q 2806 -91 2034 -91 
Q 1263 -91 848 271 
Q 434 634 434 1313 
Q 434 1759 690 2068 
Q 947 2378 1403 2484 
z
M 1172 3481 
Q 1172 3119 1398 2916 
Q 1625 2713 2034 2713 
Q 2441 2713 2670 2916 
Q 2900 3119 2900 3481 
Q 2900 3844 2670 4047 
Q 2441 4250 2034 4250 
Q 1625 4250 1398 4047 
Q 1172 3844 1172 3481 
z
" id="DejaVuSans-38" transform="scale(0.015625)"/>
       </defs>
       <use xlink:href="#DejaVuSans-38"/>
       <use x="63.623047" xlink:href="#DejaVuSans-30"/>
       <use x="127.246094" xlink:href="#DejaVuSans-30"/>
      </g>
     </g>
    </g>
    <g id="xtick_6">
     <g id="line2d_6">
      <g>
       <use style="stroke:#000000;stroke-width:0.8;" x="1180.772545" xlink:href="#m4a1d18d36b" y="452.717812"/>
      </g>
     </g>
     <g id="text_6">
      <!-- 1000 -->
      <g transform="translate(1145.142545 480.993437)scale(0.28 -0.28)">
       <defs>
        <path d="M 794 531 
L 1825 531 
L 1825 4091 
L 703 3866 
L 703 4441 
L 1819 4666 
L 2450 4666 
L 2450 531 
L 3481 531 
L 3481 0 
L 794 0 
L 794 531 
z
" id="DejaVuSans-31" transform="scale(0.015625)"/>
       </defs>
       <use xlink:href="#DejaVuSans-31"/>
       <use x="63.623047" xlink:href="#DejaVuSans-30"/>
       <use x="127.246094" xlink:href="#DejaVuSans-30"/>
       <use x="190.869141" xlink:href="#DejaVuSans-30"/>
      </g>
     </g>
    </g>
    <g id="xtick_7">
     <g id="line2d_7">
      <g>
       <use style="stroke:#000000;stroke-width:0.8;" x="1383.681636" xlink:href="#m4a1d18d36b" y="452.717812"/>
      </g>
     </g>
     <g id="text_7">
      <!-- 1200 -->
      <g transform="translate(1348.051636 480.993437)scale(0.28 -0.28)">
       <use xlink:href="#DejaVuSans-31"/>
       <use x="63.623047" xlink:href="#DejaVuSans-32"/>
       <use x="127.246094" xlink:href="#DejaVuSans-30"/>
       <use x="190.869141" xlink:href="#DejaVuSans-30"/>
      </g>
     </g>
    </g>
    <g id="text_8">
     <!-- Batch order -->
     <g transform="translate(706.573 515.131562)scale(0.32 -0.32)">
      <defs>
       <path d="M 1259 2228 
L 1259 519 
L 2272 519 
Q 2781 519 3026 730 
Q 3272 941 3272 1375 
Q 3272 1813 3026 2020 
Q 2781 2228 2272 2228 
L 1259 2228 
z
M 1259 4147 
L 1259 2741 
L 2194 2741 
Q 2656 2741 2882 2914 
Q 3109 3088 3109 3444 
Q 3109 3797 2882 3972 
Q 2656 4147 2194 4147 
L 1259 4147 
z
M 628 4666 
L 2241 4666 
Q 2963 4666 3353 4366 
Q 3744 4066 3744 3513 
Q 3744 3084 3544 2831 
Q 3344 2578 2956 2516 
Q 3422 2416 3680 2098 
Q 3938 1781 3938 1306 
Q 3938 681 3513 340 
Q 3088 0 2303 0 
L 628 0 
L 628 4666 
z
" id="DejaVuSans-42" transform="scale(0.015625)"/>
       <path d="M 2194 1759 
Q 1497 1759 1228 1600 
Q 959 1441 959 1056 
Q 959 750 1161 570 
Q 1363 391 1709 391 
Q 2188 391 2477 730 
Q 2766 1069 2766 1631 
L 2766 1759 
L 2194 1759 
z
M 3341 1997 
L 3341 0 
L 2766 0 
L 2766 531 
Q 2569 213 2275 61 
Q 1981 -91 1556 -91 
Q 1019 -91 701 211 
Q 384 513 384 1019 
Q 384 1609 779 1909 
Q 1175 2209 1959 2209 
L 2766 2209 
L 2766 2266 
Q 2766 2663 2505 2880 
Q 2244 3097 1772 3097 
Q 1472 3097 1187 3025 
Q 903 2953 641 2809 
L 641 3341 
Q 956 3463 1253 3523 
Q 1550 3584 1831 3584 
Q 2591 3584 2966 3190 
Q 3341 2797 3341 1997 
z
" id="DejaVuSans-61" transform="scale(0.015625)"/>
       <path d="M 1172 4494 
L 1172 3500 
L 2356 3500 
L 2356 3053 
L 1172 3053 
L 1172 1153 
Q 1172 725 1289 603 
Q 1406 481 1766 481 
L 2356 481 
L 2356 0 
L 1766 0 
Q 1100 0 847 248 
Q 594 497 594 1153 
L 594 3053 
L 172 3053 
L 172 3500 
L 594 3500 
L 594 4494 
L 1172 4494 
z
" id="DejaVuSans-74" transform="scale(0.015625)"/>
       <path d="M 3122 3366 
L 3122 2828 
Q 2878 2963 2633 3030 
Q 2388 3097 2138 3097 
Q 1578 3097 1268 2742 
Q 959 2388 959 1747 
Q 959 1106 1268 751 
Q 1578 397 2138 397 
Q 2388 397 2633 464 
Q 2878 531 3122 666 
L 3122 134 
Q 2881 22 2623 -34 
Q 2366 -91 2075 -91 
Q 1284 -91 818 406 
Q 353 903 353 1747 
Q 353 2603 823 3093 
Q 1294 3584 2113 3584 
Q 2378 3584 2631 3529 
Q 2884 3475 3122 3366 
z
" id="DejaVuSans-63" transform="scale(0.015625)"/>
       <path d="M 3513 2113 
L 3513 0 
L 2938 0 
L 2938 2094 
Q 2938 2591 2744 2837 
Q 2550 3084 2163 3084 
Q 1697 3084 1428 2787 
Q 1159 2491 1159 1978 
L 1159 0 
L 581 0 
L 581 4863 
L 1159 4863 
L 1159 2956 
Q 1366 3272 1645 3428 
Q 1925 3584 2291 3584 
Q 2894 3584 3203 3211 
Q 3513 2838 3513 2113 
z
" id="DejaVuSans-68" transform="scale(0.015625)"/>
       <path id="DejaVuSans-20" transform="scale(0.015625)"/>
       <path d="M 1959 3097 
Q 1497 3097 1228 2736 
Q 959 2375 959 1747 
Q 959 1119 1226 758 
Q 1494 397 1959 397 
Q 2419 397 2687 759 
Q 2956 1122 2956 1747 
Q 2956 2369 2687 2733 
Q 2419 3097 1959 3097 
z
M 1959 3584 
Q 2709 3584 3137 3096 
Q 3566 2609 3566 1747 
Q 3566 888 3137 398 
Q 2709 -91 1959 -91 
Q 1206 -91 779 398 
Q 353 888 353 1747 
Q 353 2609 779 3096 
Q 1206 3584 1959 3584 
z
" id="DejaVuSans-6f" transform="scale(0.015625)"/>
       <path d="M 2631 2963 
Q 2534 3019 2420 3045 
Q 2306 3072 2169 3072 
Q 1681 3072 1420 2755 
Q 1159 2438 1159 1844 
L 1159 0 
L 581 0 
L 581 3500 
L 1159 3500 
L 1159 2956 
Q 1341 3275 1631 3429 
Q 1922 3584 2338 3584 
Q 2397 3584 2469 3576 
Q 2541 3569 2628 3553 
L 2631 2963 
z
" id="DejaVuSans-72" transform="scale(0.015625)"/>
       <path d="M 2906 2969 
L 2906 4863 
L 3481 4863 
L 3481 0 
L 2906 0 
L 2906 525 
Q 2725 213 2448 61 
Q 2172 -91 1784 -91 
Q 1150 -91 751 415 
Q 353 922 353 1747 
Q 353 2572 751 3078 
Q 1150 3584 1784 3584 
Q 2172 3584 2448 3432 
Q 2725 3281 2906 2969 
z
M 947 1747 
Q 947 1113 1208 752 
Q 1469 391 1925 391 
Q 2381 391 2643 752 
Q 2906 1113 2906 1747 
Q 2906 2381 2643 2742 
Q 2381 3103 1925 3103 
Q 1469 3103 1208 2742 
Q 947 2381 947 1747 
z
" id="DejaVuSans-64" transform="scale(0.015625)"/>
       <path d="M 3597 1894 
L 3597 1613 
L 953 1613 
Q 991 1019 1311 708 
Q 1631 397 2203 397 
Q 2534 397 2845 478 
Q 3156 559 3463 722 
L 3463 178 
Q 3153 47 2828 -22 
Q 2503 -91 2169 -91 
Q 1331 -91 842 396 
Q 353 884 353 1716 
Q 353 2575 817 3079 
Q 1281 3584 2069 3584 
Q 2775 3584 3186 3129 
Q 3597 2675 3597 1894 
z
M 3022 2063 
Q 3016 2534 2758 2815 
Q 2500 3097 2075 3097 
Q 1594 3097 1305 2825 
Q 1016 2553 972 2059 
L 3022 2063 
z
" id="DejaVuSans-65" transform="scale(0.015625)"/>
      </defs>
      <use xlink:href="#DejaVuSans-42"/>
      <use x="68.603516" xlink:href="#DejaVuSans-61"/>
      <use x="129.882812" xlink:href="#DejaVuSans-74"/>
      <use x="169.091797" xlink:href="#DejaVuSans-63"/>
      <use x="224.072266" xlink:href="#DejaVuSans-68"/>
      <use x="287.451172" xlink:href="#DejaVuSans-20"/>
      <use x="319.238281" xlink:href="#DejaVuSans-6f"/>
      <use x="380.419922" xlink:href="#DejaVuSans-72"/>
      <use x="419.783203" xlink:href="#DejaVuSans-64"/>
      <use x="483.259766" xlink:href="#DejaVuSans-65"/>
      <use x="544.783203" xlink:href="#DejaVuSans-72"/>
     </g>
    </g>
   </g>
   <g id="matplotlib.axis_2">
    <g id="ytick_1">
     <g id="line2d_8">
      <defs>
       <path d="M 0 0 
L -3.5 0 
" id="m265a959ec4" style="stroke:#000000;stroke-width:0.8;"/>
      </defs>
      <g>
       <use style="stroke:#000000;stroke-width:0.8;" x="102.818" xlink:href="#m265a959ec4" y="431.24468"/>
      </g>
     </g>
     <g id="text_9">
      <!-- 2 -->
      <g transform="translate(78.003 441.882492)scale(0.28 -0.28)">
       <use xlink:href="#DejaVuSans-32"/>
      </g>
     </g>
    </g>
    <g id="ytick_2">
     <g id="line2d_9">
      <g>
       <use style="stroke:#000000;stroke-width:0.8;" x="102.818" xlink:href="#m265a959ec4" y="362.343535"/>
      </g>
     </g>
     <g id="text_10">
      <!-- 3 -->
      <g transform="translate(78.003 372.981348)scale(0.28 -0.28)">
       <defs>
        <path d="M 2597 2516 
Q 3050 2419 3304 2112 
Q 3559 1806 3559 1356 
Q 3559 666 3084 287 
Q 2609 -91 1734 -91 
Q 1441 -91 1130 -33 
Q 819 25 488 141 
L 488 750 
Q 750 597 1062 519 
Q 1375 441 1716 441 
Q 2309 441 2620 675 
Q 2931 909 2931 1356 
Q 2931 1769 2642 2001 
Q 2353 2234 1838 2234 
L 1294 2234 
L 1294 2753 
L 1863 2753 
Q 2328 2753 2575 2939 
Q 2822 3125 2822 3475 
Q 2822 3834 2567 4026 
Q 2313 4219 1838 4219 
Q 1578 4219 1281 4162 
Q 984 4106 628 3988 
L 628 4550 
Q 988 4650 1302 4700 
Q 1616 4750 1894 4750 
Q 2613 4750 3031 4423 
Q 3450 4097 3450 3541 
Q 3450 3153 3228 2886 
Q 3006 2619 2597 2516 
z
" id="DejaVuSans-33" transform="scale(0.015625)"/>
       </defs>
       <use xlink:href="#DejaVuSans-33"/>
      </g>
     </g>
    </g>
    <g id="ytick_3">
     <g id="line2d_10">
      <g>
       <use style="stroke:#000000;stroke-width:0.8;" x="102.818" xlink:href="#m265a959ec4" y="293.442391"/>
      </g>
     </g>
     <g id="text_11">
      <!-- 4 -->
      <g transform="translate(78.003 304.080203)scale(0.28 -0.28)">
       <use xlink:href="#DejaVuSans-34"/>
      </g>
     </g>
    </g>
    <g id="ytick_4">
     <g id="line2d_11">
      <g>
       <use style="stroke:#000000;stroke-width:0.8;" x="102.818" xlink:href="#m265a959ec4" y="224.541246"/>
      </g>
     </g>
     <g id="text_12">
      <!-- 5 -->
      <g transform="translate(78.003 235.179059)scale(0.28 -0.28)">
       <defs>
        <path d="M 691 4666 
L 3169 4666 
L 3169 4134 
L 1269 4134 
L 1269 2991 
Q 1406 3038 1543 3061 
Q 1681 3084 1819 3084 
Q 2600 3084 3056 2656 
Q 3513 2228 3513 1497 
Q 3513 744 3044 326 
Q 2575 -91 1722 -91 
Q 1428 -91 1123 -41 
Q 819 9 494 109 
L 494 744 
Q 775 591 1075 516 
Q 1375 441 1709 441 
Q 2250 441 2565 725 
Q 2881 1009 2881 1497 
Q 2881 1984 2565 2268 
Q 2250 2553 1709 2553 
Q 1456 2553 1204 2497 
Q 953 2441 691 2322 
L 691 4666 
z
" id="DejaVuSans-35" transform="scale(0.015625)"/>
       </defs>
       <use xlink:href="#DejaVuSans-35"/>
      </g>
     </g>
    </g>
    <g id="ytick_5">
     <g id="line2d_12">
      <g>
       <use style="stroke:#000000;stroke-width:0.8;" x="102.818" xlink:href="#m265a959ec4" y="155.640102"/>
      </g>
     </g>
     <g id="text_13">
      <!-- 6 -->
      <g transform="translate(78.003 166.277914)scale(0.28 -0.28)">
       <use xlink:href="#DejaVuSans-36"/>
      </g>
     </g>
    </g>
    <g id="ytick_6">
     <g id="line2d_13">
      <g>
       <use style="stroke:#000000;stroke-width:0.8;" x="102.818" xlink:href="#m265a959ec4" y="86.738957"/>
      </g>
     </g>
     <g id="text_14">
      <!-- 7 -->
      <g transform="translate(78.003 97.37677)scale(0.28 -0.28)">
       <defs>
        <path d="M 525 4666 
L 3525 4666 
L 3525 4397 
L 1831 0 
L 1172 0 
L 2766 4134 
L 525 4134 
L 525 4666 
z
" id="DejaVuSans-37" transform="scale(0.015625)"/>
       </defs>
       <use xlink:href="#DejaVuSans-37"/>
      </g>
     </g>
    </g>
    <g id="ytick_7">
     <g id="line2d_14">
      <g>
       <use style="stroke:#000000;stroke-width:0.8;" x="102.818" xlink:href="#m265a959ec4" y="17.837812"/>
      </g>
     </g>
     <g id="text_15">
      <!-- 8 -->
      <g transform="translate(78.003 28.475625)scale(0.28 -0.28)">
       <use xlink:href="#DejaVuSans-38"/>
      </g>
     </g>
    </g>
    <g id="text_16">
     <!-- Batch processing time  -->
     <g transform="translate(31.515 418.892812)rotate(-90)scale(0.32 -0.32)">
      <defs>
       <path d="M 1159 525 
L 1159 -1331 
L 581 -1331 
L 581 3500 
L 1159 3500 
L 1159 2969 
Q 1341 3281 1617 3432 
Q 1894 3584 2278 3584 
Q 2916 3584 3314 3078 
Q 3713 2572 3713 1747 
Q 3713 922 3314 415 
Q 2916 -91 2278 -91 
Q 1894 -91 1617 61 
Q 1341 213 1159 525 
z
M 3116 1747 
Q 3116 2381 2855 2742 
Q 2594 3103 2138 3103 
Q 1681 3103 1420 2742 
Q 1159 2381 1159 1747 
Q 1159 1113 1420 752 
Q 1681 391 2138 391 
Q 2594 391 2855 752 
Q 3116 1113 3116 1747 
z
" id="DejaVuSans-70" transform="scale(0.015625)"/>
       <path d="M 2834 3397 
L 2834 2853 
Q 2591 2978 2328 3040 
Q 2066 3103 1784 3103 
Q 1356 3103 1142 2972 
Q 928 2841 928 2578 
Q 928 2378 1081 2264 
Q 1234 2150 1697 2047 
L 1894 2003 
Q 2506 1872 2764 1633 
Q 3022 1394 3022 966 
Q 3022 478 2636 193 
Q 2250 -91 1575 -91 
Q 1294 -91 989 -36 
Q 684 19 347 128 
L 347 722 
Q 666 556 975 473 
Q 1284 391 1588 391 
Q 1994 391 2212 530 
Q 2431 669 2431 922 
Q 2431 1156 2273 1281 
Q 2116 1406 1581 1522 
L 1381 1569 
Q 847 1681 609 1914 
Q 372 2147 372 2553 
Q 372 3047 722 3315 
Q 1072 3584 1716 3584 
Q 2034 3584 2315 3537 
Q 2597 3491 2834 3397 
z
" id="DejaVuSans-73" transform="scale(0.015625)"/>
       <path d="M 603 3500 
L 1178 3500 
L 1178 0 
L 603 0 
L 603 3500 
z
M 603 4863 
L 1178 4863 
L 1178 4134 
L 603 4134 
L 603 4863 
z
" id="DejaVuSans-69" transform="scale(0.015625)"/>
       <path d="M 3513 2113 
L 3513 0 
L 2938 0 
L 2938 2094 
Q 2938 2591 2744 2837 
Q 2550 3084 2163 3084 
Q 1697 3084 1428 2787 
Q 1159 2491 1159 1978 
L 1159 0 
L 581 0 
L 581 3500 
L 1159 3500 
L 1159 2956 
Q 1366 3272 1645 3428 
Q 1925 3584 2291 3584 
Q 2894 3584 3203 3211 
Q 3513 2838 3513 2113 
z
" id="DejaVuSans-6e" transform="scale(0.015625)"/>
       <path d="M 2906 1791 
Q 2906 2416 2648 2759 
Q 2391 3103 1925 3103 
Q 1463 3103 1205 2759 
Q 947 2416 947 1791 
Q 947 1169 1205 825 
Q 1463 481 1925 481 
Q 2391 481 2648 825 
Q 2906 1169 2906 1791 
z
M 3481 434 
Q 3481 -459 3084 -895 
Q 2688 -1331 1869 -1331 
Q 1566 -1331 1297 -1286 
Q 1028 -1241 775 -1147 
L 775 -588 
Q 1028 -725 1275 -790 
Q 1522 -856 1778 -856 
Q 2344 -856 2625 -561 
Q 2906 -266 2906 331 
L 2906 616 
Q 2728 306 2450 153 
Q 2172 0 1784 0 
Q 1141 0 747 490 
Q 353 981 353 1791 
Q 353 2603 747 3093 
Q 1141 3584 1784 3584 
Q 2172 3584 2450 3431 
Q 2728 3278 2906 2969 
L 2906 3500 
L 3481 3500 
L 3481 434 
z
" id="DejaVuSans-67" transform="scale(0.015625)"/>
       <path d="M 3328 2828 
Q 3544 3216 3844 3400 
Q 4144 3584 4550 3584 
Q 5097 3584 5394 3201 
Q 5691 2819 5691 2113 
L 5691 0 
L 5113 0 
L 5113 2094 
Q 5113 2597 4934 2840 
Q 4756 3084 4391 3084 
Q 3944 3084 3684 2787 
Q 3425 2491 3425 1978 
L 3425 0 
L 2847 0 
L 2847 2094 
Q 2847 2600 2669 2842 
Q 2491 3084 2119 3084 
Q 1678 3084 1418 2786 
Q 1159 2488 1159 1978 
L 1159 0 
L 581 0 
L 581 3500 
L 1159 3500 
L 1159 2956 
Q 1356 3278 1631 3431 
Q 1906 3584 2284 3584 
Q 2666 3584 2933 3390 
Q 3200 3197 3328 2828 
z
" id="DejaVuSans-6d" transform="scale(0.015625)"/>
      </defs>
      <use xlink:href="#DejaVuSans-42"/>
      <use x="68.603516" xlink:href="#DejaVuSans-61"/>
      <use x="129.882812" xlink:href="#DejaVuSans-74"/>
      <use x="169.091797" xlink:href="#DejaVuSans-63"/>
      <use x="224.072266" xlink:href="#DejaVuSans-68"/>
      <use x="287.451172" xlink:href="#DejaVuSans-20"/>
      <use x="319.238281" xlink:href="#DejaVuSans-70"/>
      <use x="382.714844" xlink:href="#DejaVuSans-72"/>
      <use x="421.578125" xlink:href="#DejaVuSans-6f"/>
      <use x="482.759766" xlink:href="#DejaVuSans-63"/>
      <use x="537.740234" xlink:href="#DejaVuSans-65"/>
      <use x="599.263672" xlink:href="#DejaVuSans-73"/>
      <use x="651.363281" xlink:href="#DejaVuSans-73"/>
      <use x="703.462891" xlink:href="#DejaVuSans-69"/>
      <use x="731.246094" xlink:href="#DejaVuSans-6e"/>
      <use x="794.625" xlink:href="#DejaVuSans-67"/>
      <use x="858.101562" xlink:href="#DejaVuSans-20"/>
      <use x="889.888672" xlink:href="#DejaVuSans-74"/>
      <use x="929.097656" xlink:href="#DejaVuSans-69"/>
      <use x="956.880859" xlink:href="#DejaVuSans-6d"/>
      <use x="1054.292969" xlink:href="#DejaVuSans-65"/>
      <use x="1115.816406" xlink:href="#DejaVuSans-20"/>
     </g>
     <!-- (sec) -->
     <g transform="translate(67.348 274.740312)rotate(-90)scale(0.32 -0.32)">
      <defs>
       <path d="M 1984 4856 
Q 1566 4138 1362 3434 
Q 1159 2731 1159 2009 
Q 1159 1288 1364 580 
Q 1569 -128 1984 -844 
L 1484 -844 
Q 1016 -109 783 600 
Q 550 1309 550 2009 
Q 550 2706 781 3412 
Q 1013 4119 1484 4856 
L 1984 4856 
z
" id="DejaVuSans-28" transform="scale(0.015625)"/>
       <path d="M 513 4856 
L 1013 4856 
Q 1481 4119 1714 3412 
Q 1947 2706 1947 2009 
Q 1947 1309 1714 600 
Q 1481 -109 1013 -844 
L 513 -844 
Q 928 -128 1133 580 
Q 1338 1288 1338 2009 
Q 1338 2731 1133 3434 
Q 928 4138 513 4856 
z
" id="DejaVuSans-29" transform="scale(0.015625)"/>
      </defs>
      <use xlink:href="#DejaVuSans-28"/>
      <use x="39.013672" xlink:href="#DejaVuSans-73"/>
      <use x="91.113281" xlink:href="#DejaVuSans-65"/>
      <use x="152.636719" xlink:href="#DejaVuSans-63"/>
      <use x="207.617188" xlink:href="#DejaVuSans-29"/>
     </g>
    </g>
   </g>
   <g id="line2d_15">
    <path clip-path="url(#p5a65ea408a)" d="M 166.227091 404.058077 
L 167.241636 388.973776 
L 168.256182 403.235666 
L 169.270727 387.152347 
L 170.285273 394.708622 
L 171.299818 213.060479 
L 172.314364 202.482415 
L 173.328909 376.213756 
L 174.343455 391.527023 
L 175.358 387.527501 
L 176.372545 394.533381 
L 177.387091 391.761768 
L 178.401636 230.583263 
L 179.416182 195.920295 
L 180.430727 406.918678 
L 181.445273 396.968585 
L 182.459818 411.799344 
L 183.474364 407.39529 
L 184.488909 396.010152 
L 185.503455 245.577329 
L 186.518 259.801137 
L 187.532545 408.023007 
L 188.547091 386.680872 
L 189.561636 411.088533 
L 190.576182 372.734757 
L 191.590727 420.943845 
L 192.605273 279.100411 
L 193.619818 232.436047 
L 194.634364 403.731744 
L 195.648909 406.807604 
L 196.663455 411.818856 
L 197.678 408.51989 
L 198.692545 395.936669 
L 199.707091 269.1636 
L 200.721636 245.571456 
L 201.736182 417.688991 
L 202.750727 401.801237 
L 203.765273 373.128129 
L 204.779818 395.613996 
L 205.794364 383.720902 
L 206.808909 191.665764 
L 207.823455 269.755965 
L 208.838 401.083201 
L 209.852545 410.62164 
L 210.867091 395.870187 
L 211.881636 421.551417 
L 212.896182 387.850932 
L 213.910727 261.903233 
L 214.925273 273.001107 
L 215.939818 402.066478 
L 216.954364 408.987068 
L 217.968909 344.718777 
L 218.983455 408.447593 
L 219.998 391.949549 
L 221.012545 197.177803 
L 222.027091 261.198176 
L 223.041636 400.009652 
L 224.056182 396.68137 
L 225.070727 407.550184 
L 226.085273 392.238177 
L 227.099818 417.769739 
L 228.114364 231.939452 
L 229.128909 237.763147 
L 230.143455 402.809825 
L 231.158 428.828777 
L 232.172545 416.422657 
L 233.187091 420.016411 
L 234.201636 406.615911 
L 235.216182 235.598194 
L 236.230727 279.492882 
L 237.245273 382.305181 
L 238.259818 415.411195 
L 239.274364 406.905028 
L 240.288909 381.912779 
L 241.303455 395.697353 
L 242.318 253.786972 
L 243.332545 261.744391 
L 244.347091 411.391829 
L 245.361636 426.589547 
L 246.376182 426.465035 
L 247.390727 420.1782 
L 248.405273 379.638973 
L 249.419818 252.385708 
L 250.434364 253.412492 
L 251.448909 397.748966 
L 252.463455 393.489098 
L 253.478 391.447119 
L 254.492545 386.999491 
L 255.507091 424.513082 
L 256.521636 260.653623 
L 257.536182 229.66407 
L 258.550727 419.54446 
L 259.565273 412.343484 
L 260.579818 417.971186 
L 261.594364 392.360079 
L 262.608909 407.12527 
L 263.623455 254.50753 
L 264.638 280.933598 
L 265.652545 421.621655 
L 266.667091 412.849162 
L 267.681636 425.707707 
L 268.696182 416.748778 
L 269.710727 426.916109 
L 270.725273 242.481039 
L 271.739818 263.612113 
L 272.754364 414.620472 
L 273.768909 412.355136 
L 274.783455 392.031737 
L 275.798 411.673049 
L 276.812545 418.390935 
L 277.827091 273.302756 
L 278.841636 237.177019 
L 279.856182 405.921194 
L 280.870727 404.54294 
L 281.885273 414.738383 
L 282.899818 412.806231 
L 283.914364 409.421784 
L 284.928909 224.251185 
L 285.943455 259.949133 
L 286.958 408.740383 
L 287.972545 397.47148 
L 288.987091 341.433285 
L 290.001636 406.404123 
L 291.016182 400.504016 
L 292.030727 255.253986 
L 293.045273 211.112378 
L 294.059818 412.30941 
L 295.074364 424.659827 
L 296.088909 406.570852 
L 297.103455 408.053069 
L 298.118 404.399395 
L 299.132545 245.922352 
L 300.147091 249.190237 
L 301.161636 419.424157 
L 302.176182 425.65685 
L 303.190727 423.617213 
L 304.205273 423.210156 
L 305.219818 416.329031 
L 306.234364 277.058644 
L 307.248909 288.520866 
L 308.263455 424.024899 
L 309.278 420.246244 
L 310.292545 401.83547 
L 311.307091 417.686878 
L 312.321636 401.213318 
L 313.336182 240.921046 
L 314.350727 267.749727 
L 315.365273 376.854371 
L 316.379818 425.485928 
L 317.394364 424.144064 
L 318.408909 412.378623 
L 319.423455 404.212041 
L 320.438 205.353383 
L 321.452545 225.305123 
L 322.467091 410.233227 
L 323.481636 428.521545 
L 324.496182 404.724098 
L 325.510727 406.654815 
L 326.525273 423.687989 
L 327.539818 277.336549 
L 328.554364 274.067638 
L 329.568909 416.483516 
L 330.583455 402.626742 
L 331.598 404.19881 
L 333.627091 426.063137 
L 334.641636 290.396796 
L 335.656182 264.46763 
L 336.670727 391.831967 
L 337.685273 416.50755 
L 338.699818 383.010726 
L 339.714364 407.873616 
L 340.728909 426.496274 
L 341.743455 281.024398 
L 342.758 223.162062 
L 343.772545 408.080825 
L 344.787091 406.834555 
L 345.801636 393.802393 
L 346.816182 413.935684 
L 347.830727 409.329861 
L 348.845273 253.024489 
L 349.859818 259.485454 
L 350.874364 424.700227 
L 351.888909 411.485002 
L 352.903455 406.651747 
L 353.918 356.767017 
L 354.932545 392.105168 
L 355.947091 228.359774 
L 356.961636 252.920822 
L 357.976182 409.123168 
L 358.990727 411.386704 
L 360.005273 395.847721 
L 361.019818 410.385077 
L 362.034364 402.87923 
L 363.048909 250.833197 
L 364.063455 254.171438 
L 365.078 358.303079 
L 366.092545 388.341082 
L 367.107091 379.830084 
L 369.136182 416.242361 
L 370.150727 198.126908 
L 371.165273 251.133394 
L 372.179818 420.899737 
L 373.194364 421.437245 
L 374.208909 401.112192 
L 375.223455 420.604196 
L 376.238 407.277317 
L 377.252545 233.025349 
L 378.267091 228.926195 
L 379.281636 413.129449 
L 380.296182 404.245713 
L 381.310727 417.654107 
L 382.325273 374.3386 
L 383.339818 416.579997 
L 384.354364 257.556574 
L 385.368909 266.43368 
L 386.383455 398.616266 
L 387.398 415.08289 
L 388.412545 409.558833 
L 389.427091 414.999533 
L 390.441636 400.059077 
L 391.456182 236.138579 
L 392.470727 268.075475 
L 393.485273 419.252117 
L 394.499818 418.781584 
L 395.514364 401.086832 
L 396.528909 421.930034 
L 397.543455 414.934659 
L 398.558 273.417111 
L 399.572545 232.021805 
L 400.587091 402.627476 
L 401.601636 419.359614 
L 402.616182 400.410193 
L 403.630727 424.945995 
L 404.645273 418.973045 
L 405.659818 230.702947 
L 406.674364 272.450398 
L 407.688909 410.847624 
L 408.703455 386.742335 
L 409.718 414.266269 
L 410.732545 423.139953 
L 411.747091 411.682122 
L 412.761636 245.691517 
L 413.776182 241.460771 
L 414.790727 426.20669 
L 415.805273 421.507976 
L 416.819818 412.626441 
L 417.834364 371.745184 
L 418.848909 402.464844 
L 419.863455 289.802319 
L 420.878 236.586482 
L 421.892545 390.402685 
L 422.907091 355.184807 
L 423.921636 412.480129 
L 424.936182 409.069609 
L 425.950727 419.031096 
L 426.965273 242.143268 
L 427.979818 270.337461 
L 428.994364 415.550258 
L 430.008909 402.124984 
L 431.023455 396.800984 
L 432.038 407.940197 
L 433.052545 407.94709 
L 434.067091 273.54785 
L 435.081636 225.479606 
L 436.096182 408.012512 
L 437.110727 398.889068 
L 438.125273 420.241151 
L 439.139818 395.93497 
L 440.154364 408.735892 
L 441.168909 244.994183 
L 442.183455 257.641948 
L 443.198 404.676639 
L 444.212545 417.329262 
L 445.227091 402.605621 
L 446.241636 420.159486 
L 447.256182 410.706627 
L 448.270727 261.523931 
L 449.285273 198.768016 
L 450.299818 401.993987 
L 451.314364 418.693572 
L 452.328909 412.564331 
L 453.343455 407.116911 
L 454.358 403.714301 
L 455.372545 256.431693 
L 456.387091 187.360435 
L 457.401636 406.11532 
L 458.416182 418.385913 
L 459.430727 400.747827 
L 460.445273 388.152174 
L 461.459818 410.397951 
L 462.474364 235.116688 
L 463.488909 261.646603 
L 464.503455 405.130105 
L 465.518 385.862291 
L 466.532545 412.727144 
L 467.547091 404.770446 
L 468.561636 404.569442 
L 469.576182 224.449196 
L 470.590727 255.795815 
L 471.605273 416.691399 
L 472.619818 382.958024 
L 473.634364 422.019078 
L 474.648909 356.989049 
L 475.663455 404.475056 
L 476.678 236.721653 
L 477.692545 200.947792 
L 478.707091 403.998292 
L 479.721636 415.285601 
L 480.736182 394.706514 
L 481.750727 402.080528 
L 482.765273 398.506275 
L 483.779818 178.621905 
L 484.794364 228.926749 
L 485.808909 404.59498 
L 486.823455 379.916724 
L 487.838 422.285914 
L 488.852545 423.667026 
L 489.867091 421.170262 
L 490.881636 285.939106 
L 491.896182 224.331631 
L 492.910727 414.00545 
L 493.925273 396.014304 
L 494.939818 405.613337 
L 495.954364 399.071061 
L 496.968909 402.152345 
L 497.983455 275.866308 
L 498.998 260.401118 
L 500.012545 370.434406 
L 501.027091 411.657446 
L 502.041636 413.119071 
L 503.056182 400.753081 
L 504.070727 411.665752 
L 505.085273 239.988744 
L 506.099818 237.928204 
L 507.114364 383.583086 
L 508.128909 416.44331 
L 509.143455 403.578772 
L 510.158 418.899276 
L 511.172545 402.558871 
L 512.187091 239.723719 
L 513.201636 246.507523 
L 514.216182 403.175513 
L 515.230727 393.64286 
L 516.245273 408.591043 
L 517.259818 411.230259 
L 518.274364 408.322758 
L 519.288909 267.509153 
L 520.303455 245.012366 
L 521.318 374.072307 
L 522.332545 390.835645 
L 523.347091 424.628456 
L 524.361636 390.817073 
L 525.376182 421.943582 
L 526.390727 249.881953 
L 527.405273 223.723626 
L 528.419818 422.084326 
L 529.434364 418.344897 
L 530.448909 380.761782 
L 531.463455 395.875254 
L 532.478 425.11877 
L 533.492545 250.000214 
L 534.507091 272.924484 
L 535.521636 420.46234 
L 536.536182 389.081723 
L 537.550727 429.169898 
L 538.565273 421.880674 
L 539.579818 415.418215 
L 540.594364 275.111839 
L 541.608909 274.665821 
L 542.623455 409.221591 
L 543.638 407.708928 
L 544.652545 360.018672 
L 545.667091 419.124574 
L 546.681636 421.140918 
L 547.696182 245.07256 
L 548.710727 278.812775 
L 549.725273 391.702373 
L 550.739818 408.96367 
L 551.754364 403.949847 
L 552.768909 389.529111 
L 553.783455 411.294913 
L 554.798 225.619473 
L 555.812545 246.684579 
L 556.827091 408.755787 
L 557.841636 423.29209 
L 558.856182 425.597133 
L 559.870727 420.086691 
L 560.885273 381.126601 
L 561.899818 284.458855 
L 562.914364 303.447675 
L 563.928909 415.782926 
L 564.943455 404.846288 
L 565.958 410.884898 
L 566.972545 413.13689 
L 567.987091 418.516978 
L 569.001636 280.218531 
L 570.016182 319.225288 
L 571.030727 410.01504 
L 572.045273 413.812069 
L 573.059818 394.987637 
L 574.074364 404.891052 
L 575.088909 387.521766 
L 576.103455 246.171844 
L 577.118 191.65863 
L 578.132545 411.827959 
L 579.147091 418.273262 
L 580.161636 410.476576 
L 581.176182 393.37199 
L 582.190727 413.650458 
L 583.205273 271.137375 
L 584.219818 267.080551 
L 585.234364 415.558592 
L 586.248909 411.067391 
L 587.263455 414.508211 
L 588.278 413.179029 
L 589.292545 389.883402 
L 590.307091 262.261874 
L 591.321636 240.305924 
L 592.336182 405.123461 
L 593.350727 412.553516 
L 594.365273 394.772444 
L 595.379818 409.413516 
L 596.394364 418.148437 
L 597.408909 183.521263 
L 598.423455 209.603691 
L 599.438 416.744093 
L 600.452545 411.086331 
L 601.467091 403.568051 
L 603.496182 421.969006 
L 604.510727 232.15252 
L 605.525273 218.107515 
L 606.539818 407.896943 
L 607.554364 416.195142 
L 608.568909 393.715817 
L 609.583455 411.735917 
L 610.598 419.806861 
L 611.612545 264.495922 
L 612.627091 235.72123 
L 613.641636 402.530914 
L 614.656182 383.90442 
L 615.670727 336.814647 
L 616.685273 417.515881 
L 617.699818 410.433293 
L 618.714364 232.533028 
L 619.728909 213.46419 
L 620.743455 423.014284 
L 621.758 416.929663 
L 622.772545 419.848277 
L 623.787091 387.934762 
L 624.801636 409.729034 
L 626.830727 144.081413 
L 627.845273 384.335029 
L 628.859818 416.123101 
L 629.874364 413.896125 
L 630.888909 426.098713 
L 631.903455 403.811556 
L 632.918 275.598583 
L 633.932545 196.929469 
L 634.947091 410.176223 
L 635.961636 413.845908 
L 636.976182 411.64756 
L 637.990727 410.052299 
L 639.005273 420.727519 
L 640.019818 275.958179 
L 641.034364 280.661728 
L 642.048909 405.18885 
L 643.063455 406.052466 
L 644.078 410.115887 
L 645.092545 383.100272 
L 646.107091 411.055529 
L 647.121636 228.068423 
L 648.136182 236.950419 
L 649.150727 412.979346 
L 650.165273 412.048083 
L 651.179818 390.17318 
L 652.194364 408.042964 
L 653.208909 396.719567 
L 654.223455 204.549769 
L 655.238 199.054554 
L 656.252545 407.115045 
L 657.267091 386.526093 
L 658.281636 378.809031 
L 659.296182 395.139394 
L 660.310727 406.515726 
L 661.325273 225.196635 
L 662.339818 246.21523 
L 663.354364 399.423345 
L 664.368909 391.977252 
L 665.383455 417.164296 
L 666.398 427.116651 
L 667.412545 415.683787 
L 668.427091 294.477745 
L 669.441636 270.399147 
L 670.456182 406.712881 
L 671.470727 413.362117 
L 672.485273 405.894995 
L 673.499818 401.538727 
L 674.514364 408.723775 
L 675.528909 250.331713 
L 676.543455 250.782256 
L 677.558 401.032509 
L 678.572545 384.932505 
L 679.587091 403.35388 
L 680.601636 400.90509 
L 681.616182 411.456665 
L 682.630727 188.096907 
L 683.645273 208.519544 
L 684.659818 414.546707 
L 685.674364 413.79628 
L 686.688909 412.84337 
L 687.703455 398.782126 
L 688.718 407.164964 
L 689.732545 260.434363 
L 690.747091 261.771869 
L 691.761636 423.349397 
L 692.776182 411.9615 
L 693.790727 390.946582 
L 694.805273 418.622913 
L 695.819818 409.70145 
L 696.834364 230.109827 
L 697.848909 231.963326 
L 698.863455 417.452839 
L 699.878 421.729762 
L 700.892545 417.908988 
L 701.907091 418.669323 
L 702.921636 413.376653 
L 703.936182 258.354605 
L 704.950727 256.466069 
L 705.965273 406.495655 
L 706.979818 385.886552 
L 707.994364 413.349298 
L 709.008909 422.086383 
L 710.023455 412.204693 
L 711.038 261.85542 
L 712.052545 263.583224 
L 713.067091 399.976307 
L 714.081636 422.255888 
L 715.096182 401.924635 
L 716.110727 409.709979 
L 717.125273 410.473937 
L 718.139818 281.970589 
L 719.154364 221.134456 
L 720.168909 417.215529 
L 721.183455 394.014199 
L 722.198 417.083755 
L 723.212545 394.6173 
L 724.227091 426.517061 
L 725.241636 256.828504 
L 726.256182 267.369725 
L 727.270727 413.139241 
L 728.285273 406.204803 
L 729.299818 417.605468 
L 730.314364 421.012949 
L 731.328909 398.30103 
L 732.343455 208.112726 
L 733.358 275.645988 
L 734.372545 420.306664 
L 735.387091 405.837176 
L 736.401636 410.829637 
L 737.416182 425.004673 
L 738.430727 417.924291 
L 739.445273 263.938333 
L 740.459818 224.095488 
L 741.474364 406.615543 
L 742.488909 429.177894 
L 743.503455 396.056376 
L 744.518 414.08053 
L 745.532545 419.252128 
L 746.547091 222.761334 
L 747.561636 270.064287 
L 748.576182 422.758134 
L 749.590727 409.977269 
L 750.605273 406.225324 
L 751.619818 431.42865 
L 752.634364 403.137522 
L 753.648909 273.382717 
L 754.663455 279.836806 
L 755.678 419.250811 
L 756.692545 416.96665 
L 757.707091 410.181671 
L 758.721636 408.515078 
L 759.736182 408.066286 
L 760.750727 283.056847 
L 761.765273 252.100049 
L 762.779818 410.469154 
L 763.794364 419.059991 
L 764.808909 422.34787 
L 765.823455 418.968373 
L 766.838 421.8105 
L 767.852545 272.907681 
L 768.867091 231.418222 
L 769.881636 385.263507 
L 770.896182 384.106451 
L 771.910727 409.098574 
L 772.925273 406.118614 
L 773.939818 400.092756 
L 774.954364 265.289961 
L 775.968909 211.288985 
L 776.983455 405.463413 
L 777.998 415.068576 
L 779.012545 411.159935 
L 780.027091 420.575129 
L 781.041636 422.586378 
L 782.056182 239.194829 
L 783.070727 275.762102 
L 784.085273 418.204376 
L 785.099818 409.762471 
L 786.114364 409.632795 
L 787.128909 424.792221 
L 788.143455 406.382392 
L 789.158 236.092975 
L 790.172545 239.039267 
L 791.187091 413.138816 
L 792.201636 391.589751 
L 793.216182 423.557282 
L 794.230727 419.638654 
L 795.245273 376.742667 
L 796.259818 203.022419 
L 797.274364 269.901695 
L 798.288909 426.676488 
L 799.303455 404.884452 
L 800.318 394.349498 
L 801.332545 379.143774 
L 802.347091 416.928351 
L 803.361636 165.532178 
L 804.376182 268.614196 
L 805.390727 430.733111 
L 806.405273 400.253383 
L 807.419818 413.286514 
L 808.434364 430.471248 
L 809.448909 407.720987 
L 810.463455 265.740418 
L 811.478 301.785921 
L 812.492545 401.685712 
L 813.507091 420.74068 
L 814.521636 364.739948 
L 815.536182 412.645679 
L 816.550727 408.038784 
L 817.565273 241.26114 
L 818.579818 271.604503 
L 819.594364 424.568477 
L 820.608909 430.595701 
L 821.623455 420.040642 
L 822.638 417.79209 
L 823.652545 418.800359 
L 824.667091 252.97082 
L 825.681636 274.369207 
L 826.696182 395.031059 
L 827.710727 410.609986 
L 828.725273 410.0428 
L 829.739818 400.946213 
L 830.754364 404.85986 
L 831.768909 257.162342 
L 832.783455 216.344671 
L 833.798 394.012573 
L 834.812545 406.3372 
L 835.827091 414.275903 
L 836.841636 401.466757 
L 837.856182 421.193971 
L 838.870727 242.276569 
L 839.885273 252.052645 
L 840.899818 408.09634 
L 841.914364 408.458888 
L 842.928909 405.418129 
L 843.943455 405.965257 
L 844.958 383.950434 
L 845.972545 223.964002 
L 846.987091 231.334404 
L 848.001636 416.783445 
L 849.016182 419.118267 
L 850.030727 394.949687 
L 851.045273 403.381229 
L 852.059818 407.168571 
L 853.074364 274.682669 
L 854.088909 203.712414 
L 855.103455 386.122675 
L 856.118 412.857451 
L 857.132545 419.975276 
L 858.147091 413.320222 
L 859.161636 409.560424 
L 860.176182 272.84219 
L 861.190727 263.897653 
L 862.205273 389.799677 
L 863.219818 407.308688 
L 864.234364 415.404954 
L 865.248909 415.72389 
L 866.263455 418.169541 
L 867.278 230.514432 
L 868.292545 267.364023 
L 869.307091 408.689883 
L 870.321636 418.988591 
L 871.336182 410.645422 
L 872.350727 421.811492 
L 873.365273 422.321167 
L 874.379818 245.507157 
L 875.394364 312.943216 
L 876.408909 420.724665 
L 877.423455 407.173942 
L 878.438 420.078371 
L 879.452545 413.234193 
L 880.467091 397.656993 
L 881.481636 256.565049 
L 882.496182 248.903399 
L 883.510727 422.681386 
L 884.525273 402.681986 
L 885.539818 423.289273 
L 886.554364 416.36339 
L 887.568909 414.100571 
L 888.583455 246.07352 
L 889.598 251.345213 
L 890.612545 387.403445 
L 891.627091 403.468696 
L 892.641636 403.533986 
L 893.656182 416.716877 
L 894.670727 372.473167 
L 895.685273 206.931177 
L 896.699818 255.047562 
L 897.714364 375.223998 
L 898.728909 342.910412 
L 899.743455 354.835856 
L 900.758 412.368219 
L 901.772545 401.170283 
L 902.787091 244.862958 
L 903.801636 233.899102 
L 904.816182 407.410601 
L 905.830727 381.087862 
L 906.845273 417.69465 
L 907.859818 380.328154 
L 908.874364 401.584401 
L 909.888909 259.050185 
L 910.903455 216.333007 
L 911.918 417.771976 
L 912.932545 411.291409 
L 913.947091 417.37346 
L 914.961636 422.636192 
L 915.976182 416.052935 
L 916.990727 215.646687 
L 918.005273 322.682765 
L 919.019818 400.005633 
L 920.034364 387.688827 
L 921.048909 392.756552 
L 922.063455 422.337823 
L 923.078 410.745353 
L 924.092545 245.061906 
L 925.107091 251.58712 
L 926.121636 411.928142 
L 927.136182 416.59596 
L 928.150727 408.433999 
L 929.165273 419.60856 
L 930.179818 395.521505 
L 931.194364 267.022937 
L 932.208909 237.720049 
L 933.223455 404.381729 
L 934.238 379.148415 
L 935.252545 402.552454 
L 936.267091 404.745574 
L 937.281636 414.136956 
L 938.296182 249.741832 
L 939.310727 216.439505 
L 940.325273 411.518003 
L 941.339818 404.871037 
L 942.354364 417.519311 
L 943.368909 392.259351 
L 944.383455 426.132187 
L 945.398 209.314999 
L 946.412545 261.407597 
L 947.427091 408.583574 
L 948.441636 419.709817 
L 949.456182 417.361723 
L 950.470727 367.06153 
L 951.485273 411.472386 
L 952.499818 193.761594 
L 953.514364 270.156702 
L 954.528909 399.564522 
L 955.543455 417.892155 
L 956.558 417.3799 
L 957.572545 412.339275 
L 958.587091 416.643539 
L 959.601636 286.4049 
L 960.616182 194.498196 
L 961.630727 363.031411 
L 962.645273 425.086336 
L 963.659818 395.162888 
L 964.674364 397.099286 
L 965.688909 398.393729 
L 966.703455 228.201321 
L 967.718 257.752311 
L 968.732545 415.772598 
L 969.747091 409.513736 
L 970.761636 370.962518 
L 971.776182 419.993074 
L 972.790727 417.04962 
L 973.805273 262.148482 
L 974.819818 232.269875 
L 975.834364 396.604229 
L 976.848909 424.119283 
L 977.863455 399.53915 
L 978.878 400.293915 
L 979.892545 406.750041 
L 980.907091 219.428773 
L 981.921636 285.116392 
L 982.936182 422.00305 
L 984.965273 369.439827 
L 985.979818 412.669355 
L 986.994364 422.531055 
L 988.008909 213.463 
L 990.038 396.663395 
L 991.052545 403.977928 
L 992.067091 398.721404 
L 993.081636 411.415037 
L 994.096182 384.499209 
L 995.110727 283.555918 
L 996.125273 208.550874 
L 997.139818 414.344442 
L 998.154364 416.694221 
L 999.168909 403.833729 
L 1000.183455 411.420763 
L 1001.198 423.611845 
L 1002.212545 329.124795 
L 1003.227091 324.797738 
L 1004.241636 420.80988 
L 1005.256182 433.802096 
L 1006.270727 411.276346 
L 1007.285273 407.270225 
L 1008.299818 412.579981 
L 1009.314364 243.531701 
L 1010.328909 270.023852 
L 1011.343455 413.85471 
L 1012.358 423.560645 
L 1013.372545 431.535674 
L 1014.387091 423.37298 
L 1015.401636 426.818537 
L 1016.416182 263.073826 
L 1017.430727 198.169424 
L 1018.445273 410.805154 
L 1019.459818 419.303844 
L 1020.474364 424.750403 
L 1021.488909 384.816201 
L 1022.503455 421.473787 
L 1023.518 275.973801 
L 1024.532545 235.006379 
L 1025.547091 420.134964 
L 1026.561636 414.478349 
L 1027.576182 401.197985 
L 1028.590727 419.84027 
L 1029.605273 388.424285 
L 1030.619818 279.460818 
L 1031.634364 214.947108 
L 1032.648909 391.985508 
L 1033.663455 399.761767 
L 1034.678 409.205328 
L 1035.692545 400.569327 
L 1036.707091 408.398617 
L 1037.721636 241.44853 
L 1038.736182 262.953196 
L 1039.750727 356.326176 
L 1040.765273 411.915908 
L 1041.779818 392.840044 
L 1042.794364 416.381073 
L 1043.808909 387.270072 
L 1044.823455 251.878216 
L 1045.838 287.572562 
L 1046.852545 415.83644 
L 1047.867091 405.851071 
L 1048.881636 402.60062 
L 1049.896182 413.239929 
L 1050.910727 420.229762 
L 1051.925273 274.627672 
L 1052.939818 246.692553 
L 1053.954364 370.53513 
L 1054.968909 371.518221 
L 1055.983455 417.465429 
L 1056.998 388.563223 
L 1058.012545 418.854335 
L 1059.027091 273.710786 
L 1060.041636 207.436982 
L 1061.056182 406.669988 
L 1062.070727 415.012581 
L 1063.085273 402.78775 
L 1064.099818 418.437902 
L 1065.114364 418.520873 
L 1066.128909 260.335905 
L 1067.143455 241.263558 
L 1068.158 419.196179 
L 1069.172545 422.037195 
L 1070.187091 397.603651 
L 1071.201636 425.699004 
L 1072.216182 384.602204 
L 1073.230727 258.144343 
L 1074.245273 252.082872 
L 1075.259818 404.094023 
L 1076.274364 411.453841 
L 1077.288909 398.647778 
L 1078.303455 382.54485 
L 1079.318 409.83452 
L 1080.332545 241.146404 
L 1081.347091 277.665883 
L 1082.361636 415.847646 
L 1083.376182 422.302814 
L 1085.405273 404.031202 
L 1086.419818 416.940702 
L 1087.434364 231.919998 
L 1088.448909 235.69046 
L 1089.463455 416.924042 
L 1090.478 416.286382 
L 1091.492545 417.805595 
L 1092.507091 417.932392 
L 1093.521636 414.854323 
L 1094.536182 239.949056 
L 1095.550727 253.646005 
L 1096.565273 387.31812 
L 1097.579818 396.5629 
L 1098.594364 394.317052 
L 1099.608909 379.385792 
L 1100.623455 395.974588 
L 1101.638 218.438736 
L 1102.652545 233.657187 
L 1103.667091 395.41657 
L 1104.681636 404.088495 
L 1105.696182 411.2465 
L 1106.710727 403.509731 
L 1107.725273 374.926306 
L 1108.739818 270.460407 
L 1109.754364 270.771594 
L 1110.768909 399.66117 
L 1111.783455 406.552118 
L 1112.798 388.153579 
L 1113.812545 356.904838 
L 1114.827091 396.479291 
L 1115.841636 163.996015 
L 1116.856182 278.217623 
L 1117.870727 411.434288 
L 1118.885273 393.120973 
L 1119.899818 421.66031 
L 1120.914364 403.467496 
L 1121.928909 411.71914 
L 1122.943455 280.924279 
L 1123.958 173.591994 
L 1124.972545 390.223026 
L 1125.987091 404.289695 
L 1127.001636 421.775072 
L 1128.016182 410.109143 
L 1129.030727 415.731317 
L 1130.045273 268.204999 
L 1131.059818 210.373209 
L 1132.074364 421.230062 
L 1133.088909 408.394349 
L 1134.103455 426.213123 
L 1135.118 422.690663 
L 1136.132545 420.913699 
L 1137.147091 255.001153 
L 1138.161636 276.029582 
L 1139.176182 403.23069 
L 1140.190727 407.723781 
L 1141.205273 422.689968 
L 1142.219818 403.121333 
L 1143.234364 412.90869 
L 1144.248909 264.113315 
L 1145.263455 270.585698 
L 1146.278 410.564204 
L 1147.292545 366.771068 
L 1148.307091 421.481016 
L 1149.321636 421.041683 
L 1150.336182 426.773357 
L 1151.350727 265.306721 
L 1152.365273 250.393082 
L 1153.379818 415.579936 
L 1154.394364 405.902164 
L 1155.408909 407.11203 
L 1156.423455 416.402949 
L 1157.438 404.533716 
L 1158.452545 262.439896 
L 1159.467091 251.99771 
L 1160.481636 411.786654 
L 1161.496182 407.195209 
L 1162.510727 413.858264 
L 1163.525273 410.367952 
L 1164.539818 416.480004 
L 1165.554364 242.456341 
L 1166.568909 271.928028 
L 1167.583455 406.207076 
L 1168.598 412.096212 
L 1169.612545 424.597918 
L 1170.627091 387.137731 
L 1171.641636 414.882269 
L 1172.656182 252.570488 
L 1173.670727 250.634698 
L 1174.685273 386.348362 
L 1175.699818 388.9648 
L 1176.714364 426.32187 
L 1177.728909 411.083354 
L 1178.743455 407.909095 
L 1179.758 55.487771 
L 1180.772545 253.38992 
L 1181.787091 417.02298 
L 1182.801636 394.803522 
L 1183.816182 405.012636 
L 1184.830727 389.528045 
L 1185.845273 424.584233 
L 1186.859818 274.86126 
L 1187.874364 272.926085 
L 1188.888909 363.999338 
L 1189.903455 409.546326 
L 1190.918 406.470164 
L 1191.932545 393.295107 
L 1192.947091 402.986617 
L 1193.961636 214.298456 
L 1194.976182 202.68542 
L 1195.990727 402.389321 
L 1197.005273 368.526848 
L 1198.019818 397.94077 
L 1199.034364 416.263816 
L 1200.048909 418.281151 
L 1201.063455 198.444079 
L 1202.078 254.59753 
L 1203.092545 409.455156 
L 1204.107091 405.878133 
L 1205.121636 426.611547 
L 1206.136182 413.393111 
L 1207.150727 405.916611 
L 1208.165273 228.42622 
L 1209.179818 261.450556 
L 1210.194364 389.058058 
L 1211.208909 417.903186 
L 1212.223455 413.67358 
L 1213.238 403.549758 
L 1214.252545 398.904353 
L 1215.267091 257.853372 
L 1216.281636 259.137712 
L 1217.296182 399.219874 
L 1218.310727 408.571096 
L 1219.325273 401.773399 
L 1220.339818 392.327021 
L 1221.354364 376.598576 
L 1222.368909 279.996343 
L 1223.383455 255.745243 
L 1224.398 403.414119 
L 1225.412545 401.801956 
L 1226.427091 384.888658 
L 1227.441636 405.647339 
L 1228.456182 406.79355 
L 1229.470727 235.33474 
L 1230.485273 275.067004 
L 1231.499818 406.228814 
L 1232.514364 415.665847 
L 1233.528909 417.712538 
L 1234.543455 409.570755 
L 1235.558 413.763437 
L 1236.572545 228.948547 
L 1237.587091 290.551777 
L 1238.601636 426.525234 
L 1239.616182 388.657471 
L 1240.630727 413.89564 
L 1241.645273 427.565743 
L 1242.659818 400.146251 
L 1243.674364 219.177693 
L 1244.688909 270.656254 
L 1245.703455 414.750014 
L 1246.718 423.776279 
L 1247.732545 403.940426 
L 1248.747091 425.56641 
L 1249.761636 422.298028 
L 1250.776182 265.016022 
L 1251.790727 269.083206 
L 1252.805273 405.935382 
L 1253.819818 414.11895 
L 1254.834364 394.946805 
L 1255.848909 421.245816 
L 1256.863455 414.646796 
L 1257.878 230.66866 
L 1258.892545 268.231685 
L 1259.907091 380.378829 
L 1260.921636 339.898288 
L 1261.936182 396.435255 
L 1262.950727 413.382518 
L 1263.965273 419.577257 
L 1264.979818 236.498439 
L 1265.994364 203.215223 
L 1267.008909 415.361554 
L 1268.023455 415.664851 
L 1269.038 404.559258 
L 1270.052545 415.59235 
L 1271.067091 414.790606 
L 1272.081636 257.955991 
L 1273.096182 221.633501 
L 1274.110727 358.83322 
L 1275.125273 416.227303 
L 1276.139818 390.402084 
L 1277.154364 420.802825 
L 1278.168909 422.817484 
L 1279.183455 240.484104 
L 1280.198 277.925582 
L 1281.212545 418.45607 
L 1282.227091 401.545349 
L 1283.241636 425.82774 
L 1284.256182 394.090452 
L 1285.270727 418.438176 
L 1286.285273 223.769012 
L 1287.299818 258.950119 
L 1288.314364 408.694254 
L 1289.328909 408.174093 
L 1290.343455 409.365511 
L 1292.372545 411.946707 
L 1293.387091 264.713222 
L 1294.401636 250.522589 
L 1295.416182 411.017862 
L 1296.430727 417.102331 
L 1297.445273 412.468645 
L 1298.459818 403.750822 
L 1299.474364 407.380357 
L 1300.488909 268.285608 
L 1301.503455 240.776478 
L 1302.518 421.526898 
L 1303.532545 391.196783 
L 1304.547091 377.830877 
L 1305.561636 387.568029 
L 1306.576182 401.368259 
L 1307.590727 225.945795 
L 1308.605273 257.230703 
L 1309.619818 390.40402 
L 1310.634364 414.328606 
L 1311.648909 411.247493 
L 1312.663455 390.417907 
L 1313.678 416.746114 
L 1314.692545 213.489498 
L 1315.707091 278.205044 
L 1316.721636 399.529536 
L 1317.736182 407.929446 
L 1318.750727 400.640309 
L 1319.765273 414.587053 
L 1320.779818 424.738429 
L 1321.794364 240.626723 
L 1322.808909 192.28529 
L 1323.823455 400.22652 
L 1324.838 422.020113 
L 1325.852545 409.772427 
L 1326.867091 420.483406 
L 1327.881636 396.406369 
L 1328.896182 202.680203 
L 1329.910727 238.501833 
L 1330.925273 395.995902 
L 1331.939818 417.245105 
L 1332.954364 397.400527 
L 1333.968909 411.063819 
L 1334.983455 427.3734 
L 1335.998 213.578431 
L 1337.012545 266.914623 
L 1338.027091 411.357153 
L 1339.041636 410.860969 
L 1340.056182 417.378433 
L 1341.070727 427.917742 
L 1342.085273 413.163676 
L 1343.099818 285.511737 
L 1344.114364 237.24527 
L 1345.128909 391.798876 
L 1346.143455 428.628149 
L 1347.158 419.410977 
L 1348.172545 401.741719 
L 1349.187091 421.814959 
L 1350.201636 238.99226 
L 1351.216182 279.045108 
L 1352.230727 415.698721 
L 1353.245273 412.460195 
L 1354.259818 420.700555 
L 1355.274364 371.154037 
L 1356.288909 408.835931 
L 1357.303455 184.892867 
L 1358.318 228.795112 
L 1359.332545 429.864072 
L 1360.347091 408.292452 
L 1361.361636 366.349845 
L 1362.376182 394.742941 
L 1363.390727 409.633961 
L 1364.405273 274.759104 
L 1365.419818 267.227264 
L 1366.434364 422.253908 
L 1367.448909 390.989944 
L 1368.463455 416.682392 
L 1369.478 416.129534 
L 1370.492545 403.278337 
L 1371.507091 251.114578 
L 1372.521636 264.932315 
L 1373.536182 425.649879 
L 1374.550727 420.680964 
L 1375.565273 414.912977 
L 1376.579818 395.615485 
L 1377.594364 413.707394 
L 1378.608909 267.86279 
L 1379.623455 246.434063 
L 1380.638 421.185519 
L 1381.652545 398.060549 
L 1382.667091 426.833289 
L 1383.681636 411.884933 
L 1384.696182 432.547172 
L 1385.710727 282.106381 
L 1386.725273 215.722316 
L 1387.739818 399.535329 
L 1388.754364 427.096793 
L 1389.768909 404.94049 
L 1390.783455 423.274951 
L 1391.798 417.407347 
L 1392.812545 282.77857 
L 1393.827091 248.083555 
L 1394.841636 428.349112 
L 1395.856182 418.039426 
L 1396.870727 405.286236 
L 1397.885273 406.836165 
L 1398.899818 406.976076 
L 1399.914364 247.527276 
L 1400.928909 270.183661 
L 1401.943455 371.046123 
L 1402.958 418.519928 
L 1403.972545 418.753313 
L 1404.987091 421.100698 
L 1406.001636 402.992931 
L 1407.016182 266.956509 
L 1408.030727 234.804743 
L 1409.045273 392.806416 
L 1410.059818 417.870776 
L 1411.074364 399.609868 
L 1412.088909 413.540131 
L 1413.103455 420.095419 
L 1414.118 251.926461 
L 1415.132545 236.100222 
L 1416.147091 426.418055 
L 1417.161636 403.720267 
L 1418.176182 419.289359 
L 1419.190727 404.696674 
L 1420.205273 431.439004 
L 1421.219818 250.39408 
L 1422.234364 241.344826 
L 1423.248909 401.695266 
L 1424.263455 417.037163 
L 1425.278 397.898579 
L 1426.292545 405.940646 
L 1427.307091 415.711214 
L 1428.321636 216.640919 
L 1429.336182 283.894276 
L 1430.350727 420.193567 
L 1431.365273 412.883744 
L 1432.379818 420.747487 
L 1433.394364 384.858549 
L 1434.408909 407.592472 
L 1434.408909 407.592472 
" style="fill:none;stroke:#1f77b4;stroke-linecap:square;stroke-width:1.5;"/>
   </g>
   <g id="patch_3">
    <path d="M 102.818 452.717812 
L 102.818 17.837812 
" style="fill:none;stroke:#000000;stroke-linecap:square;stroke-linejoin:miter;stroke-width:0.8;"/>
   </g>
   <g id="patch_4">
    <path d="M 1497.818 452.717812 
L 1497.818 17.837812 
" style="fill:none;stroke:#000000;stroke-linecap:square;stroke-linejoin:miter;stroke-width:0.8;"/>
   </g>
   <g id="patch_5">
    <path d="M 102.818 452.717812 
L 1497.818 452.717812 
" style="fill:none;stroke:#000000;stroke-linecap:square;stroke-linejoin:miter;stroke-width:0.8;"/>
   </g>
   <g id="patch_6">
    <path d="M 102.818 17.837812 
L 1497.818 17.837812 
" style="fill:none;stroke:#000000;stroke-linecap:square;stroke-linejoin:miter;stroke-width:0.8;"/>
   </g>
  </g>
 </g>
 <defs>
  <clipPath id="p5a65ea408a">
   <rect height="434.88" width="1395" x="102.818" y="17.837812"/>
  </clipPath>
 </defs>
</svg>
