<?xml version="1.0" encoding="utf-8" standalone="no"?>
<!DOCTYPE svg PUBLIC "-//W3C//DTD SVG 1.1//EN"
  "http://www.w3.org/Graphics/SVG/1.1/DTD/svg11.dtd">
<svg height="528.986562pt" version="1.1" viewBox="0 0 1505.018 528.986562" width="1505.018pt" xmlns="http://www.w3.org/2000/svg" xmlns:xlink="http://www.w3.org/1999/xlink">
 <metadata>
  <rdf:RDF xmlns:cc="http://creativecommons.org/ns#" xmlns:dc="http://purl.org/dc/elements/1.1/" xmlns:rdf="http://www.w3.org/1999/02/22-rdf-syntax-ns#">
   <cc:Work>
    <dc:type rdf:resource="http://purl.org/dc/dcmitype/StillImage"/>
    <dc:date>2022-01-02T13:20:25.435789</dc:date>
    <dc:format>image/svg+xml</dc:format>
    <dc:creator>
     <cc:Agent>
      <dc:title>Matplotlib v3.4.1, https://matplotlib.org/</dc:title>
     </cc:Agent>
    </dc:creator>
   </cc:Work>
  </rdf:RDF>
 </metadata>
 <defs>
  <style type="text/css">*{stroke-linecap:butt;stroke-linejoin:round;}</style>
 </defs>
 <g id="figure_1">
  <g id="patch_1">
   <path d="M -0 528.986562 
L 1505.018 528.986562 
L 1505.018 0 
L -0 0 
z
" style="fill:none;"/>
  </g>
  <g id="axes_1">
   <g id="patch_2">
    <path d="M 102.818 452.717812 
L 1497.818 452.717812 
L 1497.818 17.837812 
L 102.818 17.837812 
z
" style="fill:#ffffff;"/>
   </g>
   <g id="matplotlib.axis_1">
    <g id="xtick_1">
     <g id="line2d_1">
      <defs>
       <path d="M 0 0 
L 0 3.5 
" id="mc33b48ecbc" style="stroke:#000000;stroke-width:0.8;"/>
      </defs>
      <g>
       <use style="stroke:#000000;stroke-width:0.8;" x="166.227091" xlink:href="#mc33b48ecbc" y="452.717812"/>
      </g>
     </g>
     <g id="text_1">
      <!-- 0 -->
      <g transform="translate(157.319591 480.993437)scale(0.28 -0.28)">
       <defs>
        <path d="M 2034 4250 
Q 1547 4250 1301 3770 
Q 1056 3291 1056 2328 
Q 1056 1369 1301 889 
Q 1547 409 2034 409 
Q 2525 409 2770 889 
Q 3016 1369 3016 2328 
Q 3016 3291 2770 3770 
Q 2525 4250 2034 4250 
z
M 2034 4750 
Q 2819 4750 3233 4129 
Q 3647 3509 3647 2328 
Q 3647 1150 3233 529 
Q 2819 -91 2034 -91 
Q 1250 -91 836 529 
Q 422 1150 422 2328 
Q 422 3509 836 4129 
Q 1250 4750 2034 4750 
z
" id="DejaVuSans-30" transform="scale(0.015625)"/>
       </defs>
       <use xlink:href="#DejaVuSans-30"/>
      </g>
     </g>
    </g>
    <g id="xtick_2">
     <g id="line2d_2">
      <g>
       <use style="stroke:#000000;stroke-width:0.8;" x="369.136182" xlink:href="#mc33b48ecbc" y="452.717812"/>
      </g>
     </g>
     <g id="text_2">
      <!-- 200 -->
      <g transform="translate(342.413682 480.993437)scale(0.28 -0.28)">
       <defs>
        <path d="M 1228 531 
L 3431 531 
L 3431 0 
L 469 0 
L 469 531 
Q 828 903 1448 1529 
Q 2069 2156 2228 2338 
Q 2531 2678 2651 2914 
Q 2772 3150 2772 3378 
Q 2772 3750 2511 3984 
Q 2250 4219 1831 4219 
Q 1534 4219 1204 4116 
Q 875 4013 500 3803 
L 500 4441 
Q 881 4594 1212 4672 
Q 1544 4750 1819 4750 
Q 2544 4750 2975 4387 
Q 3406 4025 3406 3419 
Q 3406 3131 3298 2873 
Q 3191 2616 2906 2266 
Q 2828 2175 2409 1742 
Q 1991 1309 1228 531 
z
" id="DejaVuSans-32" transform="scale(0.015625)"/>
       </defs>
       <use xlink:href="#DejaVuSans-32"/>
       <use x="63.623047" xlink:href="#DejaVuSans-30"/>
       <use x="127.246094" xlink:href="#DejaVuSans-30"/>
      </g>
     </g>
    </g>
    <g id="xtick_3">
     <g id="line2d_3">
      <g>
       <use style="stroke:#000000;stroke-width:0.8;" x="572.045273" xlink:href="#mc33b48ecbc" y="452.717812"/>
      </g>
     </g>
     <g id="text_3">
      <!-- 400 -->
      <g transform="translate(545.322773 480.993437)scale(0.28 -0.28)">
       <defs>
        <path d="M 2419 4116 
L 825 1625 
L 2419 1625 
L 2419 4116 
z
M 2253 4666 
L 3047 4666 
L 3047 1625 
L 3713 1625 
L 3713 1100 
L 3047 1100 
L 3047 0 
L 2419 0 
L 2419 1100 
L 313 1100 
L 313 1709 
L 2253 4666 
z
" id="DejaVuSans-34" transform="scale(0.015625)"/>
       </defs>
       <use xlink:href="#DejaVuSans-34"/>
       <use x="63.623047" xlink:href="#DejaVuSans-30"/>
       <use x="127.246094" xlink:href="#DejaVuSans-30"/>
      </g>
     </g>
    </g>
    <g id="xtick_4">
     <g id="line2d_4">
      <g>
       <use style="stroke:#000000;stroke-width:0.8;" x="774.954364" xlink:href="#mc33b48ecbc" y="452.717812"/>
      </g>
     </g>
     <g id="text_4">
      <!-- 600 -->
      <g transform="translate(748.231864 480.993437)scale(0.28 -0.28)">
       <defs>
        <path d="M 2113 2584 
Q 1688 2584 1439 2293 
Q 1191 2003 1191 1497 
Q 1191 994 1439 701 
Q 1688 409 2113 409 
Q 2538 409 2786 701 
Q 3034 994 3034 1497 
Q 3034 2003 2786 2293 
Q 2538 2584 2113 2584 
z
M 3366 4563 
L 3366 3988 
Q 3128 4100 2886 4159 
Q 2644 4219 2406 4219 
Q 1781 4219 1451 3797 
Q 1122 3375 1075 2522 
Q 1259 2794 1537 2939 
Q 1816 3084 2150 3084 
Q 2853 3084 3261 2657 
Q 3669 2231 3669 1497 
Q 3669 778 3244 343 
Q 2819 -91 2113 -91 
Q 1303 -91 875 529 
Q 447 1150 447 2328 
Q 447 3434 972 4092 
Q 1497 4750 2381 4750 
Q 2619 4750 2861 4703 
Q 3103 4656 3366 4563 
z
" id="DejaVuSans-36" transform="scale(0.015625)"/>
       </defs>
       <use xlink:href="#DejaVuSans-36"/>
       <use x="63.623047" xlink:href="#DejaVuSans-30"/>
       <use x="127.246094" xlink:href="#DejaVuSans-30"/>
      </g>
     </g>
    </g>
    <g id="xtick_5">
     <g id="line2d_5">
      <g>
       <use style="stroke:#000000;stroke-width:0.8;" x="977.863455" xlink:href="#mc33b48ecbc" y="452.717812"/>
      </g>
     </g>
     <g id="text_5">
      <!-- 800 -->
      <g transform="translate(951.140955 480.993437)scale(0.28 -0.28)">
       <defs>
        <path d="M 2034 2216 
Q 1584 2216 1326 1975 
Q 1069 1734 1069 1313 
Q 1069 891 1326 650 
Q 1584 409 2034 409 
Q 2484 409 2743 651 
Q 3003 894 3003 1313 
Q 3003 1734 2745 1975 
Q 2488 2216 2034 2216 
z
M 1403 2484 
Q 997 2584 770 2862 
Q 544 3141 544 3541 
Q 544 4100 942 4425 
Q 1341 4750 2034 4750 
Q 2731 4750 3128 4425 
Q 3525 4100 3525 3541 
Q 3525 3141 3298 2862 
Q 3072 2584 2669 2484 
Q 3125 2378 3379 2068 
Q 3634 1759 3634 1313 
Q 3634 634 3220 271 
Q 2806 -91 2034 -91 
Q 1263 -91 848 271 
Q 434 634 434 1313 
Q 434 1759 690 2068 
Q 947 2378 1403 2484 
z
M 1172 3481 
Q 1172 3119 1398 2916 
Q 1625 2713 2034 2713 
Q 2441 2713 2670 2916 
Q 2900 3119 2900 3481 
Q 2900 3844 2670 4047 
Q 2441 4250 2034 4250 
Q 1625 4250 1398 4047 
Q 1172 3844 1172 3481 
z
" id="DejaVuSans-38" transform="scale(0.015625)"/>
       </defs>
       <use xlink:href="#DejaVuSans-38"/>
       <use x="63.623047" xlink:href="#DejaVuSans-30"/>
       <use x="127.246094" xlink:href="#DejaVuSans-30"/>
      </g>
     </g>
    </g>
    <g id="xtick_6">
     <g id="line2d_6">
      <g>
       <use style="stroke:#000000;stroke-width:0.8;" x="1180.772545" xlink:href="#mc33b48ecbc" y="452.717812"/>
      </g>
     </g>
     <g id="text_6">
      <!-- 1000 -->
      <g transform="translate(1145.142545 480.993437)scale(0.28 -0.28)">
       <defs>
        <path d="M 794 531 
L 1825 531 
L 1825 4091 
L 703 3866 
L 703 4441 
L 1819 4666 
L 2450 4666 
L 2450 531 
L 3481 531 
L 3481 0 
L 794 0 
L 794 531 
z
" id="DejaVuSans-31" transform="scale(0.015625)"/>
       </defs>
       <use xlink:href="#DejaVuSans-31"/>
       <use x="63.623047" xlink:href="#DejaVuSans-30"/>
       <use x="127.246094" xlink:href="#DejaVuSans-30"/>
       <use x="190.869141" xlink:href="#DejaVuSans-30"/>
      </g>
     </g>
    </g>
    <g id="xtick_7">
     <g id="line2d_7">
      <g>
       <use style="stroke:#000000;stroke-width:0.8;" x="1383.681636" xlink:href="#mc33b48ecbc" y="452.717812"/>
      </g>
     </g>
     <g id="text_7">
      <!-- 1200 -->
      <g transform="translate(1348.051636 480.993437)scale(0.28 -0.28)">
       <use xlink:href="#DejaVuSans-31"/>
       <use x="63.623047" xlink:href="#DejaVuSans-32"/>
       <use x="127.246094" xlink:href="#DejaVuSans-30"/>
       <use x="190.869141" xlink:href="#DejaVuSans-30"/>
      </g>
     </g>
    </g>
    <g id="text_8">
     <!-- Batch order -->
     <g transform="translate(706.573 515.131562)scale(0.32 -0.32)">
      <defs>
       <path d="M 1259 2228 
L 1259 519 
L 2272 519 
Q 2781 519 3026 730 
Q 3272 941 3272 1375 
Q 3272 1813 3026 2020 
Q 2781 2228 2272 2228 
L 1259 2228 
z
M 1259 4147 
L 1259 2741 
L 2194 2741 
Q 2656 2741 2882 2914 
Q 3109 3088 3109 3444 
Q 3109 3797 2882 3972 
Q 2656 4147 2194 4147 
L 1259 4147 
z
M 628 4666 
L 2241 4666 
Q 2963 4666 3353 4366 
Q 3744 4066 3744 3513 
Q 3744 3084 3544 2831 
Q 3344 2578 2956 2516 
Q 3422 2416 3680 2098 
Q 3938 1781 3938 1306 
Q 3938 681 3513 340 
Q 3088 0 2303 0 
L 628 0 
L 628 4666 
z
" id="DejaVuSans-42" transform="scale(0.015625)"/>
       <path d="M 2194 1759 
Q 1497 1759 1228 1600 
Q 959 1441 959 1056 
Q 959 750 1161 570 
Q 1363 391 1709 391 
Q 2188 391 2477 730 
Q 2766 1069 2766 1631 
L 2766 1759 
L 2194 1759 
z
M 3341 1997 
L 3341 0 
L 2766 0 
L 2766 531 
Q 2569 213 2275 61 
Q 1981 -91 1556 -91 
Q 1019 -91 701 211 
Q 384 513 384 1019 
Q 384 1609 779 1909 
Q 1175 2209 1959 2209 
L 2766 2209 
L 2766 2266 
Q 2766 2663 2505 2880 
Q 2244 3097 1772 3097 
Q 1472 3097 1187 3025 
Q 903 2953 641 2809 
L 641 3341 
Q 956 3463 1253 3523 
Q 1550 3584 1831 3584 
Q 2591 3584 2966 3190 
Q 3341 2797 3341 1997 
z
" id="DejaVuSans-61" transform="scale(0.015625)"/>
       <path d="M 1172 4494 
L 1172 3500 
L 2356 3500 
L 2356 3053 
L 1172 3053 
L 1172 1153 
Q 1172 725 1289 603 
Q 1406 481 1766 481 
L 2356 481 
L 2356 0 
L 1766 0 
Q 1100 0 847 248 
Q 594 497 594 1153 
L 594 3053 
L 172 3053 
L 172 3500 
L 594 3500 
L 594 4494 
L 1172 4494 
z
" id="DejaVuSans-74" transform="scale(0.015625)"/>
       <path d="M 3122 3366 
L 3122 2828 
Q 2878 2963 2633 3030 
Q 2388 3097 2138 3097 
Q 1578 3097 1268 2742 
Q 959 2388 959 1747 
Q 959 1106 1268 751 
Q 1578 397 2138 397 
Q 2388 397 2633 464 
Q 2878 531 3122 666 
L 3122 134 
Q 2881 22 2623 -34 
Q 2366 -91 2075 -91 
Q 1284 -91 818 406 
Q 353 903 353 1747 
Q 353 2603 823 3093 
Q 1294 3584 2113 3584 
Q 2378 3584 2631 3529 
Q 2884 3475 3122 3366 
z
" id="DejaVuSans-63" transform="scale(0.015625)"/>
       <path d="M 3513 2113 
L 3513 0 
L 2938 0 
L 2938 2094 
Q 2938 2591 2744 2837 
Q 2550 3084 2163 3084 
Q 1697 3084 1428 2787 
Q 1159 2491 1159 1978 
L 1159 0 
L 581 0 
L 581 4863 
L 1159 4863 
L 1159 2956 
Q 1366 3272 1645 3428 
Q 1925 3584 2291 3584 
Q 2894 3584 3203 3211 
Q 3513 2838 3513 2113 
z
" id="DejaVuSans-68" transform="scale(0.015625)"/>
       <path id="DejaVuSans-20" transform="scale(0.015625)"/>
       <path d="M 1959 3097 
Q 1497 3097 1228 2736 
Q 959 2375 959 1747 
Q 959 1119 1226 758 
Q 1494 397 1959 397 
Q 2419 397 2687 759 
Q 2956 1122 2956 1747 
Q 2956 2369 2687 2733 
Q 2419 3097 1959 3097 
z
M 1959 3584 
Q 2709 3584 3137 3096 
Q 3566 2609 3566 1747 
Q 3566 888 3137 398 
Q 2709 -91 1959 -91 
Q 1206 -91 779 398 
Q 353 888 353 1747 
Q 353 2609 779 3096 
Q 1206 3584 1959 3584 
z
" id="DejaVuSans-6f" transform="scale(0.015625)"/>
       <path d="M 2631 2963 
Q 2534 3019 2420 3045 
Q 2306 3072 2169 3072 
Q 1681 3072 1420 2755 
Q 1159 2438 1159 1844 
L 1159 0 
L 581 0 
L 581 3500 
L 1159 3500 
L 1159 2956 
Q 1341 3275 1631 3429 
Q 1922 3584 2338 3584 
Q 2397 3584 2469 3576 
Q 2541 3569 2628 3553 
L 2631 2963 
z
" id="DejaVuSans-72" transform="scale(0.015625)"/>
       <path d="M 2906 2969 
L 2906 4863 
L 3481 4863 
L 3481 0 
L 2906 0 
L 2906 525 
Q 2725 213 2448 61 
Q 2172 -91 1784 -91 
Q 1150 -91 751 415 
Q 353 922 353 1747 
Q 353 2572 751 3078 
Q 1150 3584 1784 3584 
Q 2172 3584 2448 3432 
Q 2725 3281 2906 2969 
z
M 947 1747 
Q 947 1113 1208 752 
Q 1469 391 1925 391 
Q 2381 391 2643 752 
Q 2906 1113 2906 1747 
Q 2906 2381 2643 2742 
Q 2381 3103 1925 3103 
Q 1469 3103 1208 2742 
Q 947 2381 947 1747 
z
" id="DejaVuSans-64" transform="scale(0.015625)"/>
       <path d="M 3597 1894 
L 3597 1613 
L 953 1613 
Q 991 1019 1311 708 
Q 1631 397 2203 397 
Q 2534 397 2845 478 
Q 3156 559 3463 722 
L 3463 178 
Q 3153 47 2828 -22 
Q 2503 -91 2169 -91 
Q 1331 -91 842 396 
Q 353 884 353 1716 
Q 353 2575 817 3079 
Q 1281 3584 2069 3584 
Q 2775 3584 3186 3129 
Q 3597 2675 3597 1894 
z
M 3022 2063 
Q 3016 2534 2758 2815 
Q 2500 3097 2075 3097 
Q 1594 3097 1305 2825 
Q 1016 2553 972 2059 
L 3022 2063 
z
" id="DejaVuSans-65" transform="scale(0.015625)"/>
      </defs>
      <use xlink:href="#DejaVuSans-42"/>
      <use x="68.603516" xlink:href="#DejaVuSans-61"/>
      <use x="129.882812" xlink:href="#DejaVuSans-74"/>
      <use x="169.091797" xlink:href="#DejaVuSans-63"/>
      <use x="224.072266" xlink:href="#DejaVuSans-68"/>
      <use x="287.451172" xlink:href="#DejaVuSans-20"/>
      <use x="319.238281" xlink:href="#DejaVuSans-6f"/>
      <use x="380.419922" xlink:href="#DejaVuSans-72"/>
      <use x="419.783203" xlink:href="#DejaVuSans-64"/>
      <use x="483.259766" xlink:href="#DejaVuSans-65"/>
      <use x="544.783203" xlink:href="#DejaVuSans-72"/>
     </g>
    </g>
   </g>
   <g id="matplotlib.axis_2">
    <g id="ytick_1">
     <g id="line2d_8">
      <defs>
       <path d="M 0 0 
L -3.5 0 
" id="me5a1f3af57" style="stroke:#000000;stroke-width:0.8;"/>
      </defs>
      <g>
       <use style="stroke:#000000;stroke-width:0.8;" x="102.818" xlink:href="#me5a1f3af57" y="452.717813"/>
      </g>
     </g>
     <g id="text_9">
      <!-- 1 -->
      <g transform="translate(78.003 463.355625)scale(0.28 -0.28)">
       <use xlink:href="#DejaVuSans-31"/>
      </g>
     </g>
    </g>
    <g id="ytick_2">
     <g id="line2d_9">
      <g>
       <use style="stroke:#000000;stroke-width:0.8;" x="102.818" xlink:href="#me5a1f3af57" y="390.592098"/>
      </g>
     </g>
     <g id="text_10">
      <!-- 2 -->
      <g transform="translate(78.003 401.229911)scale(0.28 -0.28)">
       <use xlink:href="#DejaVuSans-32"/>
      </g>
     </g>
    </g>
    <g id="ytick_3">
     <g id="line2d_10">
      <g>
       <use style="stroke:#000000;stroke-width:0.8;" x="102.818" xlink:href="#me5a1f3af57" y="328.466384"/>
      </g>
     </g>
     <g id="text_11">
      <!-- 3 -->
      <g transform="translate(78.003 339.104196)scale(0.28 -0.28)">
       <defs>
        <path d="M 2597 2516 
Q 3050 2419 3304 2112 
Q 3559 1806 3559 1356 
Q 3559 666 3084 287 
Q 2609 -91 1734 -91 
Q 1441 -91 1130 -33 
Q 819 25 488 141 
L 488 750 
Q 750 597 1062 519 
Q 1375 441 1716 441 
Q 2309 441 2620 675 
Q 2931 909 2931 1356 
Q 2931 1769 2642 2001 
Q 2353 2234 1838 2234 
L 1294 2234 
L 1294 2753 
L 1863 2753 
Q 2328 2753 2575 2939 
Q 2822 3125 2822 3475 
Q 2822 3834 2567 4026 
Q 2313 4219 1838 4219 
Q 1578 4219 1281 4162 
Q 984 4106 628 3988 
L 628 4550 
Q 988 4650 1302 4700 
Q 1616 4750 1894 4750 
Q 2613 4750 3031 4423 
Q 3450 4097 3450 3541 
Q 3450 3153 3228 2886 
Q 3006 2619 2597 2516 
z
" id="DejaVuSans-33" transform="scale(0.015625)"/>
       </defs>
       <use xlink:href="#DejaVuSans-33"/>
      </g>
     </g>
    </g>
    <g id="ytick_4">
     <g id="line2d_11">
      <g>
       <use style="stroke:#000000;stroke-width:0.8;" x="102.818" xlink:href="#me5a1f3af57" y="266.34067"/>
      </g>
     </g>
     <g id="text_12">
      <!-- 4 -->
      <g transform="translate(78.003 276.978482)scale(0.28 -0.28)">
       <use xlink:href="#DejaVuSans-34"/>
      </g>
     </g>
    </g>
    <g id="ytick_5">
     <g id="line2d_12">
      <g>
       <use style="stroke:#000000;stroke-width:0.8;" x="102.818" xlink:href="#me5a1f3af57" y="204.214955"/>
      </g>
     </g>
     <g id="text_13">
      <!-- 5 -->
      <g transform="translate(78.003 214.852768)scale(0.28 -0.28)">
       <defs>
        <path d="M 691 4666 
L 3169 4666 
L 3169 4134 
L 1269 4134 
L 1269 2991 
Q 1406 3038 1543 3061 
Q 1681 3084 1819 3084 
Q 2600 3084 3056 2656 
Q 3513 2228 3513 1497 
Q 3513 744 3044 326 
Q 2575 -91 1722 -91 
Q 1428 -91 1123 -41 
Q 819 9 494 109 
L 494 744 
Q 775 591 1075 516 
Q 1375 441 1709 441 
Q 2250 441 2565 725 
Q 2881 1009 2881 1497 
Q 2881 1984 2565 2268 
Q 2250 2553 1709 2553 
Q 1456 2553 1204 2497 
Q 953 2441 691 2322 
L 691 4666 
z
" id="DejaVuSans-35" transform="scale(0.015625)"/>
       </defs>
       <use xlink:href="#DejaVuSans-35"/>
      </g>
     </g>
    </g>
    <g id="ytick_6">
     <g id="line2d_13">
      <g>
       <use style="stroke:#000000;stroke-width:0.8;" x="102.818" xlink:href="#me5a1f3af57" y="142.089241"/>
      </g>
     </g>
     <g id="text_14">
      <!-- 6 -->
      <g transform="translate(78.003 152.727054)scale(0.28 -0.28)">
       <use xlink:href="#DejaVuSans-36"/>
      </g>
     </g>
    </g>
    <g id="ytick_7">
     <g id="line2d_14">
      <g>
       <use style="stroke:#000000;stroke-width:0.8;" x="102.818" xlink:href="#me5a1f3af57" y="79.963527"/>
      </g>
     </g>
     <g id="text_15">
      <!-- 7 -->
      <g transform="translate(78.003 90.601339)scale(0.28 -0.28)">
       <defs>
        <path d="M 525 4666 
L 3525 4666 
L 3525 4397 
L 1831 0 
L 1172 0 
L 2766 4134 
L 525 4134 
L 525 4666 
z
" id="DejaVuSans-37" transform="scale(0.015625)"/>
       </defs>
       <use xlink:href="#DejaVuSans-37"/>
      </g>
     </g>
    </g>
    <g id="ytick_8">
     <g id="line2d_15">
      <g>
       <use style="stroke:#000000;stroke-width:0.8;" x="102.818" xlink:href="#me5a1f3af57" y="17.837813"/>
      </g>
     </g>
     <g id="text_16">
      <!-- 8 -->
      <g transform="translate(78.003 28.475625)scale(0.28 -0.28)">
       <use xlink:href="#DejaVuSans-38"/>
      </g>
     </g>
    </g>
    <g id="text_17">
     <!-- Batch processing time  -->
     <g transform="translate(31.515 418.892812)rotate(-90)scale(0.32 -0.32)">
      <defs>
       <path d="M 1159 525 
L 1159 -1331 
L 581 -1331 
L 581 3500 
L 1159 3500 
L 1159 2969 
Q 1341 3281 1617 3432 
Q 1894 3584 2278 3584 
Q 2916 3584 3314 3078 
Q 3713 2572 3713 1747 
Q 3713 922 3314 415 
Q 2916 -91 2278 -91 
Q 1894 -91 1617 61 
Q 1341 213 1159 525 
z
M 3116 1747 
Q 3116 2381 2855 2742 
Q 2594 3103 2138 3103 
Q 1681 3103 1420 2742 
Q 1159 2381 1159 1747 
Q 1159 1113 1420 752 
Q 1681 391 2138 391 
Q 2594 391 2855 752 
Q 3116 1113 3116 1747 
z
" id="DejaVuSans-70" transform="scale(0.015625)"/>
       <path d="M 2834 3397 
L 2834 2853 
Q 2591 2978 2328 3040 
Q 2066 3103 1784 3103 
Q 1356 3103 1142 2972 
Q 928 2841 928 2578 
Q 928 2378 1081 2264 
Q 1234 2150 1697 2047 
L 1894 2003 
Q 2506 1872 2764 1633 
Q 3022 1394 3022 966 
Q 3022 478 2636 193 
Q 2250 -91 1575 -91 
Q 1294 -91 989 -36 
Q 684 19 347 128 
L 347 722 
Q 666 556 975 473 
Q 1284 391 1588 391 
Q 1994 391 2212 530 
Q 2431 669 2431 922 
Q 2431 1156 2273 1281 
Q 2116 1406 1581 1522 
L 1381 1569 
Q 847 1681 609 1914 
Q 372 2147 372 2553 
Q 372 3047 722 3315 
Q 1072 3584 1716 3584 
Q 2034 3584 2315 3537 
Q 2597 3491 2834 3397 
z
" id="DejaVuSans-73" transform="scale(0.015625)"/>
       <path d="M 603 3500 
L 1178 3500 
L 1178 0 
L 603 0 
L 603 3500 
z
M 603 4863 
L 1178 4863 
L 1178 4134 
L 603 4134 
L 603 4863 
z
" id="DejaVuSans-69" transform="scale(0.015625)"/>
       <path d="M 3513 2113 
L 3513 0 
L 2938 0 
L 2938 2094 
Q 2938 2591 2744 2837 
Q 2550 3084 2163 3084 
Q 1697 3084 1428 2787 
Q 1159 2491 1159 1978 
L 1159 0 
L 581 0 
L 581 3500 
L 1159 3500 
L 1159 2956 
Q 1366 3272 1645 3428 
Q 1925 3584 2291 3584 
Q 2894 3584 3203 3211 
Q 3513 2838 3513 2113 
z
" id="DejaVuSans-6e" transform="scale(0.015625)"/>
       <path d="M 2906 1791 
Q 2906 2416 2648 2759 
Q 2391 3103 1925 3103 
Q 1463 3103 1205 2759 
Q 947 2416 947 1791 
Q 947 1169 1205 825 
Q 1463 481 1925 481 
Q 2391 481 2648 825 
Q 2906 1169 2906 1791 
z
M 3481 434 
Q 3481 -459 3084 -895 
Q 2688 -1331 1869 -1331 
Q 1566 -1331 1297 -1286 
Q 1028 -1241 775 -1147 
L 775 -588 
Q 1028 -725 1275 -790 
Q 1522 -856 1778 -856 
Q 2344 -856 2625 -561 
Q 2906 -266 2906 331 
L 2906 616 
Q 2728 306 2450 153 
Q 2172 0 1784 0 
Q 1141 0 747 490 
Q 353 981 353 1791 
Q 353 2603 747 3093 
Q 1141 3584 1784 3584 
Q 2172 3584 2450 3431 
Q 2728 3278 2906 2969 
L 2906 3500 
L 3481 3500 
L 3481 434 
z
" id="DejaVuSans-67" transform="scale(0.015625)"/>
       <path d="M 3328 2828 
Q 3544 3216 3844 3400 
Q 4144 3584 4550 3584 
Q 5097 3584 5394 3201 
Q 5691 2819 5691 2113 
L 5691 0 
L 5113 0 
L 5113 2094 
Q 5113 2597 4934 2840 
Q 4756 3084 4391 3084 
Q 3944 3084 3684 2787 
Q 3425 2491 3425 1978 
L 3425 0 
L 2847 0 
L 2847 2094 
Q 2847 2600 2669 2842 
Q 2491 3084 2119 3084 
Q 1678 3084 1418 2786 
Q 1159 2488 1159 1978 
L 1159 0 
L 581 0 
L 581 3500 
L 1159 3500 
L 1159 2956 
Q 1356 3278 1631 3431 
Q 1906 3584 2284 3584 
Q 2666 3584 2933 3390 
Q 3200 3197 3328 2828 
z
" id="DejaVuSans-6d" transform="scale(0.015625)"/>
      </defs>
      <use xlink:href="#DejaVuSans-42"/>
      <use x="68.603516" xlink:href="#DejaVuSans-61"/>
      <use x="129.882812" xlink:href="#DejaVuSans-74"/>
      <use x="169.091797" xlink:href="#DejaVuSans-63"/>
      <use x="224.072266" xlink:href="#DejaVuSans-68"/>
      <use x="287.451172" xlink:href="#DejaVuSans-20"/>
      <use x="319.238281" xlink:href="#DejaVuSans-70"/>
      <use x="382.714844" xlink:href="#DejaVuSans-72"/>
      <use x="421.578125" xlink:href="#DejaVuSans-6f"/>
      <use x="482.759766" xlink:href="#DejaVuSans-63"/>
      <use x="537.740234" xlink:href="#DejaVuSans-65"/>
      <use x="599.263672" xlink:href="#DejaVuSans-73"/>
      <use x="651.363281" xlink:href="#DejaVuSans-73"/>
      <use x="703.462891" xlink:href="#DejaVuSans-69"/>
      <use x="731.246094" xlink:href="#DejaVuSans-6e"/>
      <use x="794.625" xlink:href="#DejaVuSans-67"/>
      <use x="858.101562" xlink:href="#DejaVuSans-20"/>
      <use x="889.888672" xlink:href="#DejaVuSans-74"/>
      <use x="929.097656" xlink:href="#DejaVuSans-69"/>
      <use x="956.880859" xlink:href="#DejaVuSans-6d"/>
      <use x="1054.292969" xlink:href="#DejaVuSans-65"/>
      <use x="1115.816406" xlink:href="#DejaVuSans-20"/>
     </g>
     <!-- (sec) -->
     <g transform="translate(67.348 274.740312)rotate(-90)scale(0.32 -0.32)">
      <defs>
       <path d="M 1984 4856 
Q 1566 4138 1362 3434 
Q 1159 2731 1159 2009 
Q 1159 1288 1364 580 
Q 1569 -128 1984 -844 
L 1484 -844 
Q 1016 -109 783 600 
Q 550 1309 550 2009 
Q 550 2706 781 3412 
Q 1013 4119 1484 4856 
L 1984 4856 
z
" id="DejaVuSans-28" transform="scale(0.015625)"/>
       <path d="M 513 4856 
L 1013 4856 
Q 1481 4119 1714 3412 
Q 1947 2706 1947 2009 
Q 1947 1309 1714 600 
Q 1481 -109 1013 -844 
L 513 -844 
Q 928 -128 1133 580 
Q 1338 1288 1338 2009 
Q 1338 2731 1133 3434 
Q 928 4138 513 4856 
z
" id="DejaVuSans-29" transform="scale(0.015625)"/>
      </defs>
      <use xlink:href="#DejaVuSans-28"/>
      <use x="39.013672" xlink:href="#DejaVuSans-73"/>
      <use x="91.113281" xlink:href="#DejaVuSans-65"/>
      <use x="152.636719" xlink:href="#DejaVuSans-63"/>
      <use x="207.617188" xlink:href="#DejaVuSans-29"/>
     </g>
    </g>
   </g>
   <g id="line2d_16">
    <path clip-path="url(#pa57bf95406)" d="M 166.227091 366.078904 
L 167.241636 352.477926 
L 168.256182 365.337365 
L 169.270727 350.835608 
L 170.285273 357.648833 
L 171.299818 193.863156 
L 172.314364 184.325291 
L 173.328909 340.972669 
L 174.343455 354.780098 
L 175.358 351.173871 
L 176.372545 357.490825 
L 177.387091 354.991759 
L 178.401636 209.662827 
L 179.416182 178.408461 
L 180.430727 368.658207 
L 181.445273 359.686561 
L 182.459818 373.058929 
L 183.474364 369.08795 
L 184.488909 358.822376 
L 185.503455 223.182444 
L 186.518 236.007546 
L 187.532545 369.653941 
L 188.547091 350.410496 
L 189.561636 372.418017 
L 190.576182 337.835779 
L 191.590727 381.304201 
L 192.605273 253.409016 
L 193.619818 211.333417 
L 194.634364 365.784661 
L 195.648909 368.558055 
L 196.663455 373.076523 
L 197.678 370.101962 
L 198.692545 358.756119 
L 199.707091 244.449347 
L 200.721636 223.177148 
L 201.736182 378.369415 
L 202.750727 364.043992 
L 203.765273 338.190469 
L 204.779818 358.465177 
L 205.794364 347.741596 
L 206.808909 174.572301 
L 207.823455 244.983461 
L 208.838 363.396564 
L 209.852545 371.997036 
L 210.867091 358.696175 
L 211.881636 381.852028 
L 212.896182 351.465497 
L 213.910727 237.902931 
L 214.925273 247.90949 
L 215.939818 364.28315 
L 216.954364 370.5232 
L 217.968909 312.574765 
L 218.983455 370.036774 
L 219.998 355.161075 
L 221.012545 179.542311 
L 222.027091 237.267207 
L 223.041636 362.428583 
L 224.056182 359.427589 
L 225.070727 369.227613 
L 226.085273 355.42132 
L 227.099818 378.442222 
L 228.114364 210.885655 
L 229.128909 216.136674 
L 230.143455 364.9534 
L 231.158 388.413765 
L 232.172545 377.227607 
L 233.187091 380.467967 
L 234.201636 368.385212 
L 235.216182 214.184612 
L 236.230727 253.762893 
L 237.245273 346.46509 
L 238.259818 376.315607 
L 239.274364 368.645899 
L 240.288909 346.111275 
L 241.303455 358.540337 
L 242.318 230.584787 
L 243.332545 237.759709 
L 244.347091 372.691488 
L 245.361636 386.394731 
L 246.376182 386.282462 
L 247.390727 380.613847 
L 248.405273 344.061066 
L 249.419818 229.321318 
L 250.434364 230.247132 
L 251.448909 360.390203 
L 252.463455 356.549231 
L 253.478 354.708052 
L 254.492545 350.697783 
L 255.507091 384.522456 
L 256.521636 236.776203 
L 257.536182 208.834024 
L 258.550727 380.042426 
L 259.565273 373.549561 
L 260.579818 378.62386 
L 261.594364 355.531235 
L 262.608909 368.844483 
L 263.623455 231.234489 
L 264.638 255.061935 
L 265.652545 381.915358 
L 266.667091 374.005513 
L 267.681636 385.599607 
L 268.696182 377.521658 
L 269.710727 386.689179 
L 270.725273 220.390629 
L 271.739818 239.443768 
L 272.754364 375.60264 
L 273.768909 373.560068 
L 274.783455 355.23518 
L 275.798 372.945054 
L 276.812545 379.002333 
L 277.827091 248.181476 
L 278.841636 215.608183 
L 279.856182 367.75881 
L 280.870727 366.516088 
L 281.885273 375.708957 
L 282.899818 373.966804 
L 283.914364 370.915168 
L 284.928909 203.953417 
L 285.943455 236.140989 
L 286.958 370.300773 
L 287.972545 360.140004 
L 288.987091 309.612354 
L 290.001636 368.19425 
L 291.016182 362.874334 
L 292.030727 231.907542 
L 293.045273 192.106622 
L 294.059818 373.518838 
L 295.074364 384.65477 
L 296.088909 368.344584 
L 297.103455 369.681046 
L 298.118 366.386658 
L 299.132545 223.493539 
L 300.147091 226.440075 
L 301.161636 379.933953 
L 302.176182 385.553751 
L 303.190727 383.714683 
L 304.205273 383.347653 
L 305.219818 377.143188 
L 306.234364 251.568027 
L 307.248909 261.903105 
L 308.263455 384.082278 
L 309.278 380.6752 
L 310.292545 364.074858 
L 311.307091 378.36751 
L 312.321636 363.513886 
L 313.336182 218.984039 
L 314.350727 243.174507 
L 315.365273 341.550288 
L 316.379818 385.399636 
L 317.394364 384.189725 
L 318.408909 373.581245 
L 319.423455 366.217728 
L 320.438 186.91394 
L 321.452545 204.903716 
L 322.467091 371.646818 
L 323.481636 388.136744 
L 324.496182 366.679432 
L 325.510727 368.42029 
L 326.525273 383.778499 
L 327.539818 251.818604 
L 328.554364 248.871143 
L 329.568909 377.282481 
L 330.583455 364.788321 
L 331.598 366.205798 
L 333.627091 385.920085 
L 334.641636 263.594565 
L 335.656182 240.215158 
L 336.670727 355.055055 
L 337.685273 377.304151 
L 338.699818 347.101255 
L 339.714364 369.51924 
L 340.728909 386.310629 
L 341.743455 255.143806 
L 342.758 202.971394 
L 343.772545 369.706073 
L 344.787091 368.582356 
L 345.801636 356.831718 
L 346.816182 374.985192 
L 347.830727 370.832285 
L 348.845273 229.897283 
L 349.859818 235.722906 
L 350.874364 384.691197 
L 351.888909 372.775499 
L 352.903455 368.417524 
L 353.918 323.438235 
L 354.932545 355.30139 
L 355.947091 207.657987 
L 356.961636 229.803811 
L 357.976182 370.645917 
L 358.990727 372.686866 
L 360.005273 358.675918 
L 361.019818 371.783736 
L 362.034364 365.01598 
L 363.048909 227.921474 
L 364.063455 230.931447 
L 365.078 324.823248 
L 366.092545 351.907448 
L 367.107091 344.233384 
L 369.136182 377.06504 
L 370.150727 180.398085 
L 371.165273 228.19215 
L 372.179818 381.264431 
L 373.194364 381.749082 
L 374.208909 363.422704 
L 375.223455 380.997952 
L 376.238 368.981578 
L 377.252545 211.86477 
L 378.267091 208.168708 
L 379.281636 374.258238 
L 380.296182 366.248089 
L 381.310727 378.337962 
L 382.325273 339.281908 
L 383.339818 377.369475 
L 384.354364 233.983704 
L 385.368909 241.987874 
L 386.383455 361.172216 
L 387.398 376.019586 
L 388.412545 371.038741 
L 389.427091 375.944427 
L 390.441636 362.473148 
L 391.456182 214.671858 
L 392.470727 243.468223 
L 393.485273 379.77883 
L 394.499818 379.354567 
L 395.514364 363.399839 
L 396.528909 382.193413 
L 397.543455 375.885932 
L 398.558 248.284586 
L 399.572545 210.959909 
L 400.587091 364.788982 
L 401.601636 379.875756 
L 402.616182 362.789737 
L 403.630727 384.912798 
L 404.645273 379.527201 
L 405.659818 209.770742 
L 406.674364 247.412935 
L 407.688909 372.200798 
L 408.703455 350.465915 
L 409.718 375.283268 
L 410.732545 383.284354 
L 411.747091 372.953235 
L 412.761636 223.285403 
L 413.776182 219.47069 
L 414.790727 386.049522 
L 415.805273 381.812858 
L 416.819818 373.804694 
L 417.834364 336.943516 
L 418.848909 364.642342 
L 419.863455 263.058546 
L 420.878 215.075716 
L 421.892545 353.766322 
L 422.907091 322.011613 
L 423.921636 373.672769 
L 424.936182 370.597624 
L 425.950727 379.579544 
L 426.965273 220.086073 
L 427.979818 245.507775 
L 428.994364 376.440996 
L 430.008909 364.335903 
L 431.023455 359.535441 
L 432.038 369.579274 
L 433.052545 369.585489 
L 434.067091 248.402469 
L 435.081636 205.061041 
L 436.096182 369.644477 
L 437.110727 361.418192 
L 438.125273 380.670607 
L 439.139818 358.754587 
L 440.154364 370.296724 
L 441.168909 222.656642 
L 442.183455 234.060682 
L 443.198 366.63664 
L 444.212545 378.045061 
L 445.227091 364.769276 
L 446.241636 380.596972 
L 447.256182 372.073665 
L 448.270727 237.560929 
L 449.285273 180.976149 
L 450.299818 364.217787 
L 451.314364 379.27521 
L 453.343455 368.836946 
L 454.358 365.768933 
L 455.372545 232.969439 
L 456.387091 170.690338 
L 457.401636 367.933847 
L 458.416182 378.997805 
L 459.430727 363.094169 
L 460.445273 351.737117 
L 461.459818 371.795343 
L 462.474364 213.750455 
L 463.488909 237.671537 
L 464.503455 367.045514 
L 465.518 349.67241 
L 466.532545 373.895494 
L 467.547091 366.721222 
L 468.561636 366.539984 
L 469.576182 204.131957 
L 470.590727 232.396089 
L 471.605273 377.469922 
L 472.619818 347.053736 
L 473.634364 382.273701 
L 474.648909 323.638434 
L 475.663455 366.45488 
L 476.678 215.197595 
L 477.692545 182.941576 
L 478.707091 366.024999 
L 479.721636 376.202363 
L 480.736182 357.646932 
L 481.750727 364.295818 
L 482.765273 361.073041 
L 483.779818 162.811117 
L 484.794364 208.169207 
L 485.808909 366.56301 
L 486.823455 344.311504 
L 487.838 382.514298 
L 488.852545 383.759596 
L 489.867091 381.508354 
L 490.881636 259.575224 
L 491.896182 204.025953 
L 492.910727 375.048097 
L 493.925273 358.82612 
L 494.939818 367.481227 
L 495.954364 361.582289 
L 496.968909 364.360573 
L 497.983455 250.49294 
L 498.998 236.548528 
L 500.012545 335.761635 
L 501.027091 372.930986 
L 502.041636 374.248881 
L 503.056182 363.098907 
L 504.070727 372.938474 
L 505.085273 218.143415 
L 506.099818 216.285499 
L 507.114364 347.617332 
L 508.128909 377.246229 
L 509.143455 365.646732 
L 510.158 379.460686 
L 511.172545 364.727123 
L 512.187091 217.904451 
L 513.201636 224.021167 
L 514.216182 365.283127 
L 515.230727 356.687873 
L 516.245273 370.166118 
L 517.259818 372.545806 
L 518.274364 369.924216 
L 519.288909 242.95759 
L 520.303455 222.673037 
L 521.318 339.041801 
L 522.332545 354.156707 
L 523.347091 384.626484 
L 524.361636 354.139961 
L 525.376182 382.205628 
L 526.390727 227.063771 
L 527.405273 203.477736 
L 528.419818 382.332533 
L 529.434364 378.960822 
L 530.448909 345.073463 
L 531.463455 358.700743 
L 532.478 385.068583 
L 533.492545 227.170402 
L 534.507091 247.840402 
L 535.521636 380.870045 
L 536.536182 352.575258 
L 537.550727 388.721341 
L 538.565273 382.148907 
L 539.579818 376.321937 
L 540.594364 249.812662 
L 541.608909 249.410504 
L 542.623455 370.734661 
L 543.638 369.370747 
L 544.652545 326.370137 
L 545.667091 379.663829 
L 546.681636 381.481895 
L 547.696182 222.727312 
L 548.710727 253.149665 
L 549.725273 354.938204 
L 550.739818 370.502103 
L 551.754364 365.981317 
L 552.768909 352.978652 
L 553.783455 372.604102 
L 554.798 205.187154 
L 555.812545 224.180812 
L 556.827091 370.314662 
L 557.841636 383.42153 
L 558.856182 385.499905 
L 559.870727 380.531336 
L 560.885273 345.402407 
L 561.899818 258.240534 
L 562.914364 275.362078 
L 563.928909 376.650784 
L 564.943455 366.789606 
L 565.958 372.234406 
L 566.972545 374.264948 
L 567.987091 379.115981 
L 569.001636 254.417185 
L 570.016182 289.588193 
L 571.030727 371.450086 
L 572.045273 374.873732 
L 573.059818 357.900411 
L 574.074364 366.829968 
L 575.088909 351.1687 
L 576.103455 223.718497 
L 577.118 174.565869 
L 578.132545 373.08473 
L 579.147091 378.896231 
L 580.161636 371.866236 
L 581.176182 356.44364 
L 582.190727 374.728013 
L 583.205273 246.229029 
L 584.219818 242.571135 
L 585.234364 376.44851 
L 586.248909 372.398953 
L 587.263455 375.501419 
L 588.278 374.302942 
L 589.292545 353.298103 
L 590.307091 238.226305 
L 591.321636 218.429405 
L 592.336182 367.039523 
L 593.350727 373.73894 
L 594.365273 357.706379 
L 595.379818 370.907714 
L 596.394364 378.783681 
L 597.408909 167.228694 
L 598.423455 190.746292 
L 599.438 377.517434 
L 600.452545 372.416031 
L 601.467091 365.637065 
L 603.496182 382.228553 
L 604.510727 211.077771 
L 605.525273 198.413888 
L 606.539818 369.540273 
L 607.554364 377.022465 
L 608.568909 356.753656 
L 609.583455 373.001739 
L 610.598 380.279024 
L 611.612545 240.240667 
L 612.627091 214.29555 
L 613.641636 364.701915 
L 614.656182 347.907067 
L 615.670727 305.447893 
L 616.685273 378.213328 
L 617.699818 371.82721 
L 618.714364 211.420861 
L 619.728909 194.227167 
L 620.743455 383.171043 
L 621.758 377.684756 
L 622.772545 380.316367 
L 623.787091 351.541084 
L 624.801636 371.192205 
L 626.830727 131.667182 
L 627.845273 348.295332 
L 628.859818 376.957508 
L 629.874364 374.949523 
L 630.888909 385.952162 
L 631.903455 365.856625 
L 632.918 250.251542 
L 633.932545 179.318397 
L 634.947091 371.595419 
L 635.961636 374.904244 
L 636.976182 372.922072 
L 637.990727 371.483681 
L 639.005273 381.109148 
L 640.019818 250.575777 
L 641.034364 254.8168 
L 642.048909 367.098482 
L 643.063455 367.877174 
L 644.078 371.541016 
L 645.092545 347.181996 
L 646.107091 372.388258 
L 647.121636 207.395285 
L 648.136182 215.403865 
L 649.150727 374.122896 
L 650.165273 373.283209 
L 651.179818 353.559386 
L 652.194364 369.671935 
L 653.208909 359.46203 
L 654.223455 186.18935 
L 655.238 181.23451 
L 656.252545 368.835263 
L 657.267091 350.270937 
L 658.281636 343.312737 
L 659.296182 358.037245 
L 660.310727 368.294879 
L 661.325273 204.805896 
L 662.339818 223.757616 
L 663.354364 361.899931 
L 664.368909 355.186053 
L 665.383455 377.896316 
L 666.398 386.870001 
L 667.412545 376.561394 
L 668.427091 267.274212 
L 669.441636 245.563396 
L 670.456182 368.472646 
L 671.470727 374.468026 
L 672.485273 367.735187 
L 673.499818 363.807296 
L 674.514364 370.285798 
L 675.528909 227.469303 
L 676.543455 227.875541 
L 677.558 363.350857 
L 678.572545 348.834055 
L 679.587091 365.443955 
L 680.601636 363.235968 
L 681.616182 372.749948 
L 682.630727 171.35439 
L 683.645273 189.768755 
L 684.659818 375.536129 
L 685.674364 374.859496 
L 686.688909 374.000291 
L 687.703455 361.321766 
L 688.718 368.880273 
L 689.732545 236.578504 
L 690.747091 237.784485 
L 691.761636 383.473202 
L 692.776182 373.20514 
L 693.790727 354.256734 
L 694.805273 379.211499 
L 695.819818 371.167333 
L 696.834364 209.235947 
L 697.848909 210.907181 
L 698.863455 378.156486 
L 699.878 382.012834 
L 700.892545 378.567778 
L 701.907091 379.253345 
L 702.921636 374.481133 
L 703.936182 234.70326 
L 704.950727 233.000434 
L 705.965273 368.276782 
L 706.979818 349.694286 
L 707.994364 374.456468 
L 709.008909 382.334387 
L 710.023455 373.424418 
L 711.038 237.85982 
L 712.052545 239.41772 
L 713.067091 362.398517 
L 714.081636 382.487224 
L 715.096182 364.155256 
L 716.110727 371.175023 
L 717.125273 371.863857 
L 718.139818 255.996953 
L 719.154364 201.143174 
L 720.168909 377.942511 
L 721.183455 357.022696 
L 722.198 377.823695 
L 723.212545 357.566491 
L 724.227091 386.329372 
L 725.241636 233.327228 
L 726.256182 242.831873 
L 727.270727 374.267067 
L 728.285273 368.01453 
L 729.299818 378.294106 
L 730.314364 381.36651 
L 731.328909 360.88798 
L 732.343455 189.401942 
L 733.358 250.294285 
L 734.372545 380.729678 
L 735.387091 367.683055 
L 736.401636 372.18458 
L 737.416182 384.965705 
L 738.430727 378.581577 
L 739.445273 239.737909 
L 740.459818 203.813031 
L 741.474364 368.38488 
L 742.488909 388.728551 
L 743.503455 358.864054 
L 744.518 375.115794 
L 745.532545 379.77884 
L 746.547091 202.610072 
L 747.561636 245.261464 
L 748.576182 382.940081 
L 749.590727 371.416029 
L 750.605273 368.033034 
L 751.619818 390.757978 
L 752.634364 365.248873 
L 753.648909 248.253575 
L 754.663455 254.072997 
L 755.678 379.777653 
L 756.692545 377.718105 
L 757.707091 371.600331 
L 758.721636 370.097624 
L 759.736182 369.692964 
L 760.750727 256.976394 
L 761.765273 229.063749 
L 762.779818 371.859544 
L 763.794364 379.605597 
L 764.808909 382.570161 
L 765.823455 379.522988 
L 766.838 382.085634 
L 767.852545 247.825251 
L 768.867091 210.41568 
L 769.881636 349.132508 
L 770.896182 348.089232 
L 771.910727 370.623741 
L 772.925273 367.936817 
L 773.939818 362.503515 
L 774.954364 240.956624 
L 775.968909 192.265862 
L 776.983455 367.346046 
L 777.998 376.00668 
L 779.012545 372.482397 
L 780.027091 380.971743 
L 781.041636 382.785215 
L 782.056182 217.42757 
L 783.070727 250.398982 
L 784.085273 378.834119 
L 785.099818 371.222354 
L 786.114364 371.105429 
L 787.128909 384.774145 
L 788.143455 368.174656 
L 789.158 214.630739 
L 790.172545 217.287306 
L 791.187091 374.266684 
L 792.201636 354.836657 
L 793.216182 383.660644 
L 794.230727 380.127357 
L 795.245273 341.449569 
L 796.259818 184.812194 
L 797.274364 245.114861 
L 798.288909 386.473122 
L 799.303455 366.824017 
L 800.318 357.325024 
L 801.332545 343.614562 
L 802.347091 377.683573 
L 803.361636 151.008575 
L 804.376182 243.953968 
L 805.390727 390.130834 
L 806.405273 362.648346 
L 807.419818 374.399858 
L 808.434364 389.894722 
L 809.448909 369.38162 
L 810.463455 241.362785 
L 811.478 273.863734 
L 812.492545 363.939827 
L 813.507091 381.121015 
L 814.521636 330.627144 
L 815.536182 373.82204 
L 816.550727 369.668166 
L 817.565273 219.29069 
L 818.579818 246.650222 
L 819.594364 384.572403 
L 820.608909 390.006937 
L 821.623455 380.489815 
L 822.638 378.462375 
L 823.652545 379.371496 
L 824.667091 229.848892 
L 825.681636 249.143057 
L 826.696182 357.939563 
L 827.710727 371.986528 
L 828.725273 371.475116 
L 829.739818 363.273047 
L 830.754364 366.801843 
L 831.768909 233.628238 
L 832.783455 196.824394 
L 833.798 357.02123 
L 834.812545 368.133909 
L 835.827091 375.291955 
L 836.841636 363.742403 
L 837.856182 381.529731 
L 838.870727 220.206266 
L 839.885273 229.021006 
L 840.899818 369.720063 
L 841.914364 370.046959 
L 842.928909 367.305214 
L 843.943455 367.798541 
L 844.958 347.948557 
L 845.972545 203.694474 
L 846.987091 210.340105 
L 848.001636 377.552917 
L 849.016182 379.658143 
L 850.030727 357.866193 
L 851.045273 365.468614 
L 852.059818 368.883526 
L 853.074364 249.425695 
L 854.088909 185.434337 
L 855.103455 349.90719 
L 856.118 374.012987 
L 857.132545 380.430877 
L 858.147091 374.430251 
L 859.161636 371.040175 
L 860.176182 247.766201 
L 861.190727 239.701229 
L 862.205273 353.222611 
L 863.219818 369.009864 
L 864.234364 376.30998 
L 865.248909 376.597553 
L 866.263455 378.80271 
L 867.278 209.600764 
L 868.292545 242.826732 
L 869.307091 370.255239 
L 870.321636 379.541219 
L 871.336182 372.018479 
L 872.350727 382.086528 
L 873.365273 382.546084 
L 874.379818 223.119172 
L 875.394364 283.923871 
L 876.408909 381.106575 
L 877.423455 368.888369 
L 878.438 380.523834 
L 879.452545 374.352682 
L 880.467091 360.307274 
L 881.481636 233.08968 
L 882.496182 226.181443 
L 883.510727 382.87088 
L 884.525273 364.838131 
L 885.539818 383.41899 
L 886.554364 377.174168 
L 887.568909 375.133864 
L 888.583455 223.629842 
L 889.598 228.38314 
L 890.612545 351.062014 
L 891.627091 365.54748 
L 892.641636 365.60635 
L 893.656182 377.492895 
L 894.670727 337.599913 
L 895.685273 188.336582 
L 896.699818 231.721417 
L 897.714364 340.08024 
L 898.728909 310.944227 
L 899.743455 321.696976 
L 900.758 373.571864 
L 901.772545 363.475082 
L 902.787091 222.538321 
L 903.801636 212.652601 
L 904.816182 369.101756 
L 905.830727 345.367478 
L 906.845273 378.374518 
L 907.859818 344.682475 
L 908.874364 363.848479 
L 909.888909 235.330439 
L 910.903455 196.813878 
L 911.918 378.44424 
L 912.932545 372.600943 
L 913.947091 378.084912 
L 914.961636 382.830131 
L 915.976182 376.894241 
L 916.990727 196.195047 
L 918.005273 292.705676 
L 919.019818 362.42496 
L 920.034364 351.319333 
L 921.048909 355.88872 
L 922.063455 382.561102 
L 923.078 372.108583 
L 924.092545 222.717705 
L 925.107091 228.601259 
L 926.121636 373.175062 
L 927.136182 377.383867 
L 928.150727 370.024518 
L 929.165273 380.100223 
L 930.179818 358.38178 
L 931.194364 242.519186 
L 932.208909 216.097814 
L 933.223455 366.37073 
L 934.238 343.618746 
L 935.252545 364.721337 
L 936.267091 366.698795 
L 937.281636 375.166671 
L 938.296182 226.937428 
L 939.310727 196.909903 
L 940.325273 372.805254 
L 941.339818 366.811922 
L 942.354364 378.216421 
L 943.368909 355.440412 
L 944.383455 385.982345 
L 945.398 190.485989 
L 946.412545 237.456034 
L 947.427091 370.159384 
L 948.441636 380.191522 
L 949.456182 378.074329 
L 950.470727 332.720432 
L 951.485273 372.764123 
L 952.499818 176.462036 
L 953.514364 245.344791 
L 954.528909 362.027225 
L 955.543455 378.552601 
L 956.558 378.090719 
L 957.572545 373.545766 
L 958.587091 377.426768 
L 959.601636 259.995214 
L 960.616182 177.126204 
L 961.630727 329.086617 
L 962.645273 385.039338 
L 963.659818 358.058428 
L 964.674364 359.80441 
L 965.688909 360.971563 
L 966.703455 207.515115 
L 967.718 234.160193 
L 968.732545 376.641472 
L 969.747091 370.998078 
L 970.761636 336.237815 
L 971.776182 380.446925 
L 972.790727 377.792917 
L 973.805273 238.124064 
L 974.819818 211.183585 
L 975.834364 359.358034 
L 976.848909 384.167381 
L 977.863455 362.004348 
L 978.878 362.684893 
L 979.892545 368.506153 
L 980.907091 199.60522 
L 981.921636 258.833412 
L 982.936182 382.259249 
L 984.965273 334.864858 
L 985.979818 373.843388 
L 986.994364 382.735332 
L 988.008909 194.226095 
L 990.038 359.411382 
L 991.052545 366.006637 
L 992.067091 361.267015 
L 993.081636 372.712414 
L 994.096182 348.443367 
L 995.110727 257.426389 
L 996.125273 189.797005 
L 997.139818 375.353754 
L 998.154364 377.472466 
L 999.168909 365.876618 
L 1000.183455 372.717576 
L 1001.198 383.709842 
L 1002.212545 298.514225 
L 1003.227091 294.612672 
L 1004.241636 381.183409 
L 1005.256182 392.89803 
L 1006.270727 372.58736 
L 1007.285273 368.975184 
L 1008.299818 373.762802 
L 1009.314364 221.337973 
L 1010.328909 245.225006 
L 1011.343455 374.91218 
L 1012.358 383.663677 
L 1013.372545 390.854477 
L 1014.387091 383.494466 
L 1015.401636 386.601203 
L 1016.416182 238.958413 
L 1017.430727 180.43642 
L 1018.445273 372.162503 
L 1019.459818 379.825471 
L 1020.474364 384.736439 
L 1021.488909 348.729188 
L 1022.503455 381.782031 
L 1023.518 250.589863 
L 1024.532545 213.650994 
L 1025.547091 380.574862 
L 1026.561636 375.474493 
L 1027.576182 363.500061 
L 1028.590727 380.309147 
L 1029.605273 351.98247 
L 1030.619818 253.733982 
L 1031.634364 195.564262 
L 1032.648909 355.193497 
L 1033.663455 362.205074 
L 1034.678 370.719997 
L 1035.692545 362.933223 
L 1036.707091 369.992615 
L 1037.721636 219.459653 
L 1038.736182 238.849646 
L 1039.750727 323.040744 
L 1040.765273 373.164031 
L 1041.779818 355.964002 
L 1042.794364 377.190112 
L 1043.808909 350.941757 
L 1044.823455 228.86373 
L 1045.838 261.048054 
L 1046.852545 376.699035 
L 1047.867091 367.695583 
L 1048.881636 364.764767 
L 1049.896182 374.357854 
L 1050.910727 380.660338 
L 1051.925273 249.376106 
L 1052.939818 224.188002 
L 1053.954364 335.852453 
L 1054.968909 336.738872 
L 1055.983455 378.167837 
L 1056.998 352.107745 
L 1058.012545 379.420164 
L 1059.027091 248.549383 
L 1060.041636 188.792648 
L 1061.056182 368.433971 
L 1062.070727 375.956192 
L 1063.085273 364.933495 
L 1064.099818 379.044682 
L 1065.114364 379.119494 
L 1066.128909 236.489728 
L 1067.143455 219.29287 
L 1068.158 379.728393 
L 1069.172545 382.290036 
L 1070.187091 360.259178 
L 1071.201636 385.59176 
L 1072.216182 348.536235 
L 1073.230727 234.513674 
L 1074.245273 229.048261 
L 1075.259818 366.111315 
L 1076.274364 372.747402 
L 1077.288909 361.20063 
L 1078.303455 346.681192 
L 1079.318 371.287317 
L 1080.332545 219.187236 
L 1081.347091 252.115553 
L 1082.361636 376.709139 
L 1083.376182 382.529535 
L 1085.405273 366.054672 
L 1086.419818 377.694709 
L 1087.434364 210.868114 
L 1088.448909 214.267806 
L 1089.463455 377.679688 
L 1090.478 377.104733 
L 1091.492545 378.474553 
L 1092.507091 378.588881 
L 1093.521636 375.813495 
L 1094.536182 218.10763 
L 1095.550727 230.457682 
L 1096.565273 350.985079 
L 1097.579818 359.320769 
L 1098.594364 357.295768 
L 1099.608909 343.832781 
L 1100.623455 358.79031 
L 1101.638 198.712539 
L 1102.652545 212.434476 
L 1103.667091 358.287164 
L 1104.681636 366.106331 
L 1105.696182 372.56045 
L 1106.710727 365.58448 
L 1107.725273 339.811821 
L 1108.739818 245.618631 
L 1109.754364 245.899218 
L 1110.768909 362.114369 
L 1111.783455 368.327692 
L 1112.798 351.738384 
L 1113.812545 323.562504 
L 1114.827091 359.245382 
L 1115.841636 149.623471 
L 1116.856182 252.613038 
L 1117.870727 372.729772 
L 1118.885273 356.217306 
L 1119.899818 381.950212 
L 1120.914364 365.546398 
L 1121.928909 372.986612 
L 1122.943455 255.053533 
L 1123.958 158.275825 
L 1124.972545 353.60433 
L 1125.987091 366.287746 
L 1127.001636 382.053689 
L 1128.016182 371.534935 
L 1129.030727 376.60425 
L 1130.045273 243.58501 
L 1131.059818 191.44014 
L 1132.074364 381.562273 
L 1133.088909 369.988767 
L 1134.103455 386.055322 
L 1135.118 382.879245 
L 1136.132545 381.27702 
L 1137.147091 231.679571 
L 1138.161636 250.640158 
L 1139.176182 365.332879 
L 1140.190727 369.384139 
L 1141.205273 382.878618 
L 1142.219818 365.234275 
L 1143.234364 374.059187 
L 1144.248909 239.895684 
L 1145.263455 245.731602 
L 1146.278 371.945247 
L 1147.292545 332.458533 
L 1148.307091 381.788549 
L 1149.321636 381.392418 
L 1150.336182 386.560465 
L 1151.350727 240.971736 
L 1152.365273 227.524637 
L 1153.379818 376.467755 
L 1154.394364 367.741651 
L 1155.408909 368.832545 
L 1156.423455 377.209836 
L 1157.438 366.507771 
L 1158.452545 238.386822 
L 1159.467091 228.971474 
L 1160.481636 373.047487 
L 1161.496182 368.907545 
L 1162.510727 374.915384 
L 1163.525273 371.768294 
L 1164.539818 377.279315 
L 1165.554364 220.36836 
L 1166.568909 246.941933 
L 1167.583455 368.01658 
L 1168.598 373.326605 
L 1169.612545 384.598949 
L 1170.627091 350.822429 
L 1171.641636 375.838693 
L 1172.656182 229.487927 
L 1173.670727 227.742494 
L 1174.685273 350.110684 
L 1175.699818 352.469832 
L 1176.714364 386.153375 
L 1177.728909 372.413347 
L 1178.743455 369.55123 
L 1179.758 51.785443 
L 1180.772545 230.22678 
L 1181.787091 377.768896 
L 1182.801636 357.734401 
L 1183.816182 366.939596 
L 1184.830727 352.977691 
L 1185.845273 384.58661 
L 1186.859818 249.586724 
L 1187.874364 247.841846 
L 1188.888909 329.959362 
L 1189.903455 371.027463 
L 1190.918 368.253798 
L 1191.932545 356.374316 
L 1192.947091 365.112807 
L 1193.961636 194.979396 
L 1194.976182 184.508333 
L 1195.990727 364.574247 
L 1197.005273 334.041657 
L 1198.019818 360.563145 
L 1199.034364 377.084385 
L 1200.048909 378.903344 
L 1201.063455 180.684066 
L 1202.078 231.315639 
L 1203.092545 370.945259 
L 1204.107091 367.719984 
L 1205.121636 386.414567 
L 1206.136182 374.495973 
L 1207.150727 367.754679 
L 1208.165273 207.717898 
L 1209.179818 237.494769 
L 1210.194364 352.55392 
L 1211.208909 378.562547 
L 1212.223455 374.748862 
L 1213.238 365.620571 
L 1214.252545 361.431974 
L 1215.267091 234.251315 
L 1216.281636 235.40936 
L 1217.296182 361.716469 
L 1218.310727 370.148133 
L 1219.325273 364.018891 
L 1220.339818 355.501428 
L 1221.354364 341.319647 
L 1222.368909 254.216846 
L 1223.383455 232.350491 
L 1224.398 365.49827 
L 1225.412545 364.04464 
L 1226.427091 348.79452 
L 1227.441636 367.511885 
L 1228.456182 368.545383 
L 1229.470727 213.947065 
L 1230.485273 249.772236 
L 1231.499818 368.036181 
L 1232.514364 376.545218 
L 1233.528909 378.390647 
L 1234.543455 371.04949 
L 1235.558 374.829882 
L 1236.572545 208.188862 
L 1237.587091 263.734306 
L 1238.601636 386.336741 
L 1239.616182 352.192725 
L 1240.630727 374.949085 
L 1241.645273 387.274931 
L 1242.659818 362.55175 
L 1243.674364 199.37883 
L 1244.688909 245.795219 
L 1245.703455 375.719443 
L 1246.718 383.858106 
L 1247.732545 365.972822 
L 1248.747091 385.472204 
L 1249.761636 382.52522 
L 1250.776182 240.709622 
L 1251.790727 244.376858 
L 1252.805273 367.771603 
L 1253.819818 375.150436 
L 1254.834364 357.863594 
L 1255.848909 381.576478 
L 1256.863455 375.626376 
L 1257.878 209.739826 
L 1258.892545 243.609072 
L 1259.907091 344.728168 
L 1260.921636 308.228301 
L 1261.936182 359.205677 
L 1262.950727 374.486421 
L 1263.965273 380.071997 
L 1264.979818 214.996331 
L 1265.994364 184.986038 
L 1267.008909 376.270848 
L 1268.023455 376.54432 
L 1269.038 366.530802 
L 1270.052545 376.478948 
L 1271.067091 375.756044 
L 1272.081636 234.343844 
L 1273.096182 201.593145 
L 1274.110727 325.301257 
L 1275.125273 377.051463 
L 1276.139818 353.765781 
L 1277.154364 381.177048 
L 1278.168909 382.993595 
L 1279.183455 218.590064 
L 1280.198 252.349715 
L 1281.212545 379.061063 
L 1282.227091 363.813266 
L 1283.241636 385.707836 
L 1284.256182 357.091451 
L 1285.270727 379.044929 
L 1286.285273 203.518659 
L 1287.299818 235.240213 
L 1288.314364 370.25918 
L 1289.328909 369.79017 
L 1290.343455 370.864429 
L 1292.372545 373.191802 
L 1293.387091 240.436598 
L 1294.401636 227.641409 
L 1295.416182 372.354295 
L 1296.430727 377.840444 
L 1297.445273 373.662414 
L 1298.459818 365.801863 
L 1299.474364 369.074486 
L 1300.488909 243.657692 
L 1301.503455 218.853687 
L 1302.518 381.82992 
L 1303.532545 354.482333 
L 1304.547091 342.43077 
L 1305.561636 351.210413 
L 1306.576182 363.653591 
L 1307.590727 205.481387 
L 1308.605273 233.689877 
L 1309.619818 353.767526 
L 1310.634364 375.339476 
L 1311.648909 372.561345 
L 1312.663455 353.780048 
L 1313.678 377.519256 
L 1314.692545 194.249986 
L 1315.707091 252.601696 
L 1316.721636 361.99568 
L 1317.736182 369.56958 
L 1318.750727 362.997224 
L 1319.765273 375.572508 
L 1320.779818 384.725643 
L 1321.794364 218.718658 
L 1322.808909 175.130906 
L 1323.823455 362.624125 
L 1324.838 382.274634 
L 1325.852545 371.23133 
L 1326.867091 380.88904 
L 1327.881636 359.179631 
L 1328.896182 184.50363 
L 1329.910727 216.80272 
L 1330.925273 358.809528 
L 1331.939818 377.969179 
L 1332.954364 360.076027 
L 1333.968909 372.395733 
L 1334.983455 387.101503 
L 1335.998 194.330175 
L 1337.012545 242.421524 
L 1338.027091 372.660221 
L 1339.041636 372.21283 
L 1340.056182 378.089396 
L 1341.070727 387.592316 
L 1342.085273 374.289099 
L 1343.099818 259.189881 
L 1344.114364 215.669723 
L 1345.128909 355.025218 
L 1346.143455 388.232865 
L 1347.158 379.922068 
L 1348.172545 363.990326 
L 1349.187091 382.089654 
L 1350.201636 217.244921 
L 1351.216182 253.359151 
L 1352.230727 376.57486 
L 1353.245273 373.654795 
L 1354.259818 381.084836 
L 1355.274364 336.4105 
L 1356.288909 370.386925 
L 1357.303455 168.46542 
L 1358.318 208.050515 
L 1359.332545 389.347253 
L 1360.347091 369.89689 
L 1361.361636 332.078731 
L 1362.376182 357.679777 
L 1363.390727 371.106481 
L 1364.405273 249.494614 
L 1365.419818 242.703421 
L 1366.434364 382.485438 
L 1367.448909 354.295833 
L 1368.463455 377.4618 
L 1369.478 376.963308 
L 1370.492545 365.375841 
L 1371.507091 228.175185 
L 1372.521636 240.634147 
L 1373.536182 385.547465 
L 1374.550727 381.067171 
L 1375.565273 375.866382 
L 1376.579818 358.466519 
L 1377.594364 374.77935 
L 1378.608909 243.276452 
L 1379.623455 223.954931 
L 1380.638 381.52211 
L 1381.652545 360.671146 
L 1382.667091 386.614504 
L 1383.681636 373.136102 
L 1384.696182 391.766509 
L 1385.710727 256.119392 
L 1386.725273 196.263239 
L 1387.739818 362.000903 
L 1388.754364 386.852096 
L 1389.768909 366.874544 
L 1390.783455 383.406077 
L 1391.798 378.115467 
L 1392.812545 256.725481 
L 1393.827091 225.442219 
L 1394.841636 387.981268 
L 1395.856182 378.68539 
L 1396.870727 367.186292 
L 1397.885273 368.583808 
L 1398.899818 368.70996 
L 1399.914364 224.940642 
L 1400.928909 245.369099 
L 1401.943455 336.313198 
L 1402.958 379.118641 
L 1403.972545 379.329076 
L 1404.987091 381.44563 
L 1406.001636 365.1185 
L 1407.016182 242.459291 
L 1408.030727 213.469186 
L 1409.045273 355.933681 
L 1410.059818 378.533324 
L 1411.074364 362.068112 
L 1412.088909 374.628536 
L 1413.103455 380.539206 
L 1414.118 228.90723 
L 1415.132545 214.637273 
L 1416.147091 386.240102 
L 1417.161636 365.774313 
L 1418.176182 379.81241 
L 1419.190727 366.654705 
L 1420.205273 390.767313 
L 1421.219818 227.525537 
L 1422.234364 219.366146 
L 1423.248909 363.948441 
L 1424.263455 377.781685 
L 1425.278 360.525104 
L 1426.292545 367.77635 
L 1427.307091 376.586124 
L 1428.321636 197.091511 
L 1429.336182 257.731473 
L 1430.350727 380.627702 
L 1431.365273 374.036695 
L 1432.379818 381.127152 
L 1433.394364 348.767372 
L 1434.408909 369.265742 
L 1434.408909 369.265742 
" style="fill:none;stroke:#1f77b4;stroke-linecap:square;stroke-width:1.5;"/>
   </g>
   <g id="patch_3">
    <path d="M 102.818 452.717813 
L 102.818 17.837813 
" style="fill:none;stroke:#000000;stroke-linecap:square;stroke-linejoin:miter;stroke-width:0.8;"/>
   </g>
   <g id="patch_4">
    <path d="M 1497.818 452.717813 
L 1497.818 17.837813 
" style="fill:none;stroke:#000000;stroke-linecap:square;stroke-linejoin:miter;stroke-width:0.8;"/>
   </g>
   <g id="patch_5">
    <path d="M 102.818 452.717812 
L 1497.818 452.717812 
" style="fill:none;stroke:#000000;stroke-linecap:square;stroke-linejoin:miter;stroke-width:0.8;"/>
   </g>
   <g id="patch_6">
    <path d="M 102.818 17.837812 
L 1497.818 17.837812 
" style="fill:none;stroke:#000000;stroke-linecap:square;stroke-linejoin:miter;stroke-width:0.8;"/>
   </g>
  </g>
 </g>
 <defs>
  <clipPath id="pa57bf95406">
   <rect height="434.88" width="1395" x="102.818" y="17.837812"/>
  </clipPath>
 </defs>
</svg>
