<?xml version="1.0" encoding="utf-8" standalone="no"?>
<!DOCTYPE svg PUBLIC "-//W3C//DTD SVG 1.1//EN"
  "http://www.w3.org/Graphics/SVG/1.1/DTD/svg11.dtd">
<svg height="409.62875pt" version="1.1" viewBox="0 0 810.578125 409.62875" width="810.578125pt" xmlns="http://www.w3.org/2000/svg" xmlns:xlink="http://www.w3.org/1999/xlink">
 <metadata>
  <rdf:RDF xmlns:cc="http://creativecommons.org/ns#" xmlns:dc="http://purl.org/dc/elements/1.1/" xmlns:rdf="http://www.w3.org/1999/02/22-rdf-syntax-ns#">
   <cc:Work>
    <dc:type rdf:resource="http://purl.org/dc/dcmitype/StillImage"/>
    <dc:date>2022-01-02T15:29:15.785366</dc:date>
    <dc:format>image/svg+xml</dc:format>
    <dc:creator>
     <cc:Agent>
      <dc:title>Matplotlib v3.4.1, https://matplotlib.org/</dc:title>
     </cc:Agent>
    </dc:creator>
   </cc:Work>
  </rdf:RDF>
 </metadata>
 <defs>
  <style type="text/css">*{stroke-linecap:butt;stroke-linejoin:round;}</style>
 </defs>
 <g id="figure_1">
  <g id="patch_1">
   <path d="M 0 409.62875 
L 810.578125 409.62875 
L 810.578125 0 
L 0 0 
z
" style="fill:none;"/>
  </g>
  <g id="axes_1">
   <g id="patch_2">
    <path d="M 111.51375 333.36 
L 781.11375 333.36 
L 781.11375 7.2 
L 111.51375 7.2 
z
" style="fill:#ffffff;"/>
   </g>
   <g id="matplotlib.axis_1">
    <g id="xtick_1">
     <g id="line2d_1">
      <defs>
       <path d="M 0 0 
L 0 3.5 
" id="ma0ee5347f4" style="stroke:#000000;stroke-width:0.8;"/>
      </defs>
      <g>
       <use style="stroke:#000000;stroke-width:0.8;" x="172.386477" xlink:href="#ma0ee5347f4" y="333.36"/>
      </g>
     </g>
     <g id="text_1">
      <!-- 0.0 -->
      <g transform="translate(150.122102 361.635625)scale(0.28 -0.28)">
       <defs>
        <path d="M 2034 4250 
Q 1547 4250 1301 3770 
Q 1056 3291 1056 2328 
Q 1056 1369 1301 889 
Q 1547 409 2034 409 
Q 2525 409 2770 889 
Q 3016 1369 3016 2328 
Q 3016 3291 2770 3770 
Q 2525 4250 2034 4250 
z
M 2034 4750 
Q 2819 4750 3233 4129 
Q 3647 3509 3647 2328 
Q 3647 1150 3233 529 
Q 2819 -91 2034 -91 
Q 1250 -91 836 529 
Q 422 1150 422 2328 
Q 422 3509 836 4129 
Q 1250 4750 2034 4750 
z
" id="DejaVuSans-30" transform="scale(0.015625)"/>
        <path d="M 684 794 
L 1344 794 
L 1344 0 
L 684 0 
L 684 794 
z
" id="DejaVuSans-2e" transform="scale(0.015625)"/>
       </defs>
       <use xlink:href="#DejaVuSans-30"/>
       <use x="63.623047" xlink:href="#DejaVuSans-2e"/>
       <use x="95.410156" xlink:href="#DejaVuSans-30"/>
      </g>
     </g>
    </g>
    <g id="xtick_2">
     <g id="line2d_2">
      <g>
       <use style="stroke:#000000;stroke-width:0.8;" x="294.131932" xlink:href="#ma0ee5347f4" y="333.36"/>
      </g>
     </g>
     <g id="text_2">
      <!-- 0.2 -->
      <g transform="translate(271.867557 361.635625)scale(0.28 -0.28)">
       <defs>
        <path d="M 1228 531 
L 3431 531 
L 3431 0 
L 469 0 
L 469 531 
Q 828 903 1448 1529 
Q 2069 2156 2228 2338 
Q 2531 2678 2651 2914 
Q 2772 3150 2772 3378 
Q 2772 3750 2511 3984 
Q 2250 4219 1831 4219 
Q 1534 4219 1204 4116 
Q 875 4013 500 3803 
L 500 4441 
Q 881 4594 1212 4672 
Q 1544 4750 1819 4750 
Q 2544 4750 2975 4387 
Q 3406 4025 3406 3419 
Q 3406 3131 3298 2873 
Q 3191 2616 2906 2266 
Q 2828 2175 2409 1742 
Q 1991 1309 1228 531 
z
" id="DejaVuSans-32" transform="scale(0.015625)"/>
       </defs>
       <use xlink:href="#DejaVuSans-30"/>
       <use x="63.623047" xlink:href="#DejaVuSans-2e"/>
       <use x="95.410156" xlink:href="#DejaVuSans-32"/>
      </g>
     </g>
    </g>
    <g id="xtick_3">
     <g id="line2d_3">
      <g>
       <use style="stroke:#000000;stroke-width:0.8;" x="415.877386" xlink:href="#ma0ee5347f4" y="333.36"/>
      </g>
     </g>
     <g id="text_3">
      <!-- 0.4 -->
      <g transform="translate(393.613011 361.635625)scale(0.28 -0.28)">
       <defs>
        <path d="M 2419 4116 
L 825 1625 
L 2419 1625 
L 2419 4116 
z
M 2253 4666 
L 3047 4666 
L 3047 1625 
L 3713 1625 
L 3713 1100 
L 3047 1100 
L 3047 0 
L 2419 0 
L 2419 1100 
L 313 1100 
L 313 1709 
L 2253 4666 
z
" id="DejaVuSans-34" transform="scale(0.015625)"/>
       </defs>
       <use xlink:href="#DejaVuSans-30"/>
       <use x="63.623047" xlink:href="#DejaVuSans-2e"/>
       <use x="95.410156" xlink:href="#DejaVuSans-34"/>
      </g>
     </g>
    </g>
    <g id="xtick_4">
     <g id="line2d_4">
      <g>
       <use style="stroke:#000000;stroke-width:0.8;" x="537.622841" xlink:href="#ma0ee5347f4" y="333.36"/>
      </g>
     </g>
     <g id="text_4">
      <!-- 0.6 -->
      <g transform="translate(515.358466 361.635625)scale(0.28 -0.28)">
       <defs>
        <path d="M 2113 2584 
Q 1688 2584 1439 2293 
Q 1191 2003 1191 1497 
Q 1191 994 1439 701 
Q 1688 409 2113 409 
Q 2538 409 2786 701 
Q 3034 994 3034 1497 
Q 3034 2003 2786 2293 
Q 2538 2584 2113 2584 
z
M 3366 4563 
L 3366 3988 
Q 3128 4100 2886 4159 
Q 2644 4219 2406 4219 
Q 1781 4219 1451 3797 
Q 1122 3375 1075 2522 
Q 1259 2794 1537 2939 
Q 1816 3084 2150 3084 
Q 2853 3084 3261 2657 
Q 3669 2231 3669 1497 
Q 3669 778 3244 343 
Q 2819 -91 2113 -91 
Q 1303 -91 875 529 
Q 447 1150 447 2328 
Q 447 3434 972 4092 
Q 1497 4750 2381 4750 
Q 2619 4750 2861 4703 
Q 3103 4656 3366 4563 
z
" id="DejaVuSans-36" transform="scale(0.015625)"/>
       </defs>
       <use xlink:href="#DejaVuSans-30"/>
       <use x="63.623047" xlink:href="#DejaVuSans-2e"/>
       <use x="95.410156" xlink:href="#DejaVuSans-36"/>
      </g>
     </g>
    </g>
    <g id="xtick_5">
     <g id="line2d_5">
      <g>
       <use style="stroke:#000000;stroke-width:0.8;" x="659.368295" xlink:href="#ma0ee5347f4" y="333.36"/>
      </g>
     </g>
     <g id="text_5">
      <!-- 0.8 -->
      <g transform="translate(637.10392 361.635625)scale(0.28 -0.28)">
       <defs>
        <path d="M 2034 2216 
Q 1584 2216 1326 1975 
Q 1069 1734 1069 1313 
Q 1069 891 1326 650 
Q 1584 409 2034 409 
Q 2484 409 2743 651 
Q 3003 894 3003 1313 
Q 3003 1734 2745 1975 
Q 2488 2216 2034 2216 
z
M 1403 2484 
Q 997 2584 770 2862 
Q 544 3141 544 3541 
Q 544 4100 942 4425 
Q 1341 4750 2034 4750 
Q 2731 4750 3128 4425 
Q 3525 4100 3525 3541 
Q 3525 3141 3298 2862 
Q 3072 2584 2669 2484 
Q 3125 2378 3379 2068 
Q 3634 1759 3634 1313 
Q 3634 634 3220 271 
Q 2806 -91 2034 -91 
Q 1263 -91 848 271 
Q 434 634 434 1313 
Q 434 1759 690 2068 
Q 947 2378 1403 2484 
z
M 1172 3481 
Q 1172 3119 1398 2916 
Q 1625 2713 2034 2713 
Q 2441 2713 2670 2916 
Q 2900 3119 2900 3481 
Q 2900 3844 2670 4047 
Q 2441 4250 2034 4250 
Q 1625 4250 1398 4047 
Q 1172 3844 1172 3481 
z
" id="DejaVuSans-38" transform="scale(0.015625)"/>
       </defs>
       <use xlink:href="#DejaVuSans-30"/>
       <use x="63.623047" xlink:href="#DejaVuSans-2e"/>
       <use x="95.410156" xlink:href="#DejaVuSans-38"/>
      </g>
     </g>
    </g>
    <g id="xtick_6">
     <g id="line2d_6">
      <g>
       <use style="stroke:#000000;stroke-width:0.8;" x="781.11375" xlink:href="#ma0ee5347f4" y="333.36"/>
      </g>
     </g>
     <g id="text_6">
      <!-- 1.0 -->
      <g transform="translate(758.849375 361.635625)scale(0.28 -0.28)">
       <defs>
        <path d="M 794 531 
L 1825 531 
L 1825 4091 
L 703 3866 
L 703 4441 
L 1819 4666 
L 2450 4666 
L 2450 531 
L 3481 531 
L 3481 0 
L 794 0 
L 794 531 
z
" id="DejaVuSans-31" transform="scale(0.015625)"/>
       </defs>
       <use xlink:href="#DejaVuSans-31"/>
       <use x="63.623047" xlink:href="#DejaVuSans-2e"/>
       <use x="95.410156" xlink:href="#DejaVuSans-30"/>
      </g>
     </g>
    </g>
    <g id="text_7">
     <!-- GPU idle time (sec) -->
     <g transform="translate(292.80125 395.77375)scale(0.32 -0.32)">
      <defs>
       <path d="M 3809 666 
L 3809 1919 
L 2778 1919 
L 2778 2438 
L 4434 2438 
L 4434 434 
Q 4069 175 3628 42 
Q 3188 -91 2688 -91 
Q 1594 -91 976 548 
Q 359 1188 359 2328 
Q 359 3472 976 4111 
Q 1594 4750 2688 4750 
Q 3144 4750 3555 4637 
Q 3966 4525 4313 4306 
L 4313 3634 
Q 3963 3931 3569 4081 
Q 3175 4231 2741 4231 
Q 1884 4231 1454 3753 
Q 1025 3275 1025 2328 
Q 1025 1384 1454 906 
Q 1884 428 2741 428 
Q 3075 428 3337 486 
Q 3600 544 3809 666 
z
" id="DejaVuSans-47" transform="scale(0.015625)"/>
       <path d="M 1259 4147 
L 1259 2394 
L 2053 2394 
Q 2494 2394 2734 2622 
Q 2975 2850 2975 3272 
Q 2975 3691 2734 3919 
Q 2494 4147 2053 4147 
L 1259 4147 
z
M 628 4666 
L 2053 4666 
Q 2838 4666 3239 4311 
Q 3641 3956 3641 3272 
Q 3641 2581 3239 2228 
Q 2838 1875 2053 1875 
L 1259 1875 
L 1259 0 
L 628 0 
L 628 4666 
z
" id="DejaVuSans-50" transform="scale(0.015625)"/>
       <path d="M 556 4666 
L 1191 4666 
L 1191 1831 
Q 1191 1081 1462 751 
Q 1734 422 2344 422 
Q 2950 422 3222 751 
Q 3494 1081 3494 1831 
L 3494 4666 
L 4128 4666 
L 4128 1753 
Q 4128 841 3676 375 
Q 3225 -91 2344 -91 
Q 1459 -91 1007 375 
Q 556 841 556 1753 
L 556 4666 
z
" id="DejaVuSans-55" transform="scale(0.015625)"/>
       <path id="DejaVuSans-20" transform="scale(0.015625)"/>
       <path d="M 603 3500 
L 1178 3500 
L 1178 0 
L 603 0 
L 603 3500 
z
M 603 4863 
L 1178 4863 
L 1178 4134 
L 603 4134 
L 603 4863 
z
" id="DejaVuSans-69" transform="scale(0.015625)"/>
       <path d="M 2906 2969 
L 2906 4863 
L 3481 4863 
L 3481 0 
L 2906 0 
L 2906 525 
Q 2725 213 2448 61 
Q 2172 -91 1784 -91 
Q 1150 -91 751 415 
Q 353 922 353 1747 
Q 353 2572 751 3078 
Q 1150 3584 1784 3584 
Q 2172 3584 2448 3432 
Q 2725 3281 2906 2969 
z
M 947 1747 
Q 947 1113 1208 752 
Q 1469 391 1925 391 
Q 2381 391 2643 752 
Q 2906 1113 2906 1747 
Q 2906 2381 2643 2742 
Q 2381 3103 1925 3103 
Q 1469 3103 1208 2742 
Q 947 2381 947 1747 
z
" id="DejaVuSans-64" transform="scale(0.015625)"/>
       <path d="M 603 4863 
L 1178 4863 
L 1178 0 
L 603 0 
L 603 4863 
z
" id="DejaVuSans-6c" transform="scale(0.015625)"/>
       <path d="M 3597 1894 
L 3597 1613 
L 953 1613 
Q 991 1019 1311 708 
Q 1631 397 2203 397 
Q 2534 397 2845 478 
Q 3156 559 3463 722 
L 3463 178 
Q 3153 47 2828 -22 
Q 2503 -91 2169 -91 
Q 1331 -91 842 396 
Q 353 884 353 1716 
Q 353 2575 817 3079 
Q 1281 3584 2069 3584 
Q 2775 3584 3186 3129 
Q 3597 2675 3597 1894 
z
M 3022 2063 
Q 3016 2534 2758 2815 
Q 2500 3097 2075 3097 
Q 1594 3097 1305 2825 
Q 1016 2553 972 2059 
L 3022 2063 
z
" id="DejaVuSans-65" transform="scale(0.015625)"/>
       <path d="M 1172 4494 
L 1172 3500 
L 2356 3500 
L 2356 3053 
L 1172 3053 
L 1172 1153 
Q 1172 725 1289 603 
Q 1406 481 1766 481 
L 2356 481 
L 2356 0 
L 1766 0 
Q 1100 0 847 248 
Q 594 497 594 1153 
L 594 3053 
L 172 3053 
L 172 3500 
L 594 3500 
L 594 4494 
L 1172 4494 
z
" id="DejaVuSans-74" transform="scale(0.015625)"/>
       <path d="M 3328 2828 
Q 3544 3216 3844 3400 
Q 4144 3584 4550 3584 
Q 5097 3584 5394 3201 
Q 5691 2819 5691 2113 
L 5691 0 
L 5113 0 
L 5113 2094 
Q 5113 2597 4934 2840 
Q 4756 3084 4391 3084 
Q 3944 3084 3684 2787 
Q 3425 2491 3425 1978 
L 3425 0 
L 2847 0 
L 2847 2094 
Q 2847 2600 2669 2842 
Q 2491 3084 2119 3084 
Q 1678 3084 1418 2786 
Q 1159 2488 1159 1978 
L 1159 0 
L 581 0 
L 581 3500 
L 1159 3500 
L 1159 2956 
Q 1356 3278 1631 3431 
Q 1906 3584 2284 3584 
Q 2666 3584 2933 3390 
Q 3200 3197 3328 2828 
z
" id="DejaVuSans-6d" transform="scale(0.015625)"/>
       <path d="M 1984 4856 
Q 1566 4138 1362 3434 
Q 1159 2731 1159 2009 
Q 1159 1288 1364 580 
Q 1569 -128 1984 -844 
L 1484 -844 
Q 1016 -109 783 600 
Q 550 1309 550 2009 
Q 550 2706 781 3412 
Q 1013 4119 1484 4856 
L 1984 4856 
z
" id="DejaVuSans-28" transform="scale(0.015625)"/>
       <path d="M 2834 3397 
L 2834 2853 
Q 2591 2978 2328 3040 
Q 2066 3103 1784 3103 
Q 1356 3103 1142 2972 
Q 928 2841 928 2578 
Q 928 2378 1081 2264 
Q 1234 2150 1697 2047 
L 1894 2003 
Q 2506 1872 2764 1633 
Q 3022 1394 3022 966 
Q 3022 478 2636 193 
Q 2250 -91 1575 -91 
Q 1294 -91 989 -36 
Q 684 19 347 128 
L 347 722 
Q 666 556 975 473 
Q 1284 391 1588 391 
Q 1994 391 2212 530 
Q 2431 669 2431 922 
Q 2431 1156 2273 1281 
Q 2116 1406 1581 1522 
L 1381 1569 
Q 847 1681 609 1914 
Q 372 2147 372 2553 
Q 372 3047 722 3315 
Q 1072 3584 1716 3584 
Q 2034 3584 2315 3537 
Q 2597 3491 2834 3397 
z
" id="DejaVuSans-73" transform="scale(0.015625)"/>
       <path d="M 3122 3366 
L 3122 2828 
Q 2878 2963 2633 3030 
Q 2388 3097 2138 3097 
Q 1578 3097 1268 2742 
Q 959 2388 959 1747 
Q 959 1106 1268 751 
Q 1578 397 2138 397 
Q 2388 397 2633 464 
Q 2878 531 3122 666 
L 3122 134 
Q 2881 22 2623 -34 
Q 2366 -91 2075 -91 
Q 1284 -91 818 406 
Q 353 903 353 1747 
Q 353 2603 823 3093 
Q 1294 3584 2113 3584 
Q 2378 3584 2631 3529 
Q 2884 3475 3122 3366 
z
" id="DejaVuSans-63" transform="scale(0.015625)"/>
       <path d="M 513 4856 
L 1013 4856 
Q 1481 4119 1714 3412 
Q 1947 2706 1947 2009 
Q 1947 1309 1714 600 
Q 1481 -109 1013 -844 
L 513 -844 
Q 928 -128 1133 580 
Q 1338 1288 1338 2009 
Q 1338 2731 1133 3434 
Q 928 4138 513 4856 
z
" id="DejaVuSans-29" transform="scale(0.015625)"/>
      </defs>
      <use xlink:href="#DejaVuSans-47"/>
      <use x="77.490234" xlink:href="#DejaVuSans-50"/>
      <use x="137.792969" xlink:href="#DejaVuSans-55"/>
      <use x="210.986328" xlink:href="#DejaVuSans-20"/>
      <use x="242.773438" xlink:href="#DejaVuSans-69"/>
      <use x="270.556641" xlink:href="#DejaVuSans-64"/>
      <use x="334.033203" xlink:href="#DejaVuSans-6c"/>
      <use x="361.816406" xlink:href="#DejaVuSans-65"/>
      <use x="423.339844" xlink:href="#DejaVuSans-20"/>
      <use x="455.126953" xlink:href="#DejaVuSans-74"/>
      <use x="494.335938" xlink:href="#DejaVuSans-69"/>
      <use x="522.119141" xlink:href="#DejaVuSans-6d"/>
      <use x="619.53125" xlink:href="#DejaVuSans-65"/>
      <use x="681.054688" xlink:href="#DejaVuSans-20"/>
      <use x="712.841797" xlink:href="#DejaVuSans-28"/>
      <use x="751.855469" xlink:href="#DejaVuSans-73"/>
      <use x="803.955078" xlink:href="#DejaVuSans-65"/>
      <use x="865.478516" xlink:href="#DejaVuSans-63"/>
      <use x="920.458984" xlink:href="#DejaVuSans-29"/>
     </g>
    </g>
   </g>
   <g id="matplotlib.axis_2">
    <g id="ytick_1">
     <g id="line2d_7">
      <defs>
       <path d="M 0 0 
L -3.5 0 
" id="mddb8e09e6a" style="stroke:#000000;stroke-width:0.8;"/>
      </defs>
      <g>
       <use style="stroke:#000000;stroke-width:0.8;" x="111.51375" xlink:href="#mddb8e09e6a" y="333.36"/>
      </g>
     </g>
     <g id="text_8">
      <!-- 0.00 -->
      <g transform="translate(42.17 343.997813)scale(0.28 -0.28)">
       <use xlink:href="#DejaVuSans-30"/>
       <use x="63.623047" xlink:href="#DejaVuSans-2e"/>
       <use x="95.410156" xlink:href="#DejaVuSans-30"/>
       <use x="159.033203" xlink:href="#DejaVuSans-30"/>
      </g>
     </g>
    </g>
    <g id="ytick_2">
     <g id="line2d_8">
      <g>
       <use style="stroke:#000000;stroke-width:0.8;" x="111.51375" xlink:href="#mddb8e09e6a" y="255.702857"/>
      </g>
     </g>
     <g id="text_9">
      <!-- 0.25 -->
      <g transform="translate(42.17 266.34067)scale(0.28 -0.28)">
       <defs>
        <path d="M 691 4666 
L 3169 4666 
L 3169 4134 
L 1269 4134 
L 1269 2991 
Q 1406 3038 1543 3061 
Q 1681 3084 1819 3084 
Q 2600 3084 3056 2656 
Q 3513 2228 3513 1497 
Q 3513 744 3044 326 
Q 2575 -91 1722 -91 
Q 1428 -91 1123 -41 
Q 819 9 494 109 
L 494 744 
Q 775 591 1075 516 
Q 1375 441 1709 441 
Q 2250 441 2565 725 
Q 2881 1009 2881 1497 
Q 2881 1984 2565 2268 
Q 2250 2553 1709 2553 
Q 1456 2553 1204 2497 
Q 953 2441 691 2322 
L 691 4666 
z
" id="DejaVuSans-35" transform="scale(0.015625)"/>
       </defs>
       <use xlink:href="#DejaVuSans-30"/>
       <use x="63.623047" xlink:href="#DejaVuSans-2e"/>
       <use x="95.410156" xlink:href="#DejaVuSans-32"/>
       <use x="159.033203" xlink:href="#DejaVuSans-35"/>
      </g>
     </g>
    </g>
    <g id="ytick_3">
     <g id="line2d_9">
      <g>
       <use style="stroke:#000000;stroke-width:0.8;" x="111.51375" xlink:href="#mddb8e09e6a" y="178.045714"/>
      </g>
     </g>
     <g id="text_10">
      <!-- 0.50 -->
      <g transform="translate(42.17 188.683527)scale(0.28 -0.28)">
       <use xlink:href="#DejaVuSans-30"/>
       <use x="63.623047" xlink:href="#DejaVuSans-2e"/>
       <use x="95.410156" xlink:href="#DejaVuSans-35"/>
       <use x="159.033203" xlink:href="#DejaVuSans-30"/>
      </g>
     </g>
    </g>
    <g id="ytick_4">
     <g id="line2d_10">
      <g>
       <use style="stroke:#000000;stroke-width:0.8;" x="111.51375" xlink:href="#mddb8e09e6a" y="100.388571"/>
      </g>
     </g>
     <g id="text_11">
      <!-- 0.75 -->
      <g transform="translate(42.17 111.026384)scale(0.28 -0.28)">
       <defs>
        <path d="M 525 4666 
L 3525 4666 
L 3525 4397 
L 1831 0 
L 1172 0 
L 2766 4134 
L 525 4134 
L 525 4666 
z
" id="DejaVuSans-37" transform="scale(0.015625)"/>
       </defs>
       <use xlink:href="#DejaVuSans-30"/>
       <use x="63.623047" xlink:href="#DejaVuSans-2e"/>
       <use x="95.410156" xlink:href="#DejaVuSans-37"/>
       <use x="159.033203" xlink:href="#DejaVuSans-35"/>
      </g>
     </g>
    </g>
    <g id="ytick_5">
     <g id="line2d_11">
      <g>
       <use style="stroke:#000000;stroke-width:0.8;" x="111.51375" xlink:href="#mddb8e09e6a" y="22.731429"/>
      </g>
     </g>
     <g id="text_12">
      <!-- 1.00 -->
      <g transform="translate(42.17 33.369241)scale(0.28 -0.28)">
       <use xlink:href="#DejaVuSans-31"/>
       <use x="63.623047" xlink:href="#DejaVuSans-2e"/>
       <use x="95.410156" xlink:href="#DejaVuSans-30"/>
       <use x="159.033203" xlink:href="#DejaVuSans-30"/>
      </g>
     </g>
    </g>
    <g id="text_13">
     <!-- CDF -->
     <g transform="translate(31.515 202.975)rotate(-90)scale(0.32 -0.32)">
      <defs>
       <path d="M 4122 4306 
L 4122 3641 
Q 3803 3938 3442 4084 
Q 3081 4231 2675 4231 
Q 1875 4231 1450 3742 
Q 1025 3253 1025 2328 
Q 1025 1406 1450 917 
Q 1875 428 2675 428 
Q 3081 428 3442 575 
Q 3803 722 4122 1019 
L 4122 359 
Q 3791 134 3420 21 
Q 3050 -91 2638 -91 
Q 1578 -91 968 557 
Q 359 1206 359 2328 
Q 359 3453 968 4101 
Q 1578 4750 2638 4750 
Q 3056 4750 3426 4639 
Q 3797 4528 4122 4306 
z
" id="DejaVuSans-43" transform="scale(0.015625)"/>
       <path d="M 1259 4147 
L 1259 519 
L 2022 519 
Q 2988 519 3436 956 
Q 3884 1394 3884 2338 
Q 3884 3275 3436 3711 
Q 2988 4147 2022 4147 
L 1259 4147 
z
M 628 4666 
L 1925 4666 
Q 3281 4666 3915 4102 
Q 4550 3538 4550 2338 
Q 4550 1131 3912 565 
Q 3275 0 1925 0 
L 628 0 
L 628 4666 
z
" id="DejaVuSans-44" transform="scale(0.015625)"/>
       <path d="M 628 4666 
L 3309 4666 
L 3309 4134 
L 1259 4134 
L 1259 2759 
L 3109 2759 
L 3109 2228 
L 1259 2228 
L 1259 0 
L 628 0 
L 628 4666 
z
" id="DejaVuSans-46" transform="scale(0.015625)"/>
      </defs>
      <use xlink:href="#DejaVuSans-43"/>
      <use x="69.824219" xlink:href="#DejaVuSans-44"/>
      <use x="146.826172" xlink:href="#DejaVuSans-46"/>
     </g>
    </g>
   </g>
   <g id="patch_3">
    <path clip-path="url(#p536ab3580f)" d="M 172.387086 333.36 
L 172.387086 216.408715 
L 172.796181 216.408715 
L 172.796181 215.291346 
L 173.205277 215.291346 
L 173.205277 214.91889 
L 173.614372 214.91889 
L 173.614372 213.801521 
L 174.023467 213.801521 
L 174.023467 213.056608 
L 174.432562 213.056608 
L 174.432562 212.684152 
L 174.841658 212.684152 
L 174.841658 212.311696 
L 175.250753 212.311696 
L 175.250753 211.566783 
L 175.659848 211.566783 
L 175.659848 210.821871 
L 176.068944 210.821871 
L 176.068944 210.076958 
L 176.478039 210.076958 
L 176.478039 208.959589 
L 177.29623 208.959589 
L 177.29623 207.097307 
L 178.523515 207.097307 
L 178.523515 206.724851 
L 178.932611 206.724851 
L 178.932611 205.979938 
L 179.341706 205.979938 
L 179.341706 204.862569 
L 179.750801 204.862569 
L 179.750801 204.490113 
L 180.159897 204.490113 
L 180.159897 204.117657 
L 180.568992 204.117657 
L 180.568992 203.7452 
L 181.387183 203.7452 
L 181.387183 203.372744 
L 181.796278 203.372744 
L 181.796278 202.627831 
L 182.205373 202.627831 
L 182.205373 201.882919 
L 182.614468 201.882919 
L 182.614468 200.76555 
L 183.432659 200.76555 
L 183.432659 199.275725 
L 183.841754 199.275725 
L 183.841754 198.903268 
L 184.25085 198.903268 
L 184.25085 198.158356 
L 184.659945 198.158356 
L 184.659945 197.785899 
L 185.887231 197.785899 
L 185.887231 197.413443 
L 186.296326 197.413443 
L 186.296326 197.040987 
L 186.705421 197.040987 
L 186.705421 196.66853 
L 187.114517 196.66853 
L 187.114517 195.551161 
L 187.523612 195.551161 
L 187.523612 195.178705 
L 187.932707 195.178705 
L 187.932707 194.061336 
L 188.750898 194.061336 
L 188.750898 191.454142 
L 189.159993 191.454142 
L 189.159993 191.081686 
L 189.569088 191.081686 
L 189.569088 190.709229 
L 190.387279 190.709229 
L 190.387279 189.964317 
L 190.796374 189.964317 
L 190.796374 189.219404 
L 191.20547 189.219404 
L 191.20547 188.474491 
L 191.614565 188.474491 
L 191.614565 187.729579 
L 192.02366 187.729579 
L 192.02366 186.61221 
L 192.432756 186.61221 
L 192.432756 186.239753 
L 192.841851 186.239753 
L 192.841851 185.494841 
L 193.660041 185.494841 
L 193.660041 184.749928 
L 194.069137 184.749928 
L 194.069137 184.005015 
L 194.478232 184.005015 
L 194.478232 183.260103 
L 194.887327 183.260103 
L 194.887327 182.887646 
L 195.296423 182.887646 
L 195.296423 182.142734 
L 195.705518 182.142734 
L 195.705518 181.397821 
L 196.114613 181.397821 
L 196.114613 180.280452 
L 196.523709 180.280452 
L 196.523709 179.163083 
L 196.932804 179.163083 
L 196.932804 178.790627 
L 197.341899 178.790627 
L 197.341899 178.418171 
L 198.16009 178.418171 
L 198.16009 178.045714 
L 198.569185 178.045714 
L 198.569185 177.673258 
L 198.97828 177.673258 
L 198.97828 176.555889 
L 199.387376 176.555889 
L 199.387376 174.693607 
L 199.796471 174.693607 
L 199.796471 173.948695 
L 200.205566 173.948695 
L 200.205566 173.576238 
L 200.614662 173.576238 
L 200.614662 172.831326 
L 201.023757 172.831326 
L 201.023757 171.341501 
L 201.432852 171.341501 
L 201.432852 170.224132 
L 201.841947 170.224132 
L 201.841947 169.851675 
L 202.251043 169.851675 
L 202.251043 169.106763 
L 202.660138 169.106763 
L 202.660138 168.36185 
L 203.069233 168.36185 
L 203.069233 167.989394 
L 203.478329 167.989394 
L 203.478329 166.872025 
L 203.887424 166.872025 
L 203.887424 165.382199 
L 204.296519 165.382199 
L 204.296519 163.519918 
L 204.705615 163.519918 
L 204.705615 162.402549 
L 205.11471 162.402549 
L 205.11471 160.912724 
L 205.523805 160.912724 
L 205.523805 160.167811 
L 206.341996 160.167811 
L 206.341996 157.933073 
L 206.751091 157.933073 
L 206.751091 156.443248 
L 207.160186 156.443248 
L 207.160186 155.698335 
L 207.569282 155.698335 
L 207.569282 154.953422 
L 207.978377 154.953422 
L 207.978377 153.836053 
L 208.387472 153.836053 
L 208.387472 153.463597 
L 208.796567 153.463597 
L 208.796567 151.973772 
L 209.205663 151.973772 
L 209.205663 150.856403 
L 209.614758 150.856403 
L 209.614758 150.483947 
L 210.023853 150.483947 
L 210.023853 149.366578 
L 210.432949 149.366578 
L 210.432949 148.621665 
L 210.842044 148.621665 
L 210.842044 147.504296 
L 211.251139 147.504296 
L 211.251139 146.759383 
L 211.660235 146.759383 
L 211.660235 146.386927 
L 212.06933 146.386927 
L 212.06933 145.269558 
L 212.478425 145.269558 
L 212.478425 144.897102 
L 212.88752 144.897102 
L 212.88752 143.407276 
L 213.296616 143.407276 
L 213.296616 142.662364 
L 213.705711 142.662364 
L 213.705711 141.917451 
L 214.114806 141.917451 
L 214.114806 140.800082 
L 214.523902 140.800082 
L 214.523902 139.682713 
L 214.932997 139.682713 
L 214.932997 139.310257 
L 215.751188 139.310257 
L 215.751188 137.447975 
L 216.160283 137.447975 
L 216.160283 136.703063 
L 216.569378 136.703063 
L 216.569378 136.330606 
L 216.978473 136.330606 
L 216.978473 135.585694 
L 217.387569 135.585694 
L 217.387569 135.213237 
L 217.796664 135.213237 
L 217.796664 134.468325 
L 219.02395 134.468325 
L 219.02395 133.723412 
L 219.433045 133.723412 
L 219.433045 132.606043 
L 219.842141 132.606043 
L 219.842141 132.233587 
L 220.251236 132.233587 
L 220.251236 131.116218 
L 220.660331 131.116218 
L 220.660331 130.371305 
L 221.069426 130.371305 
L 221.069426 129.998849 
L 221.478522 129.998849 
L 221.478522 128.509024 
L 221.887617 128.509024 
L 221.887617 128.136567 
L 222.296712 128.136567 
L 222.296712 127.391655 
L 222.705808 127.391655 
L 222.705808 126.646742 
L 223.114903 126.646742 
L 223.114903 126.274286 
L 223.523998 126.274286 
L 223.523998 124.78446 
L 223.933093 124.78446 
L 223.933093 124.412004 
L 224.342189 124.412004 
L 224.342189 123.667091 
L 224.751284 123.667091 
L 224.751284 122.549723 
L 225.160379 122.549723 
L 225.160379 121.432354 
L 225.569475 121.432354 
L 225.569475 121.059897 
L 226.387665 121.059897 
L 226.387665 120.314985 
L 226.796761 120.314985 
L 226.796761 119.942528 
L 227.205856 119.942528 
L 227.205856 118.825159 
L 227.614951 118.825159 
L 227.614951 117.335334 
L 228.024046 117.335334 
L 228.024046 116.217965 
L 228.433142 116.217965 
L 228.433142 115.473052 
L 228.842237 115.473052 
L 228.842237 114.355683 
L 229.251332 114.355683 
L 229.251332 113.238314 
L 229.660428 113.238314 
L 229.660428 112.120946 
L 230.069523 112.120946 
L 230.069523 111.376033 
L 230.887714 111.376033 
L 230.887714 110.258664 
L 231.296809 110.258664 
L 231.296809 109.513751 
L 232.114999 109.513751 
L 232.114999 108.396382 
L 232.524095 108.396382 
L 232.524095 107.65147 
L 232.93319 107.65147 
L 232.93319 107.279013 
L 233.342285 107.279013 
L 233.342285 106.161644 
L 233.751381 106.161644 
L 233.751381 104.299363 
L 234.160476 104.299363 
L 234.160476 103.55445 
L 234.569571 103.55445 
L 234.569571 101.692169 
L 234.978667 101.692169 
L 234.978667 101.319712 
L 235.387762 101.319712 
L 235.387762 100.5748 
L 235.796857 100.5748 
L 235.796857 100.202343 
L 236.205952 100.202343 
L 236.205952 99.829887 
L 236.615048 99.829887 
L 236.615048 99.457431 
L 237.024143 99.457431 
L 237.024143 98.340062 
L 237.433238 98.340062 
L 237.433238 97.595149 
L 238.251429 97.595149 
L 238.251429 96.850236 
L 238.660524 96.850236 
L 238.660524 96.47778 
L 239.06962 96.47778 
L 239.06962 96.105324 
L 239.88781 96.105324 
L 239.88781 95.360411 
L 240.296905 95.360411 
L 240.296905 94.987955 
L 240.706001 94.987955 
L 240.706001 94.243042 
L 241.115096 94.243042 
L 241.115096 93.870586 
L 241.933287 93.870586 
L 241.933287 93.498129 
L 242.342382 93.498129 
L 242.342382 92.753217 
L 242.751477 92.753217 
L 242.751477 92.008304 
L 243.569668 92.008304 
L 243.569668 91.263392 
L 243.978763 91.263392 
L 243.978763 90.518479 
L 244.387858 90.518479 
L 244.387858 89.773566 
L 244.796954 89.773566 
L 244.796954 89.028654 
L 245.615144 89.028654 
L 245.615144 87.911285 
L 246.02424 87.911285 
L 246.02424 87.538828 
L 246.433335 87.538828 
L 246.433335 86.793916 
L 246.84243 86.793916 
L 246.84243 84.931634 
L 247.251525 84.931634 
L 247.251525 84.559178 
L 247.660621 84.559178 
L 247.660621 84.186721 
L 248.069716 84.186721 
L 248.069716 83.069353 
L 248.887907 83.069353 
L 248.887907 81.951984 
L 249.297002 81.951984 
L 249.297002 81.579527 
L 249.706097 81.579527 
L 249.706097 80.089702 
L 250.115193 80.089702 
L 250.115193 79.717246 
L 250.524288 79.717246 
L 250.524288 78.972333 
L 250.933383 78.972333 
L 250.933383 78.599877 
L 251.342478 78.599877 
L 251.342478 77.854964 
L 251.751574 77.854964 
L 251.751574 77.110051 
L 252.569764 77.110051 
L 252.569764 76.737595 
L 253.387955 76.737595 
L 253.387955 76.365139 
L 254.206146 76.365139 
L 254.206146 75.992682 
L 254.615241 75.992682 
L 254.615241 75.24777 
L 255.024336 75.24777 
L 255.024336 74.875313 
L 255.433431 74.875313 
L 255.433431 74.502857 
L 255.842527 74.502857 
L 255.842527 73.757945 
L 256.251622 73.757945 
L 256.251622 73.013032 
L 256.660717 73.013032 
L 256.660717 72.640576 
L 257.069813 72.640576 
L 257.069813 71.895663 
L 258.297098 71.895663 
L 258.297098 71.523207 
L 258.706194 71.523207 
L 258.706194 70.778294 
L 259.524384 70.778294 
L 259.524384 70.405838 
L 259.93348 70.405838 
L 259.93348 70.033381 
L 260.342575 70.033381 
L 260.342575 69.660925 
L 260.75167 69.660925 
L 260.75167 69.288469 
L 261.160766 69.288469 
L 261.160766 68.543556 
L 261.569861 68.543556 
L 261.569861 67.426187 
L 261.978956 67.426187 
L 261.978956 67.053731 
L 262.797147 67.053731 
L 262.797147 65.936362 
L 263.615337 65.936362 
L 263.615337 65.563905 
L 264.024433 65.563905 
L 264.024433 65.191449 
L 264.433528 65.191449 
L 264.433528 64.818993 
L 265.251719 64.818993 
L 265.251719 64.07408 
L 265.660814 64.07408 
L 265.660814 63.701624 
L 266.479004 63.701624 
L 266.479004 62.956711 
L 266.8881 62.956711 
L 266.8881 62.584255 
L 267.70629 62.584255 
L 267.70629 62.211799 
L 268.524481 62.211799 
L 268.524481 61.839342 
L 269.751767 61.839342 
L 269.751767 61.466886 
L 270.569957 61.466886 
L 270.569957 61.09443 
L 272.206339 61.09443 
L 272.206339 60.349517 
L 273.433624 60.349517 
L 273.433624 59.977061 
L 273.84272 59.977061 
L 273.84272 58.859692 
L 275.070006 58.859692 
L 275.070006 58.487235 
L 275.479101 58.487235 
L 275.479101 57.369866 
L 276.706387 57.369866 
L 276.706387 56.99741 
L 277.524577 56.99741 
L 277.524577 56.624954 
L 278.342768 56.624954 
L 278.342768 56.252497 
L 279.160959 56.252497 
L 279.160959 55.880041 
L 279.979149 55.880041 
L 279.979149 55.507585 
L 280.388245 55.507585 
L 280.388245 55.135128 
L 280.79734 55.135128 
L 280.79734 54.762672 
L 281.206435 54.762672 
L 281.206435 54.390216 
L 281.61553 54.390216 
L 281.61553 53.272847 
L 282.024626 53.272847 
L 282.024626 52.900391 
L 282.433721 52.900391 
L 282.433721 52.527934 
L 283.661007 52.527934 
L 283.661007 52.155478 
L 284.070102 52.155478 
L 284.070102 51.783022 
L 284.888293 51.783022 
L 284.888293 51.038109 
L 285.297388 51.038109 
L 285.297388 50.665653 
L 286.115579 50.665653 
L 286.115579 50.293196 
L 286.524674 50.293196 
L 286.524674 49.92074 
L 288.161055 49.92074 
L 288.161055 49.548284 
L 290.206532 49.548284 
L 290.206532 49.175827 
L 290.615627 49.175827 
L 290.615627 48.803371 
L 291.433818 48.803371 
L 291.433818 48.430915 
L 291.842913 48.430915 
L 291.842913 48.058458 
L 292.252008 48.058458 
L 292.252008 46.941089 
L 293.070199 46.941089 
L 293.070199 46.568633 
L 293.888389 46.568633 
L 293.888389 46.196177 
L 296.342961 46.196177 
L 296.342961 45.82372 
L 296.752056 45.82372 
L 296.752056 45.451264 
L 297.979342 45.451264 
L 297.979342 45.078808 
L 299.206628 45.078808 
L 299.206628 44.706351 
L 299.615724 44.706351 
L 299.615724 44.333895 
L 300.024819 44.333895 
L 300.024819 43.961439 
L 300.433914 43.961439 
L 300.433914 43.216526 
L 301.252105 43.216526 
L 301.252105 42.84407 
L 301.6612 42.84407 
L 301.6612 42.471614 
L 302.070295 42.471614 
L 302.070295 42.099157 
L 302.888486 42.099157 
L 302.888486 41.354245 
L 304.115772 41.354245 
L 304.115772 40.981788 
L 305.343058 40.981788 
L 305.343058 40.609332 
L 307.797629 40.609332 
L 307.797629 40.236876 
L 309.024915 40.236876 
L 309.024915 39.864419 
L 312.706773 39.864419 
L 312.706773 39.491963 
L 313.934059 39.491963 
L 313.934059 39.119507 
L 316.797726 39.119507 
L 316.797726 38.74705 
L 318.434107 38.74705 
L 318.434107 38.374594 
L 319.252298 38.374594 
L 319.252298 38.002138 
L 322.52506 38.002138 
L 322.52506 37.629681 
L 323.343251 37.629681 
L 323.343251 37.257225 
L 323.752346 37.257225 
L 323.752346 36.884769 
L 328.66149 36.884769 
L 328.66149 36.512312 
L 329.888776 36.512312 
L 329.888776 36.139856 
L 332.752443 36.139856 
L 332.752443 35.7674 
L 333.979729 35.7674 
L 333.979729 35.394943 
L 335.61611 35.394943 
L 335.61611 34.650031 
L 340.116158 34.650031 
L 340.116158 34.277575 
L 341.343444 34.277575 
L 341.343444 33.905118 
L 342.979825 33.905118 
L 342.979825 33.532662 
L 344.616206 33.532662 
L 344.616206 33.160206 
L 347.070778 33.160206 
L 347.070778 32.787749 
L 350.752636 32.787749 
L 350.752636 32.415293 
L 352.798112 32.415293 
L 352.798112 32.042837 
L 360.161828 32.042837 
L 360.161828 31.67038 
L 360.570923 31.67038 
L 360.570923 31.297924 
L 362.207304 31.297924 
L 362.207304 30.925468 
L 367.525543 30.925468 
L 367.525543 30.553011 
L 370.798305 30.553011 
L 370.798305 29.808099 
L 387.980308 29.808099 
L 387.980308 29.435642 
L 401.889548 29.435642 
L 401.889548 29.063186 
L 406.389596 29.063186 
L 406.389596 28.69073 
L 410.480549 28.69073 
L 410.480549 28.318273 
L 417.026074 28.318273 
L 417.026074 27.945817 
L 426.435266 27.945817 
L 426.435266 27.573361 
L 428.889838 27.573361 
L 428.889838 27.200904 
L 430.117123 27.200904 
L 430.117123 26.828448 
L 432.1626 26.828448 
L 432.1626 26.455992 
L 437.480839 26.455992 
L 437.480839 26.083535 
L 438.708125 26.083535 
L 438.708125 25.711079 
L 449.753698 25.711079 
L 449.753698 25.338623 
L 471.844844 25.338623 
L 471.844844 24.966166 
L 483.708607 24.966166 
L 483.708607 24.59371 
L 494.345085 24.59371 
L 494.345085 24.221254 
L 508.254325 24.221254 
L 508.254325 23.848798 
L 685.801684 23.848798 
L 685.801684 23.476341 
L 707.483735 23.476341 
L 707.483735 23.103885 
L 811.578125 23.103885 
L 811.578125 23.103885 
" style="fill:none;stroke:#1f77b4;stroke-linejoin:miter;"/>
   </g>
   <g id="patch_4">
    <path clip-path="url(#p536ab3580f)" d="M 172.387086 333.36 
L 172.387086 268.925057 
L 174.012926 268.925057 
L 174.012926 268.180144 
L 174.419386 268.180144 
L 174.419386 267.435231 
L 175.232306 267.435231 
L 175.232306 267.062775 
L 175.638766 267.062775 
L 175.638766 266.690319 
L 176.045226 266.690319 
L 176.045226 265.945406 
L 176.451686 265.945406 
L 176.451686 265.200493 
L 176.858146 265.200493 
L 176.858146 263.710668 
L 177.264606 263.710668 
L 177.264606 262.220843 
L 178.483986 262.220843 
L 178.483986 261.103474 
L 179.296906 261.103474 
L 179.296906 260.358561 
L 180.109826 260.358561 
L 180.109826 259.986105 
L 180.516286 259.986105 
L 180.516286 259.613649 
L 180.922746 259.613649 
L 180.922746 259.241192 
L 181.329206 259.241192 
L 181.329206 258.868736 
L 181.735666 258.868736 
L 181.735666 257.751367 
L 182.142126 257.751367 
L 182.142126 257.378911 
L 182.548586 257.378911 
L 182.548586 256.633998 
L 182.955046 256.633998 
L 182.955046 255.889085 
L 183.361506 255.889085 
L 183.361506 255.516629 
L 183.767966 255.516629 
L 183.767966 254.771716 
L 184.174426 254.771716 
L 184.174426 254.39926 
L 184.580886 254.39926 
L 184.580886 253.281891 
L 185.393806 253.281891 
L 185.393806 252.536978 
L 185.800266 252.536978 
L 185.800266 251.419609 
L 186.206726 251.419609 
L 186.206726 250.674697 
L 186.613186 250.674697 
L 186.613186 249.929784 
L 187.019646 249.929784 
L 187.019646 248.439959 
L 187.426106 248.439959 
L 187.426106 246.950134 
L 187.832566 246.950134 
L 187.832566 246.205221 
L 188.645486 246.205221 
L 188.645486 245.460308 
L 189.051946 245.460308 
L 189.051946 243.970483 
L 189.458406 243.970483 
L 189.458406 243.598027 
L 190.677786 243.598027 
L 190.677786 242.108201 
L 191.084246 242.108201 
L 191.084246 241.735745 
L 191.490705 241.735745 
L 191.490705 239.873464 
L 191.897165 239.873464 
L 191.897165 239.128551 
L 192.303625 239.128551 
L 192.303625 238.383638 
L 192.710085 238.383638 
L 192.710085 237.638726 
L 193.116545 237.638726 
L 193.116545 237.266269 
L 193.523005 237.266269 
L 193.523005 236.893813 
L 193.929465 236.893813 
L 193.929465 235.031531 
L 194.335925 235.031531 
L 194.335925 234.659075 
L 194.742385 234.659075 
L 194.742385 233.914162 
L 195.148845 233.914162 
L 195.148845 233.16925 
L 195.961765 233.16925 
L 195.961765 232.424337 
L 196.368225 232.424337 
L 196.368225 232.051881 
L 196.774685 232.051881 
L 196.774685 230.562055 
L 197.181145 230.562055 
L 197.181145 229.817143 
L 197.587605 229.817143 
L 197.587605 229.07223 
L 197.994065 229.07223 
L 197.994065 227.582405 
L 198.400525 227.582405 
L 198.400525 225.720123 
L 198.806985 225.720123 
L 198.806985 225.347667 
L 199.213445 225.347667 
L 199.213445 224.975211 
L 199.619905 224.975211 
L 199.619905 223.112929 
L 200.026365 223.112929 
L 200.026365 222.368016 
L 200.432825 222.368016 
L 200.432825 221.623104 
L 200.839285 221.623104 
L 200.839285 220.878191 
L 201.245745 220.878191 
L 201.245745 219.388366 
L 201.652205 219.388366 
L 201.652205 216.781172 
L 202.058665 216.781172 
L 202.058665 215.291346 
L 202.465125 215.291346 
L 202.465125 213.801521 
L 202.871585 213.801521 
L 202.871585 212.684152 
L 203.278045 212.684152 
L 203.278045 211.939239 
L 203.684505 211.939239 
L 203.684505 211.194327 
L 204.090965 211.194327 
L 204.090965 210.449414 
L 204.497425 210.449414 
L 204.497425 209.332045 
L 204.903885 209.332045 
L 204.903885 207.469764 
L 205.310345 207.469764 
L 205.310345 206.724851 
L 205.716805 206.724851 
L 205.716805 204.862569 
L 206.123265 204.862569 
L 206.123265 203.7452 
L 206.529725 203.7452 
L 206.529725 203.000288 
L 206.936185 203.000288 
L 206.936185 202.255375 
L 207.342645 202.255375 
L 207.342645 201.510462 
L 207.749105 201.510462 
L 207.749105 200.76555 
L 208.155565 200.76555 
L 208.155565 198.158356 
L 208.562025 198.158356 
L 208.562025 197.040987 
L 208.968485 197.040987 
L 208.968485 195.551161 
L 209.374945 195.551161 
L 209.374945 194.806249 
L 209.781405 194.806249 
L 209.781405 192.571511 
L 210.187865 192.571511 
L 210.187865 190.709229 
L 210.594325 190.709229 
L 210.594325 186.61221 
L 211.000785 186.61221 
L 211.000785 185.122384 
L 211.407245 185.122384 
L 211.407245 182.887646 
L 211.813705 182.887646 
L 211.813705 179.907996 
L 212.220165 179.907996 
L 212.220165 178.418171 
L 212.626625 178.418171 
L 212.626625 175.810976 
L 213.033085 175.810976 
L 213.033085 173.948695 
L 213.439545 173.948695 
L 213.439545 171.713957 
L 213.846005 171.713957 
L 213.846005 167.616937 
L 214.252465 167.616937 
L 214.252465 165.009743 
L 214.658925 165.009743 
L 214.658925 162.402549 
L 215.065385 162.402549 
L 215.065385 159.050442 
L 215.471845 159.050442 
L 215.471845 157.933073 
L 215.878305 157.933073 
L 215.878305 154.20851 
L 216.284765 154.20851 
L 216.284765 152.718684 
L 216.691225 152.718684 
L 216.691225 150.483947 
L 217.097685 150.483947 
L 217.097685 148.994121 
L 217.504145 148.994121 
L 217.504145 147.504296 
L 217.910605 147.504296 
L 217.910605 146.759383 
L 218.317065 146.759383 
L 218.317065 146.386927 
L 218.723525 146.386927 
L 218.723525 143.407276 
L 219.129985 143.407276 
L 219.129985 141.544995 
L 219.536445 141.544995 
L 219.536445 138.937801 
L 219.942905 138.937801 
L 219.942905 137.447975 
L 220.349365 137.447975 
L 220.349365 135.95815 
L 220.755825 135.95815 
L 220.755825 134.468325 
L 221.162285 134.468325 
L 221.162285 134.095868 
L 221.568745 134.095868 
L 221.568745 133.723412 
L 221.975205 133.723412 
L 221.975205 132.978499 
L 222.381665 132.978499 
L 222.381665 131.861131 
L 223.194585 131.861131 
L 223.194585 131.116218 
L 223.601045 131.116218 
L 223.601045 129.626393 
L 224.007505 129.626393 
L 224.007505 128.88148 
L 224.413965 128.88148 
L 224.413965 128.136567 
L 225.633345 128.136567 
L 225.633345 127.764111 
L 226.039805 127.764111 
L 226.039805 125.901829 
L 226.852725 125.901829 
L 226.852725 125.156917 
L 227.665645 125.156917 
L 227.665645 123.667091 
L 228.072105 123.667091 
L 228.072105 123.294635 
L 228.885025 123.294635 
L 228.885025 122.177266 
L 229.291485 122.177266 
L 229.291485 121.432354 
L 229.697944 121.432354 
L 229.697944 120.314985 
L 230.104404 120.314985 
L 230.104404 119.197616 
L 230.510864 119.197616 
L 230.510864 118.825159 
L 230.917324 118.825159 
L 230.917324 118.452703 
L 231.323784 118.452703 
L 231.323784 117.335334 
L 231.730244 117.335334 
L 231.730244 116.217965 
L 232.136704 116.217965 
L 232.136704 115.473052 
L 232.543164 115.473052 
L 232.543164 114.355683 
L 232.949624 114.355683 
L 232.949624 113.983227 
L 233.762544 113.983227 
L 233.762544 113.238314 
L 234.169004 113.238314 
L 234.169004 112.865858 
L 234.575464 112.865858 
L 234.575464 112.493402 
L 234.981924 112.493402 
L 234.981924 111.748489 
L 235.388384 111.748489 
L 235.388384 111.376033 
L 236.201304 111.376033 
L 236.201304 110.63112 
L 236.607764 110.63112 
L 236.607764 109.886208 
L 237.014224 109.886208 
L 237.014224 108.396382 
L 237.827144 108.396382 
L 237.827144 107.65147 
L 238.233604 107.65147 
L 238.233604 107.279013 
L 238.640064 107.279013 
L 238.640064 106.906557 
L 239.046524 106.906557 
L 239.046524 106.161644 
L 239.859444 106.161644 
L 239.859444 105.789188 
L 240.672364 105.789188 
L 240.672364 105.416732 
L 241.078824 105.416732 
L 241.078824 105.044275 
L 241.485284 105.044275 
L 241.485284 103.55445 
L 241.891744 103.55445 
L 241.891744 102.437081 
L 242.298204 102.437081 
L 242.298204 102.064625 
L 242.704664 102.064625 
L 242.704664 100.5748 
L 243.111124 100.5748 
L 243.111124 99.084974 
L 243.517584 99.084974 
L 243.517584 98.712518 
L 243.924044 98.712518 
L 243.924044 97.595149 
L 244.330504 97.595149 
L 244.330504 97.222693 
L 244.736964 97.222693 
L 244.736964 96.850236 
L 245.143424 96.850236 
L 245.143424 96.47778 
L 245.549884 96.47778 
L 245.549884 96.105324 
L 245.956344 96.105324 
L 245.956344 95.360411 
L 246.362804 95.360411 
L 246.362804 94.615498 
L 246.769264 94.615498 
L 246.769264 94.243042 
L 247.582184 94.243042 
L 247.582184 93.498129 
L 247.988644 93.498129 
L 247.988644 92.753217 
L 248.395104 92.753217 
L 248.395104 92.380761 
L 249.208024 92.380761 
L 249.208024 91.635848 
L 249.614484 91.635848 
L 249.614484 91.263392 
L 250.020944 91.263392 
L 250.020944 90.890935 
L 250.427404 90.890935 
L 250.427404 90.146023 
L 251.240324 90.146023 
L 251.240324 88.656197 
L 252.053244 88.656197 
L 252.053244 88.283741 
L 252.459704 88.283741 
L 252.459704 86.793916 
L 252.866164 86.793916 
L 252.866164 86.049003 
L 253.272624 86.049003 
L 253.272624 85.676547 
L 253.679084 85.676547 
L 253.679084 84.931634 
L 254.085544 84.931634 
L 254.085544 84.186721 
L 254.492004 84.186721 
L 254.492004 83.441809 
L 254.898464 83.441809 
L 254.898464 82.32444 
L 255.304924 82.32444 
L 255.304924 80.834615 
L 255.711384 80.834615 
L 255.711384 80.089702 
L 256.117844 80.089702 
L 256.117844 79.344789 
L 256.524304 79.344789 
L 256.524304 78.972333 
L 257.337224 78.972333 
L 257.337224 78.22742 
L 257.743684 78.22742 
L 257.743684 77.854964 
L 258.556604 77.854964 
L 258.556604 77.482508 
L 259.369524 77.482508 
L 259.369524 76.737595 
L 259.775984 76.737595 
L 259.775984 75.992682 
L 260.182444 75.992682 
L 260.182444 75.24777 
L 260.588904 75.24777 
L 260.588904 74.875313 
L 260.995364 74.875313 
L 260.995364 73.757945 
L 261.401824 73.757945 
L 261.401824 72.640576 
L 261.808284 72.640576 
L 261.808284 71.523207 
L 262.621204 71.523207 
L 262.621204 71.15075 
L 263.434124 71.15075 
L 263.434124 70.778294 
L 263.840584 70.778294 
L 263.840584 70.405838 
L 264.247044 70.405838 
L 264.247044 70.033381 
L 264.653504 70.033381 
L 264.653504 69.660925 
L 265.872884 69.660925 
L 265.872884 69.288469 
L 266.685804 69.288469 
L 266.685804 68.1711 
L 267.905183 68.1711 
L 267.905183 67.426187 
L 268.311643 67.426187 
L 268.311643 66.681274 
L 268.718103 66.681274 
L 268.718103 66.308818 
L 269.937483 66.308818 
L 269.937483 65.563905 
L 271.563323 65.563905 
L 271.563323 64.446536 
L 274.002083 64.446536 
L 274.002083 63.701624 
L 274.408543 63.701624 
L 274.408543 63.329168 
L 274.815003 63.329168 
L 274.815003 62.956711 
L 275.221463 62.956711 
L 275.221463 62.584255 
L 275.627923 62.584255 
L 275.627923 62.211799 
L 276.034383 62.211799 
L 276.034383 61.09443 
L 276.440843 61.09443 
L 276.440843 60.721973 
L 276.847303 60.721973 
L 276.847303 60.349517 
L 277.253763 60.349517 
L 277.253763 59.232148 
L 277.660223 59.232148 
L 277.660223 58.859692 
L 278.066683 58.859692 
L 278.066683 58.487235 
L 279.692523 58.487235 
L 279.692523 57.742323 
L 280.911903 57.742323 
L 280.911903 57.369866 
L 281.318363 57.369866 
L 281.318363 56.624954 
L 281.724823 56.624954 
L 281.724823 56.252497 
L 282.537743 56.252497 
L 282.537743 55.880041 
L 282.944203 55.880041 
L 282.944203 55.507585 
L 283.350663 55.507585 
L 283.350663 55.135128 
L 283.757123 55.135128 
L 283.757123 54.762672 
L 284.976503 54.762672 
L 284.976503 54.390216 
L 285.382963 54.390216 
L 285.382963 52.527934 
L 285.789423 52.527934 
L 285.789423 52.155478 
L 286.195883 52.155478 
L 286.195883 51.783022 
L 287.008803 51.783022 
L 287.008803 51.410565 
L 288.634643 51.410565 
L 288.634643 51.038109 
L 289.041103 51.038109 
L 289.041103 50.665653 
L 290.260483 50.665653 
L 290.260483 50.293196 
L 290.666943 50.293196 
L 290.666943 49.92074 
L 291.479863 49.92074 
L 291.479863 49.548284 
L 292.699243 49.548284 
L 292.699243 49.175827 
L 295.544463 49.175827 
L 295.544463 48.803371 
L 296.357383 48.803371 
L 296.357383 48.430915 
L 300.015523 48.430915 
L 300.015523 48.058458 
L 300.421983 48.058458 
L 300.421983 47.313546 
L 300.828443 47.313546 
L 300.828443 46.941089 
L 301.234903 46.941089 
L 301.234903 46.568633 
L 302.454283 46.568633 
L 302.454283 46.196177 
L 306.518882 46.196177 
L 306.518882 45.82372 
L 307.331802 45.82372 
L 307.331802 45.451264 
L 308.957642 45.451264 
L 308.957642 45.078808 
L 309.364102 45.078808 
L 309.364102 44.706351 
L 310.989942 44.706351 
L 310.989942 43.961439 
L 313.022242 43.961439 
L 313.022242 43.588983 
L 315.867462 43.588983 
L 315.867462 43.216526 
L 316.680382 43.216526 
L 316.680382 42.84407 
L 319.525602 42.84407 
L 319.525602 42.471614 
L 319.932062 42.471614 
L 319.932062 42.099157 
L 321.151442 42.099157 
L 321.151442 41.726701 
L 321.557902 41.726701 
L 321.557902 41.354245 
L 323.590202 41.354245 
L 323.590202 40.609332 
L 328.467722 40.609332 
L 328.467722 40.236876 
L 331.312942 40.236876 
L 331.312942 39.864419 
L 333.751702 39.864419 
L 333.751702 39.491963 
L 337.003382 39.491963 
L 337.003382 39.119507 
L 341.067982 39.119507 
L 341.067982 38.74705 
L 342.287362 38.74705 
L 342.287362 38.374594 
L 343.506742 38.374594 
L 343.506742 38.002138 
L 344.319661 38.002138 
L 344.319661 37.629681 
L 346.758421 37.629681 
L 346.758421 37.257225 
L 347.164881 37.257225 
L 347.164881 36.884769 
L 347.571341 36.884769 
L 347.571341 36.512312 
L 347.977801 36.512312 
L 347.977801 36.139856 
L 349.603641 36.139856 
L 349.603641 35.7674 
L 352.448861 35.7674 
L 352.448861 35.394943 
L 355.294081 35.394943 
L 355.294081 35.022487 
L 355.700541 35.022487 
L 355.700541 34.650031 
L 356.919921 34.650031 
L 356.919921 33.905118 
L 358.952221 33.905118 
L 358.952221 33.532662 
L 366.674961 33.532662 
L 366.674961 33.160206 
L 368.707261 33.160206 
L 368.707261 32.787749 
L 375.617081 32.787749 
L 375.617081 32.415293 
L 376.023541 32.415293 
L 376.023541 32.042837 
L 376.430001 32.042837 
L 376.430001 31.67038 
L 379.275221 31.67038 
L 379.275221 30.553011 
L 381.713981 30.553011 
L 381.713981 30.180555 
L 387.40442 30.180555 
L 387.40442 29.808099 
L 405.28866 29.808099 
L 405.28866 29.435642 
L 406.50804 29.435642 
L 406.50804 29.063186 
L 410.16618 29.063186 
L 410.16618 28.69073 
L 414.63724 28.69073 
L 414.63724 28.318273 
L 415.45016 28.318273 
L 415.45016 27.945817 
L 415.85662 27.945817 
L 415.85662 27.573361 
L 417.076 27.573361 
L 417.076 27.200904 
L 436.179619 27.200904 
L 436.179619 26.828448 
L 439.024839 26.828448 
L 439.024839 26.455992 
L 447.966959 26.455992 
L 447.966959 26.083535 
L 451.625099 26.083535 
L 451.625099 25.711079 
L 452.438019 25.711079 
L 452.438019 25.338623 
L 488.612958 25.338623 
L 488.612958 24.966166 
L 515.845777 24.966166 
L 515.845777 24.59371 
L 516.658697 24.59371 
L 516.658697 24.221254 
L 582.098755 24.221254 
L 582.098755 23.848798 
L 594.292555 23.848798 
L 594.292555 23.476341 
L 654.855093 23.476341 
L 654.855093 23.103885 
L 811.578125 23.103885 
L 811.578125 23.103885 
" style="fill:none;stroke:#ff7f0e;stroke-linejoin:miter;"/>
   </g>
   <g id="patch_5">
    <path clip-path="url(#p536ab3580f)" d="M 172.387086 333.36 
L 172.387086 300.211387 
L 173.175574 300.211387 
L 173.175574 298.349106 
L 173.569817 298.349106 
L 173.569817 297.604193 
L 174.752549 297.604193 
L 174.752549 296.486824 
L 175.146792 296.486824 
L 175.146792 295.741912 
L 175.541036 295.741912 
L 175.541036 295.369455 
L 176.329524 295.369455 
L 176.329524 294.996999 
L 177.118011 294.996999 
L 177.118011 294.252086 
L 177.512255 294.252086 
L 177.512255 293.507174 
L 178.300743 293.507174 
L 178.300743 293.134717 
L 179.08923 293.134717 
L 179.08923 292.389805 
L 179.483474 292.389805 
L 179.483474 291.644892 
L 179.877718 291.644892 
L 179.877718 291.272436 
L 180.271962 291.272436 
L 180.271962 290.155067 
L 180.666205 290.155067 
L 180.666205 289.037698 
L 181.060449 289.037698 
L 181.060449 288.292785 
L 181.454693 288.292785 
L 181.454693 287.920329 
L 181.848937 287.920329 
L 181.848937 287.547873 
L 182.243181 287.547873 
L 182.243181 286.430504 
L 182.637424 286.430504 
L 182.637424 285.685591 
L 183.425912 285.685591 
L 183.425912 284.940678 
L 184.214399 284.940678 
L 184.214399 284.195766 
L 184.608643 284.195766 
L 184.608643 283.823309 
L 185.002887 283.823309 
L 185.002887 282.333484 
L 185.791375 282.333484 
L 185.791375 281.216115 
L 186.185618 281.216115 
L 186.185618 280.843659 
L 186.579862 280.843659 
L 186.579862 280.098746 
L 187.36835 280.098746 
L 187.36835 278.981377 
L 187.762594 278.981377 
L 187.762594 278.608921 
L 188.156837 278.608921 
L 188.156837 276.746639 
L 188.551081 276.746639 
L 188.551081 276.001727 
L 188.945325 276.001727 
L 188.945325 275.256814 
L 189.339569 275.256814 
L 189.339569 274.884358 
L 189.733812 274.884358 
L 189.733812 273.766989 
L 190.128056 273.766989 
L 190.128056 271.904707 
L 190.5223 271.904707 
L 190.5223 270.042425 
L 190.916544 270.042425 
L 190.916544 268.180144 
L 192.099275 268.180144 
L 192.099275 267.062775 
L 192.493519 267.062775 
L 192.493519 266.690319 
L 192.887763 266.690319 
L 192.887763 266.317862 
L 193.282006 266.317862 
L 193.282006 265.945406 
L 193.67625 265.945406 
L 193.67625 265.57295 
L 194.070494 265.57295 
L 194.070494 265.200493 
L 194.464738 265.200493 
L 194.464738 264.083124 
L 194.858982 264.083124 
L 194.858982 263.338212 
L 195.253225 263.338212 
L 195.253225 262.220843 
L 195.647469 262.220843 
L 195.647469 260.358561 
L 196.041713 260.358561 
L 196.041713 258.123823 
L 196.435957 258.123823 
L 196.435957 257.378911 
L 196.830201 257.378911 
L 196.830201 256.633998 
L 197.224444 256.633998 
L 197.224444 255.889085 
L 197.618688 255.889085 
L 197.618688 255.144173 
L 198.012932 255.144173 
L 198.012932 254.39926 
L 198.407176 254.39926 
L 198.407176 253.654347 
L 198.801419 253.654347 
L 198.801419 251.792066 
L 199.589907 251.792066 
L 199.589907 251.047153 
L 199.984151 251.047153 
L 199.984151 249.184872 
L 200.378395 249.184872 
L 200.378395 248.067503 
L 200.772638 248.067503 
L 200.772638 245.460308 
L 201.166882 245.460308 
L 201.166882 244.715396 
L 201.561126 244.715396 
L 201.561126 243.970483 
L 201.95537 243.970483 
L 201.95537 243.22557 
L 202.349613 243.22557 
L 202.349613 242.853114 
L 202.743857 242.853114 
L 202.743857 241.735745 
L 203.138101 241.735745 
L 203.138101 240.24592 
L 203.532345 240.24592 
L 203.532345 238.383638 
L 203.926589 238.383638 
L 203.926589 237.266269 
L 204.320832 237.266269 
L 204.320832 235.776444 
L 204.715076 235.776444 
L 204.715076 233.914162 
L 205.10932 233.914162 
L 205.10932 232.051881 
L 205.503564 232.051881 
L 205.503564 229.817143 
L 205.897808 229.817143 
L 205.897808 228.327318 
L 206.292051 228.327318 
L 206.292051 227.209949 
L 206.686295 227.209949 
L 206.686295 224.602754 
L 207.080539 224.602754 
L 207.080539 223.485385 
L 207.474783 223.485385 
L 207.474783 220.505735 
L 207.869026 220.505735 
L 207.869026 217.898541 
L 208.26327 217.898541 
L 208.26327 214.91889 
L 208.657514 214.91889 
L 208.657514 213.056608 
L 209.051758 213.056608 
L 209.051758 211.194327 
L 209.446002 211.194327 
L 209.446002 208.214676 
L 209.840245 208.214676 
L 209.840245 206.724851 
L 210.234489 206.724851 
L 210.234489 204.862569 
L 210.628733 204.862569 
L 210.628733 201.510462 
L 211.022977 201.510462 
L 211.022977 196.296074 
L 211.41722 196.296074 
L 211.41722 193.68888 
L 211.811464 193.68888 
L 211.811464 190.336773 
L 212.205708 190.336773 
L 212.205708 188.474491 
L 212.599952 188.474491 
L 212.599952 184.749928 
L 212.994196 184.749928 
L 212.994196 179.163083 
L 213.388439 179.163083 
L 213.388439 177.673258 
L 213.782683 177.673258 
L 213.782683 173.948695 
L 214.176927 173.948695 
L 214.176927 168.734306 
L 214.571171 168.734306 
L 214.571171 165.382199 
L 214.965415 165.382199 
L 214.965415 163.519918 
L 215.359658 163.519918 
L 215.359658 159.795355 
L 215.753902 159.795355 
L 215.753902 155.698335 
L 216.148146 155.698335 
L 216.148146 153.091141 
L 216.54239 153.091141 
L 216.54239 150.483947 
L 216.936633 150.483947 
L 216.936633 146.759383 
L 217.330877 146.759383 
L 217.330877 145.642014 
L 217.725121 145.642014 
L 217.725121 143.03482 
L 218.119365 143.03482 
L 218.119365 140.427626 
L 218.513609 140.427626 
L 218.513609 139.682713 
L 218.907852 139.682713 
L 218.907852 137.820432 
L 219.302096 137.820432 
L 219.302096 137.075519 
L 219.69634 137.075519 
L 219.69634 134.468325 
L 220.090584 134.468325 
L 220.090584 132.978499 
L 220.484827 132.978499 
L 220.484827 131.488674 
L 220.879071 131.488674 
L 220.879071 129.998849 
L 221.273315 129.998849 
L 221.273315 128.509024 
L 221.667559 128.509024 
L 221.667559 126.274286 
L 222.061803 126.274286 
L 222.061803 124.78446 
L 222.456046 124.78446 
L 222.456046 122.177266 
L 222.85029 122.177266 
L 222.85029 120.687441 
L 223.244534 120.687441 
L 223.244534 119.942528 
L 223.638778 119.942528 
L 223.638778 118.825159 
L 224.033022 118.825159 
L 224.033022 117.335334 
L 224.427265 117.335334 
L 224.427265 115.473052 
L 224.821509 115.473052 
L 224.821509 113.238314 
L 225.215753 113.238314 
L 225.215753 111.748489 
L 225.609997 111.748489 
L 225.609997 111.003577 
L 226.00424 111.003577 
L 226.00424 109.513751 
L 226.398484 109.513751 
L 226.398484 108.396382 
L 226.792728 108.396382 
L 226.792728 107.65147 
L 227.186972 107.65147 
L 227.186972 106.906557 
L 227.581216 106.906557 
L 227.581216 105.416732 
L 227.975459 105.416732 
L 227.975459 104.671819 
L 228.369703 104.671819 
L 228.369703 103.926906 
L 228.763947 103.926906 
L 228.763947 102.437081 
L 229.158191 102.437081 
L 229.158191 100.202343 
L 229.552434 100.202343 
L 229.552434 98.712518 
L 229.946678 98.712518 
L 229.946678 97.595149 
L 230.340922 97.595149 
L 230.340922 96.105324 
L 230.735166 96.105324 
L 230.735166 95.732867 
L 231.12941 95.732867 
L 231.12941 94.243042 
L 231.523653 94.243042 
L 231.523653 93.125673 
L 231.917897 93.125673 
L 231.917897 92.008304 
L 232.312141 92.008304 
L 232.312141 90.890935 
L 232.706385 90.890935 
L 232.706385 89.40111 
L 233.100629 89.40111 
L 233.100629 87.911285 
L 233.494872 87.911285 
L 233.494872 86.793916 
L 233.889116 86.793916 
L 233.889116 85.676547 
L 234.28336 85.676547 
L 234.28336 84.186721 
L 234.677604 84.186721 
L 234.677604 83.069353 
L 235.071847 83.069353 
L 235.071847 81.579527 
L 235.466091 81.579527 
L 235.466091 80.834615 
L 235.860335 80.834615 
L 235.860335 79.344789 
L 236.254579 79.344789 
L 236.254579 78.599877 
L 236.648823 78.599877 
L 236.648823 76.737595 
L 237.043066 76.737595 
L 237.043066 76.365139 
L 237.43731 76.365139 
L 237.43731 75.620226 
L 237.831554 75.620226 
L 237.831554 75.24777 
L 238.225798 75.24777 
L 238.225798 73.385488 
L 238.620041 73.385488 
L 238.620041 72.268119 
L 239.014285 72.268119 
L 239.014285 71.15075 
L 239.408529 71.15075 
L 239.408529 70.778294 
L 239.802773 70.778294 
L 239.802773 70.405838 
L 240.197017 70.405838 
L 240.197017 69.660925 
L 240.59126 69.660925 
L 240.59126 68.916012 
L 240.985504 68.916012 
L 240.985504 68.543556 
L 241.379748 68.543556 
L 241.379748 67.053731 
L 241.773992 67.053731 
L 241.773992 66.681274 
L 242.168236 66.681274 
L 242.168236 65.563905 
L 242.562479 65.563905 
L 242.562479 64.446536 
L 243.350967 64.446536 
L 243.350967 64.07408 
L 243.745211 64.07408 
L 243.745211 62.584255 
L 244.139454 62.584255 
L 244.139454 62.211799 
L 244.533698 62.211799 
L 244.533698 61.466886 
L 245.322186 61.466886 
L 245.322186 60.349517 
L 245.71643 60.349517 
L 245.71643 59.977061 
L 246.504917 59.977061 
L 246.504917 59.604604 
L 246.899161 59.604604 
L 246.899161 59.232148 
L 247.293405 59.232148 
L 247.293405 58.859692 
L 247.687648 58.859692 
L 247.687648 58.487235 
L 248.081892 58.487235 
L 248.081892 57.742323 
L 248.476136 57.742323 
L 248.476136 57.369866 
L 248.87038 57.369866 
L 248.87038 56.252497 
L 249.658867 56.252497 
L 249.658867 55.880041 
L 250.447355 55.880041 
L 250.447355 55.135128 
L 250.841599 55.135128 
L 250.841599 54.390216 
L 251.235843 54.390216 
L 251.235843 53.645303 
L 251.630086 53.645303 
L 251.630086 53.272847 
L 252.02433 53.272847 
L 252.02433 52.900391 
L 252.418574 52.900391 
L 252.418574 52.155478 
L 253.207061 52.155478 
L 253.207061 51.783022 
L 253.601305 51.783022 
L 253.601305 51.410565 
L 255.17828 51.410565 
L 255.17828 50.665653 
L 255.572524 50.665653 
L 255.572524 50.293196 
L 255.966768 50.293196 
L 255.966768 49.92074 
L 256.361012 49.92074 
L 256.361012 49.548284 
L 256.755255 49.548284 
L 256.755255 49.175827 
L 257.149499 49.175827 
L 257.149499 48.803371 
L 258.332231 48.803371 
L 258.332231 48.430915 
L 260.697693 48.430915 
L 260.697693 47.686002 
L 261.486181 47.686002 
L 261.486181 47.313546 
L 261.880425 47.313546 
L 261.880425 46.568633 
L 262.274668 46.568633 
L 262.274668 45.451264 
L 263.4574 45.451264 
L 263.4574 45.078808 
L 266.61135 45.078808 
L 266.61135 44.706351 
L 267.399838 44.706351 
L 267.399838 44.333895 
L 268.188325 44.333895 
L 268.188325 43.961439 
L 268.582569 43.961439 
L 268.582569 43.588983 
L 268.976813 43.588983 
L 268.976813 43.216526 
L 271.736519 43.216526 
L 271.736519 42.471614 
L 273.313494 42.471614 
L 273.313494 42.099157 
L 273.707738 42.099157 
L 273.707738 41.726701 
L 274.101982 41.726701 
L 274.101982 40.981788 
L 275.284713 40.981788 
L 275.284713 40.609332 
L 276.861688 40.609332 
L 276.861688 40.236876 
L 277.650176 40.236876 
L 277.650176 39.864419 
L 278.04442 39.864419 
L 278.04442 39.491963 
L 278.438664 39.491963 
L 278.438664 38.74705 
L 279.227151 38.74705 
L 279.227151 38.374594 
L 279.621395 38.374594 
L 279.621395 38.002138 
L 280.015639 38.002138 
L 280.015639 37.257225 
L 280.804126 37.257225 
L 280.804126 36.884769 
L 281.592614 36.884769 
L 281.592614 36.512312 
L 283.169589 36.512312 
L 283.169589 35.7674 
L 283.563833 35.7674 
L 283.563833 35.394943 
L 287.900514 35.394943 
L 287.900514 35.022487 
L 289.871733 35.022487 
L 289.871733 34.650031 
L 291.054465 34.650031 
L 291.054465 34.277575 
L 291.842952 34.277575 
L 291.842952 33.905118 
L 293.025683 33.905118 
L 293.025683 33.532662 
L 294.208415 33.532662 
L 294.208415 33.160206 
L 296.968121 33.160206 
L 296.968121 32.787749 
L 300.910559 32.787749 
L 300.910559 32.042837 
L 302.487534 32.042837 
L 302.487534 31.67038 
L 302.881778 31.67038 
L 302.881778 31.297924 
L 303.670266 31.297924 
L 303.670266 30.925468 
L 304.064509 30.925468 
L 304.064509 30.553011 
L 308.401191 30.553011 
L 308.401191 30.180555 
L 309.189679 30.180555 
L 309.189679 29.808099 
L 311.555141 29.808099 
L 311.555141 29.435642 
L 313.52636 29.435642 
L 313.52636 29.063186 
L 318.257286 29.063186 
L 318.257286 28.69073 
L 319.834261 28.69073 
L 319.834261 28.318273 
L 322.199723 28.318273 
L 322.199723 27.945817 
L 325.747917 27.945817 
L 325.747917 27.573361 
L 329.296111 27.573361 
L 329.296111 27.200904 
L 350.585276 27.200904 
L 350.585276 26.828448 
L 363.989564 26.828448 
L 363.989564 26.455992 
L 365.960783 26.455992 
L 365.960783 26.083535 
L 368.72049 26.083535 
L 368.72049 25.711079 
L 371.480196 25.711079 
L 371.480196 25.338623 
L 382.913266 25.338623 
L 382.913266 24.966166 
L 421.154913 24.966166 
L 421.154913 24.59371 
L 558.351749 24.59371 
L 558.351749 24.221254 
L 589.891252 24.221254 
L 589.891252 23.848798 
L 615.911341 23.848798 
L 615.911341 23.476341 
L 811.578125 23.476341 
L 811.578125 23.476341 
" style="fill:none;stroke:#2ca02c;stroke-linejoin:miter;"/>
   </g>
   <g id="patch_6">
    <path clip-path="url(#p536ab3580f)" d="M 172.387695 333.36 
L 172.387695 320.324029 
L 172.793244 320.324029 
L 172.793244 319.951572 
L 173.198794 319.951572 
L 173.198794 319.579116 
L 173.604344 319.579116 
L 173.604344 319.20666 
L 174.415443 319.20666 
L 174.415443 318.834203 
L 175.226542 318.834203 
L 175.226542 318.461747 
L 176.037642 318.461747 
L 176.037642 318.089291 
L 176.443191 318.089291 
L 176.443191 317.716835 
L 176.848741 317.716835 
L 176.848741 316.971922 
L 177.65984 316.971922 
L 177.65984 316.599466 
L 178.06539 316.599466 
L 178.06539 316.227009 
L 178.470939 316.227009 
L 178.470939 315.854553 
L 178.876489 315.854553 
L 178.876489 315.482097 
L 180.498688 315.482097 
L 180.498688 314.737184 
L 180.904237 314.737184 
L 180.904237 314.364728 
L 181.309787 314.364728 
L 181.309787 313.992271 
L 181.715337 313.992271 
L 181.715337 313.619815 
L 182.120886 313.619815 
L 182.120886 312.874902 
L 182.526436 312.874902 
L 182.526436 312.502446 
L 185.365284 312.502446 
L 185.365284 311.757533 
L 185.770833 311.757533 
L 185.770833 311.012621 
L 186.581932 311.012621 
L 186.581932 310.640164 
L 187.798581 310.640164 
L 187.798581 310.267708 
L 188.609681 310.267708 
L 188.609681 309.522795 
L 189.01523 309.522795 
L 189.01523 308.405427 
L 189.42078 308.405427 
L 189.42078 306.915601 
L 189.82633 306.915601 
L 189.82633 306.170689 
L 190.231879 306.170689 
L 190.231879 305.425776 
L 190.637429 305.425776 
L 190.637429 304.680863 
L 191.042979 304.680863 
L 191.042979 303.563494 
L 191.448528 303.563494 
L 191.448528 302.073669 
L 191.854078 302.073669 
L 191.854078 300.9563 
L 192.259628 300.9563 
L 192.259628 300.583844 
L 192.665177 300.583844 
L 192.665177 300.211387 
L 193.070727 300.211387 
L 193.070727 299.466475 
L 193.476277 299.466475 
L 193.476277 298.721562 
L 193.881826 298.721562 
L 193.881826 297.97665 
L 194.287376 297.97665 
L 194.287376 295.741912 
L 194.692925 295.741912 
L 194.692925 294.624543 
L 195.098475 294.624543 
L 195.098475 293.87963 
L 195.504025 293.87963 
L 195.504025 292.389805 
L 195.909574 292.389805 
L 195.909574 291.272436 
L 196.720674 291.272436 
L 196.720674 290.527523 
L 197.126223 290.527523 
L 197.126223 290.155067 
L 197.531773 290.155067 
L 197.531773 288.665242 
L 197.937323 288.665242 
L 197.937323 287.920329 
L 198.342872 287.920329 
L 198.342872 287.175416 
L 198.748422 287.175416 
L 198.748422 285.313135 
L 199.153972 285.313135 
L 199.153972 284.195766 
L 199.559521 284.195766 
L 199.559521 283.078397 
L 199.965071 283.078397 
L 199.965071 282.70594 
L 200.370621 282.70594 
L 200.370621 281.588571 
L 200.77617 281.588571 
L 200.77617 280.843659 
L 201.18172 280.843659 
L 201.18172 280.098746 
L 201.58727 280.098746 
L 201.58727 279.353834 
L 201.992819 279.353834 
L 201.992819 277.864008 
L 202.398369 277.864008 
L 202.398369 276.746639 
L 202.803918 276.746639 
L 202.803918 276.374183 
L 203.209468 276.374183 
L 203.209468 274.884358 
L 204.020567 274.884358 
L 204.020567 271.532251 
L 204.426117 271.532251 
L 204.426117 270.787338 
L 204.831667 270.787338 
L 204.831667 269.669969 
L 205.237216 269.669969 
L 205.237216 268.180144 
L 205.642766 268.180144 
L 205.642766 267.807688 
L 206.048316 267.807688 
L 206.048316 265.57295 
L 206.453865 265.57295 
L 206.453865 264.083124 
L 206.859415 264.083124 
L 206.859415 263.710668 
L 207.264965 263.710668 
L 207.264965 263.338212 
L 207.670514 263.338212 
L 207.670514 262.593299 
L 208.076064 262.593299 
L 208.076064 260.731017 
L 208.481614 260.731017 
L 208.481614 259.241192 
L 208.887163 259.241192 
L 208.887163 257.378911 
L 209.292713 257.378911 
L 209.292713 254.39926 
L 209.698263 254.39926 
L 209.698263 253.281891 
L 210.103812 253.281891 
L 210.103812 251.047153 
L 210.509362 251.047153 
L 210.509362 249.184872 
L 210.914911 249.184872 
L 210.914911 248.067503 
L 211.320461 248.067503 
L 211.320461 247.695046 
L 211.726011 247.695046 
L 211.726011 246.577677 
L 212.13156 246.577677 
L 212.13156 243.22557 
L 212.53711 243.22557 
L 212.53711 241.363289 
L 212.94266 241.363289 
L 212.94266 239.873464 
L 213.348209 239.873464 
L 213.348209 238.383638 
L 213.753759 238.383638 
L 213.753759 236.893813 
L 214.159309 236.893813 
L 214.159309 235.403988 
L 214.564858 235.403988 
L 214.564858 234.286619 
L 214.970408 234.286619 
L 214.970408 233.16925 
L 215.375958 233.16925 
L 215.375958 231.306968 
L 215.781507 231.306968 
L 215.781507 228.327318 
L 216.187057 228.327318 
L 216.187057 226.465036 
L 216.592607 226.465036 
L 216.592607 222.368016 
L 216.998156 222.368016 
L 216.998156 219.760822 
L 217.403706 219.760822 
L 217.403706 217.898541 
L 217.809256 217.898541 
L 217.809256 216.781172 
L 218.214805 216.781172 
L 218.214805 214.546434 
L 218.620355 214.546434 
L 218.620355 213.429065 
L 219.025904 213.429065 
L 219.025904 210.076958 
L 219.431454 210.076958 
L 219.431454 208.587133 
L 219.837004 208.587133 
L 219.837004 207.469764 
L 220.242553 207.469764 
L 220.242553 204.862569 
L 220.648103 204.862569 
L 220.648103 203.372744 
L 221.053653 203.372744 
L 221.053653 200.020637 
L 221.459202 200.020637 
L 221.459202 197.413443 
L 221.864752 197.413443 
L 221.864752 195.178705 
L 222.270302 195.178705 
L 222.270302 192.571511 
L 222.675851 192.571511 
L 222.675851 188.846948 
L 223.081401 188.846948 
L 223.081401 185.494841 
L 223.486951 185.494841 
L 223.486951 182.142734 
L 223.8925 182.142734 
L 223.8925 180.652909 
L 224.29805 180.652909 
L 224.29805 178.045714 
L 224.7036 178.045714 
L 224.7036 173.948695 
L 225.109149 173.948695 
L 225.109149 172.458869 
L 225.514699 172.458869 
L 225.514699 170.224132 
L 225.920249 170.224132 
L 225.920249 168.734306 
L 226.325798 168.734306 
L 226.325798 166.872025 
L 226.731348 166.872025 
L 226.731348 166.499568 
L 227.136897 166.499568 
L 227.136897 162.775005 
L 227.542447 162.775005 
L 227.542447 159.795355 
L 227.947997 159.795355 
L 227.947997 157.933073 
L 228.353546 157.933073 
L 228.353546 154.580966 
L 228.759096 154.580966 
L 228.759096 153.463597 
L 229.164646 153.463597 
L 229.164646 150.483947 
L 229.570195 150.483947 
L 229.570195 146.386927 
L 229.975745 146.386927 
L 229.975745 143.779733 
L 230.381295 143.779733 
L 230.381295 140.800082 
L 230.786844 140.800082 
L 230.786844 136.703063 
L 231.192394 136.703063 
L 231.192394 133.350956 
L 231.597944 133.350956 
L 231.597944 129.626393 
L 232.003493 129.626393 
L 232.003493 127.391655 
L 232.409043 127.391655 
L 232.409043 125.901829 
L 232.814593 125.901829 
L 232.814593 123.667091 
L 233.220142 123.667091 
L 233.220142 119.942528 
L 233.625692 119.942528 
L 233.625692 117.70779 
L 234.031242 117.70779 
L 234.031242 114.72814 
L 234.436791 114.72814 
L 234.436791 113.610771 
L 234.842341 113.610771 
L 234.842341 111.376033 
L 235.24789 111.376033 
L 235.24789 108.023926 
L 235.65344 108.023926 
L 235.65344 105.044275 
L 236.05899 105.044275 
L 236.05899 102.064625 
L 236.464539 102.064625 
L 236.464539 100.5748 
L 236.870089 100.5748 
L 236.870089 96.850236 
L 237.275639 96.850236 
L 237.275639 93.870586 
L 237.681188 93.870586 
L 237.681188 92.380761 
L 238.086738 92.380761 
L 238.086738 90.518479 
L 238.492288 90.518479 
L 238.492288 86.793916 
L 238.897837 86.793916 
L 238.897837 84.559178 
L 239.303387 84.559178 
L 239.303387 82.696896 
L 239.708937 82.696896 
L 239.708937 81.207071 
L 240.114486 81.207071 
L 240.114486 80.089702 
L 240.520036 80.089702 
L 240.520036 78.22742 
L 240.925586 78.22742 
L 240.925586 77.482508 
L 241.331135 77.482508 
L 241.331135 75.24777 
L 241.736685 75.24777 
L 241.736685 74.502857 
L 242.142235 74.502857 
L 242.142235 74.130401 
L 242.547784 74.130401 
L 242.547784 73.757945 
L 242.953334 73.757945 
L 242.953334 71.15075 
L 243.358883 71.15075 
L 243.358883 69.288469 
L 243.764433 69.288469 
L 243.764433 67.426187 
L 244.169983 67.426187 
L 244.169983 65.936362 
L 244.575532 65.936362 
L 244.575532 65.563905 
L 244.981082 65.563905 
L 244.981082 64.07408 
L 245.386632 64.07408 
L 245.386632 62.956711 
L 245.792181 62.956711 
L 245.792181 61.466886 
L 246.197731 61.466886 
L 246.197731 60.721973 
L 246.603281 60.721973 
L 246.603281 58.487235 
L 247.00883 58.487235 
L 247.00883 57.742323 
L 247.41438 57.742323 
L 247.41438 56.624954 
L 247.81993 56.624954 
L 247.81993 55.880041 
L 248.225479 55.880041 
L 248.225479 55.507585 
L 248.631029 55.507585 
L 248.631029 55.135128 
L 249.036579 55.135128 
L 249.036579 54.390216 
L 249.442128 54.390216 
L 249.442128 53.272847 
L 249.847678 53.272847 
L 249.847678 52.155478 
L 250.253228 52.155478 
L 250.253228 51.783022 
L 250.658777 51.783022 
L 250.658777 49.548284 
L 251.064327 49.548284 
L 251.064327 49.175827 
L 251.469876 49.175827 
L 251.469876 48.058458 
L 251.875426 48.058458 
L 251.875426 47.313546 
L 252.280976 47.313546 
L 252.280976 46.568633 
L 252.686525 46.568633 
L 252.686525 45.82372 
L 253.092075 45.82372 
L 253.092075 45.451264 
L 253.903174 45.451264 
L 253.903174 45.078808 
L 254.308724 45.078808 
L 254.308724 44.706351 
L 254.714274 44.706351 
L 254.714274 43.588983 
L 255.119823 43.588983 
L 255.119823 42.84407 
L 256.336472 42.84407 
L 256.336472 42.099157 
L 256.742022 42.099157 
L 256.742022 41.726701 
L 257.147572 41.726701 
L 257.147572 40.981788 
L 257.553121 40.981788 
L 257.553121 40.609332 
L 257.958671 40.609332 
L 257.958671 40.236876 
L 258.364221 40.236876 
L 258.364221 39.119507 
L 259.986419 39.119507 
L 259.986419 38.74705 
L 261.608618 38.74705 
L 261.608618 37.629681 
L 262.014167 37.629681 
L 262.014167 36.884769 
L 262.825267 36.884769 
L 262.825267 36.512312 
L 263.230816 36.512312 
L 263.230816 35.7674 
L 264.447465 35.7674 
L 264.447465 34.650031 
L 265.664114 34.650031 
L 265.664114 33.905118 
L 266.880763 33.905118 
L 266.880763 33.532662 
L 267.286313 33.532662 
L 267.286313 33.160206 
L 268.502962 33.160206 
L 268.502962 32.415293 
L 268.908511 32.415293 
L 268.908511 32.042837 
L 269.314061 32.042837 
L 269.314061 31.67038 
L 269.719611 31.67038 
L 269.719611 31.297924 
L 270.12516 31.297924 
L 270.12516 30.553011 
L 270.53071 30.553011 
L 270.53071 30.180555 
L 272.152909 30.180555 
L 272.152909 29.808099 
L 272.964008 29.808099 
L 272.964008 29.435642 
L 273.369558 29.435642 
L 273.369558 29.063186 
L 276.613955 29.063186 
L 276.613955 28.318273 
L 277.019504 28.318273 
L 277.019504 27.945817 
L 278.641703 27.945817 
L 278.641703 27.200904 
L 282.29165 27.200904 
L 282.29165 26.828448 
L 283.102749 26.828448 
L 283.102749 26.455992 
L 283.508299 26.455992 
L 283.508299 26.083535 
L 284.319398 26.083535 
L 284.319398 25.711079 
L 288.374895 25.711079 
L 288.374895 25.338623 
L 293.64704 25.338623 
L 293.64704 24.966166 
L 298.513636 24.966166 
L 298.513636 24.59371 
L 300.946934 24.59371 
L 300.946934 24.221254 
L 303.380232 24.221254 
L 303.380232 23.848798 
L 304.191331 23.848798 
L 304.191331 23.476341 
L 307.841278 23.476341 
L 307.841278 23.103885 
L 811.578125 23.103885 
L 811.578125 23.103885 
" style="fill:none;stroke:#d62728;stroke-linejoin:miter;"/>
   </g>
   <g id="patch_7">
    <path clip-path="url(#p536ab3580f)" d="M 172.387695 333.36 
L 172.387695 329.635437 
L 172.792097 329.635437 
L 172.792097 329.26298 
L 174.005306 329.26298 
L 174.005306 328.890524 
L 174.814111 328.890524 
L 174.814111 328.518068 
L 176.431722 328.518068 
L 176.431722 328.145612 
L 176.836125 328.145612 
L 176.836125 327.773155 
L 178.049333 327.773155 
L 178.049333 327.400699 
L 178.453736 327.400699 
L 178.453736 327.028243 
L 178.858139 327.028243 
L 178.858139 326.28333 
L 179.262542 326.28333 
L 179.262542 325.910874 
L 180.47575 325.910874 
L 180.47575 325.538417 
L 181.284556 325.538417 
L 181.284556 324.793505 
L 181.688958 324.793505 
L 181.688958 324.421048 
L 183.710972 324.421048 
L 183.710972 324.048592 
L 184.519778 324.048592 
L 184.519778 323.676136 
L 185.328583 323.676136 
L 185.328583 323.303679 
L 185.732986 323.303679 
L 185.732986 322.18631 
L 186.541792 322.18631 
L 186.541792 321.813854 
L 186.946194 321.813854 
L 186.946194 321.441398 
L 187.350597 321.441398 
L 187.350597 320.324029 
L 187.755 320.324029 
L 187.755 319.951572 
L 188.968208 319.951572 
L 188.968208 319.20666 
L 189.372611 319.20666 
L 189.372611 318.089291 
L 189.777014 318.089291 
L 189.777014 317.716835 
L 190.181416 317.716835 
L 190.181416 317.344378 
L 191.394625 317.344378 
L 191.394625 316.971922 
L 191.799027 316.971922 
L 191.799027 316.599466 
L 193.012236 316.599466 
L 193.012236 316.227009 
L 193.821041 316.227009 
L 193.821041 315.482097 
L 194.225444 315.482097 
L 194.225444 314.737184 
L 194.629847 314.737184 
L 194.629847 314.364728 
L 195.03425 314.364728 
L 195.03425 313.992271 
L 195.438652 313.992271 
L 195.438652 313.247359 
L 195.843055 313.247359 
L 195.843055 312.502446 
L 197.056263 312.502446 
L 197.056263 311.757533 
L 197.460666 311.757533 
L 197.460666 311.385077 
L 197.865069 311.385077 
L 197.865069 310.640164 
L 198.269472 310.640164 
L 198.269472 310.267708 
L 198.673874 310.267708 
L 198.673874 308.777883 
L 199.48268 308.777883 
L 199.48268 306.915601 
L 199.887083 306.915601 
L 199.887083 306.170689 
L 200.291486 306.170689 
L 200.291486 305.05332 
L 200.695888 305.05332 
L 200.695888 303.935951 
L 201.909097 303.935951 
L 201.909097 302.818582 
L 202.313499 302.818582 
L 202.313499 302.073669 
L 202.717902 302.073669 
L 202.717902 301.701213 
L 203.122305 301.701213 
L 203.122305 299.838931 
L 203.526708 299.838931 
L 203.526708 299.466475 
L 203.93111 299.466475 
L 203.93111 299.094018 
L 204.335513 299.094018 
L 204.335513 297.97665 
L 204.739916 297.97665 
L 204.739916 296.859281 
L 205.144319 296.859281 
L 205.144319 296.486824 
L 205.953124 296.486824 
L 205.953124 294.252086 
L 207.166333 294.252086 
L 207.166333 292.389805 
L 207.570735 292.389805 
L 207.570735 291.272436 
L 207.975138 291.272436 
L 207.975138 289.410154 
L 208.379541 289.410154 
L 208.379541 288.292785 
L 208.783944 288.292785 
L 208.783944 286.80296 
L 209.188346 286.80296 
L 209.188346 284.568222 
L 209.592749 284.568222 
L 209.592749 284.195766 
L 209.997152 284.195766 
L 209.997152 283.078397 
L 210.401555 283.078397 
L 210.401555 280.843659 
L 210.805957 280.843659 
L 210.805957 280.098746 
L 211.21036 280.098746 
L 211.21036 278.236465 
L 211.614763 278.236465 
L 211.614763 276.001727 
L 212.019166 276.001727 
L 212.019166 273.394532 
L 212.423568 273.394532 
L 212.423568 272.277163 
L 212.827971 272.277163 
L 212.827971 269.297513 
L 213.232374 269.297513 
L 213.232374 267.062775 
L 213.636777 267.062775 
L 213.636777 265.200493 
L 214.04118 265.200493 
L 214.04118 263.338212 
L 214.445582 263.338212 
L 214.445582 260.731017 
L 214.849985 260.731017 
L 214.849985 259.986105 
L 215.254388 259.986105 
L 215.254388 258.123823 
L 215.658791 258.123823 
L 215.658791 255.889085 
L 216.063193 255.889085 
L 216.063193 251.419609 
L 216.467596 251.419609 
L 216.467596 249.184872 
L 216.871999 249.184872 
L 216.871999 246.205221 
L 217.276402 246.205221 
L 217.276402 243.22557 
L 217.680804 243.22557 
L 217.680804 239.873464 
L 218.085207 239.873464 
L 218.085207 237.638726 
L 218.48961 237.638726 
L 218.48961 234.659075 
L 218.894013 234.659075 
L 218.894013 232.796793 
L 219.298415 232.796793 
L 219.298415 229.07223 
L 219.702818 229.07223 
L 219.702818 224.975211 
L 220.107221 224.975211 
L 220.107221 221.250647 
L 220.511624 221.250647 
L 220.511624 215.663803 
L 220.916027 215.663803 
L 220.916027 212.684152 
L 221.320429 212.684152 
L 221.320429 208.587133 
L 221.724832 208.587133 
L 221.724832 204.117657 
L 222.129235 204.117657 
L 222.129235 200.393094 
L 222.533638 200.393094 
L 222.533638 198.158356 
L 222.93804 198.158356 
L 222.93804 195.551161 
L 223.342443 195.551161 
L 223.342443 190.709229 
L 223.746846 190.709229 
L 223.746846 185.867297 
L 224.151249 185.867297 
L 224.151249 181.397821 
L 224.555651 181.397821 
L 224.555651 178.790627 
L 224.960054 178.790627 
L 224.960054 175.066064 
L 225.364457 175.066064 
L 225.364457 170.224132 
L 225.76886 170.224132 
L 225.76886 165.754656 
L 226.173262 165.754656 
L 226.173262 160.912724 
L 226.577665 160.912724 
L 226.577665 154.953422 
L 226.982068 154.953422 
L 226.982068 152.346228 
L 227.386471 152.346228 
L 227.386471 148.994121 
L 227.790874 148.994121 
L 227.790874 146.014471 
L 228.195276 146.014471 
L 228.195276 142.289908 
L 228.599679 142.289908 
L 228.599679 139.310257 
L 229.004082 139.310257 
L 229.004082 135.213237 
L 229.408485 135.213237 
L 229.408485 130.743762 
L 229.812887 130.743762 
L 229.812887 126.646742 
L 230.21729 126.646742 
L 230.21729 122.922179 
L 230.621693 122.922179 
L 230.621693 119.570072 
L 231.026096 119.570072 
L 231.026096 114.355683 
L 231.430498 114.355683 
L 231.430498 112.120946 
L 231.834901 112.120946 
L 231.834901 111.003577 
L 232.239304 111.003577 
L 232.239304 106.161644 
L 232.643707 106.161644 
L 232.643707 102.437081 
L 233.048109 102.437081 
L 233.048109 99.457431 
L 233.452512 99.457431 
L 233.452512 96.47778 
L 233.856915 96.47778 
L 233.856915 94.243042 
L 234.261318 94.243042 
L 234.261318 90.146023 
L 234.665721 90.146023 
L 234.665721 87.166372 
L 235.070123 87.166372 
L 235.070123 84.559178 
L 235.474526 84.559178 
L 235.474526 83.441809 
L 235.878929 83.441809 
L 235.878929 81.207071 
L 236.283332 81.207071 
L 236.283332 78.599877 
L 236.687734 78.599877 
L 236.687734 74.875313 
L 237.092137 74.875313 
L 237.092137 72.640576 
L 237.49654 72.640576 
L 237.49654 69.288469 
L 237.900943 69.288469 
L 237.900943 66.308818 
L 238.305345 66.308818 
L 238.305345 65.563905 
L 238.709748 65.563905 
L 238.709748 63.701624 
L 239.114151 63.701624 
L 239.114151 62.211799 
L 239.518554 62.211799 
L 239.518554 61.09443 
L 239.922956 61.09443 
L 239.922956 60.349517 
L 240.327359 60.349517 
L 240.327359 59.232148 
L 240.731762 59.232148 
L 240.731762 58.859692 
L 241.136165 58.859692 
L 241.136165 58.487235 
L 241.540568 58.487235 
L 241.540568 57.369866 
L 241.94497 57.369866 
L 241.94497 55.880041 
L 242.349373 55.880041 
L 242.349373 55.135128 
L 242.753776 55.135128 
L 242.753776 54.390216 
L 243.158179 54.390216 
L 243.158179 52.900391 
L 243.562581 52.900391 
L 243.562581 51.410565 
L 243.966984 51.410565 
L 243.966984 49.548284 
L 244.371387 49.548284 
L 244.371387 48.803371 
L 245.180192 48.803371 
L 245.180192 48.058458 
L 245.584595 48.058458 
L 245.584595 46.941089 
L 245.988998 46.941089 
L 245.988998 46.196177 
L 246.393401 46.196177 
L 246.393401 44.706351 
L 246.797804 44.706351 
L 246.797804 44.333895 
L 247.202206 44.333895 
L 247.202206 43.961439 
L 247.606609 43.961439 
L 247.606609 43.588983 
L 248.011012 43.588983 
L 248.011012 42.84407 
L 248.415415 42.84407 
L 248.415415 41.726701 
L 248.819817 41.726701 
L 248.819817 40.609332 
L 249.22422 40.609332 
L 249.22422 39.864419 
L 249.628623 39.864419 
L 249.628623 39.491963 
L 250.033026 39.491963 
L 250.033026 38.74705 
L 250.841831 38.74705 
L 250.841831 38.002138 
L 252.055039 38.002138 
L 252.055039 37.257225 
L 252.459442 37.257225 
L 252.459442 36.884769 
L 252.863845 36.884769 
L 252.863845 35.7674 
L 253.672651 35.7674 
L 253.672651 35.022487 
L 254.481456 35.022487 
L 254.481456 34.650031 
L 254.885859 34.650031 
L 254.885859 34.277575 
L 255.290262 34.277575 
L 255.290262 33.160206 
L 256.099067 33.160206 
L 256.099067 32.415293 
L 257.312275 32.415293 
L 257.312275 32.042837 
L 257.716678 32.042837 
L 257.716678 31.67038 
L 259.738692 31.67038 
L 259.738692 31.297924 
L 262.165109 31.297924 
L 262.165109 30.180555 
L 262.569511 30.180555 
L 262.569511 29.808099 
L 262.973914 29.808099 
L 262.973914 29.435642 
L 263.78272 29.435642 
L 263.78272 29.063186 
L 265.400331 29.063186 
L 265.400331 28.69073 
L 267.422345 28.69073 
L 267.422345 28.318273 
L 269.039956 28.318273 
L 269.039956 27.945817 
L 271.870775 27.945817 
L 271.870775 27.573361 
L 276.723608 27.573361 
L 276.723608 27.200904 
L 278.341219 27.200904 
L 278.341219 26.828448 
L 281.172039 26.828448 
L 281.172039 26.455992 
L 281.576441 26.455992 
L 281.576441 26.083535 
L 285.216066 26.083535 
L 285.216066 25.711079 
L 288.046886 25.711079 
L 288.046886 25.338623 
L 290.473302 25.338623 
L 290.473302 24.966166 
L 297.348149 24.966166 
L 297.348149 24.59371 
L 297.752552 24.59371 
L 297.752552 24.221254 
L 309.480232 24.221254 
L 309.480232 23.848798 
L 314.737468 23.848798 
L 314.737468 23.476341 
L 342.641259 23.476341 
L 342.641259 23.103885 
L 811.578125 23.103885 
L 811.578125 23.103885 
" style="fill:none;stroke:#9467bd;stroke-linejoin:miter;"/>
   </g>
   <g id="patch_8">
    <path clip-path="url(#p536ab3580f)" d="M 172.387695 333.36 
L 172.387695 329.635437 
L 173.629576 329.635437 
L 173.629576 329.26298 
L 175.285418 329.26298 
L 175.285418 327.773155 
L 175.699379 327.773155 
L 175.699379 327.028243 
L 176.113339 327.028243 
L 176.113339 326.655786 
L 177.355221 326.655786 
L 177.355221 325.910874 
L 177.769181 325.910874 
L 177.769181 325.538417 
L 178.183142 325.538417 
L 178.183142 324.793505 
L 178.597102 324.793505 
L 178.597102 324.421048 
L 180.252944 324.421048 
L 180.252944 323.676136 
L 180.666905 323.676136 
L 180.666905 323.303679 
L 181.080865 323.303679 
L 181.080865 322.931223 
L 181.494826 322.931223 
L 181.494826 321.441398 
L 182.322747 321.441398 
L 182.322747 321.068941 
L 183.150668 321.068941 
L 183.150668 320.696485 
L 183.564628 320.696485 
L 183.564628 320.324029 
L 183.978589 320.324029 
L 183.978589 319.579116 
L 184.392549 319.579116 
L 184.392549 318.461747 
L 185.22047 318.461747 
L 185.22047 317.716835 
L 185.634431 317.716835 
L 185.634431 317.344378 
L 186.462352 317.344378 
L 186.462352 316.599466 
L 187.290273 316.599466 
L 187.290273 315.482097 
L 188.532154 315.482097 
L 188.532154 315.10964 
L 188.946115 315.10964 
L 188.946115 314.364728 
L 190.187996 314.364728 
L 190.187996 313.992271 
L 190.601957 313.992271 
L 190.601957 313.247359 
L 191.843838 313.247359 
L 191.843838 312.12999 
L 192.257799 312.12999 
L 192.257799 311.757533 
L 193.08572 311.757533 
L 193.08572 310.267708 
L 193.49968 310.267708 
L 193.49968 309.522795 
L 195.155522 309.522795 
L 195.155522 308.777883 
L 195.569483 308.777883 
L 195.569483 308.03297 
L 196.397404 308.03297 
L 196.397404 307.660514 
L 196.811364 307.660514 
L 196.811364 306.915601 
L 197.225325 306.915601 
L 197.225325 306.170689 
L 197.639285 306.170689 
L 197.639285 305.798232 
L 198.053246 305.798232 
L 198.053246 304.680863 
L 198.467206 304.680863 
L 198.467206 303.563494 
L 198.881167 303.563494 
L 198.881167 303.191038 
L 199.709088 303.191038 
L 199.709088 302.818582 
L 200.537009 302.818582 
L 200.537009 302.073669 
L 200.950969 302.073669 
L 200.950969 301.701213 
L 201.77889 301.701213 
L 201.77889 300.9563 
L 202.606811 300.9563 
L 202.606811 299.838931 
L 203.434732 299.838931 
L 203.434732 298.349106 
L 204.262653 298.349106 
L 204.262653 297.604193 
L 204.676614 297.604193 
L 204.676614 294.996999 
L 205.090574 294.996999 
L 205.090574 293.507174 
L 205.504535 293.507174 
L 205.504535 292.762261 
L 205.918495 292.762261 
L 205.918495 291.644892 
L 206.332456 291.644892 
L 206.332456 290.527523 
L 206.746416 290.527523 
L 206.746416 288.292785 
L 207.160377 288.292785 
L 207.160377 287.175416 
L 207.574337 287.175416 
L 207.574337 285.685591 
L 207.988298 285.685591 
L 207.988298 284.940678 
L 208.402258 284.940678 
L 208.402258 284.195766 
L 208.816219 284.195766 
L 208.816219 283.078397 
L 209.230179 283.078397 
L 209.230179 280.843659 
L 209.64414 280.843659 
L 209.64414 278.236465 
L 210.0581 278.236465 
L 210.0581 277.119096 
L 210.472061 277.119096 
L 210.472061 276.374183 
L 210.886021 276.374183 
L 210.886021 274.884358 
L 211.299982 274.884358 
L 211.299982 274.139445 
L 211.713942 274.139445 
L 211.713942 271.904707 
L 212.127903 271.904707 
L 212.127903 270.787338 
L 212.541863 270.787338 
L 212.541863 269.297513 
L 212.955824 269.297513 
L 212.955824 267.435231 
L 213.369784 267.435231 
L 213.369784 265.57295 
L 213.783745 265.57295 
L 213.783745 262.593299 
L 214.197705 262.593299 
L 214.197705 258.49628 
L 214.611666 258.49628 
L 214.611666 255.889085 
L 215.025626 255.889085 
L 215.025626 252.164522 
L 215.439587 252.164522 
L 215.439587 247.32259 
L 215.853547 247.32259 
L 215.853547 243.598027 
L 216.267508 243.598027 
L 216.267508 240.24592 
L 216.681468 240.24592 
L 216.681468 237.266269 
L 217.095429 237.266269 
L 217.095429 234.286619 
L 217.509389 234.286619 
L 217.509389 230.934512 
L 217.92335 230.934512 
L 217.92335 227.954861 
L 218.33731 227.954861 
L 218.33731 223.857842 
L 218.751271 223.857842 
L 218.751271 220.505735 
L 219.165231 220.505735 
L 219.165231 217.898541 
L 219.579192 217.898541 
L 219.579192 214.546434 
L 219.993152 214.546434 
L 219.993152 210.821871 
L 220.407113 210.821871 
L 220.407113 208.214676 
L 220.821073 208.214676 
L 220.821073 203.000288 
L 221.235034 203.000288 
L 221.235034 199.275725 
L 221.648994 199.275725 
L 221.648994 197.040987 
L 222.062955 197.040987 
L 222.062955 191.826598 
L 222.476915 191.826598 
L 222.476915 185.122384 
L 222.890876 185.122384 
L 222.890876 181.397821 
L 223.304836 181.397821 
L 223.304836 177.300802 
L 223.718797 177.300802 
L 223.718797 172.458869 
L 224.132757 172.458869 
L 224.132757 167.616937 
L 224.546718 167.616937 
L 224.546718 164.637287 
L 224.960678 164.637287 
L 224.960678 161.28518 
L 225.374639 161.28518 
L 225.374639 156.815704 
L 225.788599 156.815704 
L 225.788599 153.091141 
L 226.20256 153.091141 
L 226.20256 150.11149 
L 226.61652 150.11149 
L 226.61652 146.386927 
L 227.030481 146.386927 
L 227.030481 143.03482 
L 227.444441 143.03482 
L 227.444441 139.310257 
L 227.858402 139.310257 
L 227.858402 134.840781 
L 228.272362 134.840781 
L 228.272362 131.488674 
L 228.686323 131.488674 
L 228.686323 128.136567 
L 229.100283 128.136567 
L 229.100283 125.901829 
L 229.514244 125.901829 
L 229.514244 121.432354 
L 229.928204 121.432354 
L 229.928204 118.080247 
L 230.342165 118.080247 
L 230.342165 115.473052 
L 230.756125 115.473052 
L 230.756125 113.238314 
L 231.170086 113.238314 
L 231.170086 110.258664 
L 231.584046 110.258664 
L 231.584046 107.65147 
L 231.998007 107.65147 
L 231.998007 105.044275 
L 232.411967 105.044275 
L 232.411967 100.202343 
L 232.825928 100.202343 
L 232.825928 96.47778 
L 233.239888 96.47778 
L 233.239888 94.615498 
L 233.653849 94.615498 
L 233.653849 92.008304 
L 234.067809 92.008304 
L 234.067809 91.635848 
L 234.48177 91.635848 
L 234.48177 88.656197 
L 234.89573 88.656197 
L 234.89573 84.186721 
L 235.309691 84.186721 
L 235.309691 81.579527 
L 235.723651 81.579527 
L 235.723651 78.599877 
L 236.137612 78.599877 
L 236.137612 76.737595 
L 236.551572 76.737595 
L 236.551572 74.130401 
L 236.965533 74.130401 
L 236.965533 73.757945 
L 237.379493 73.757945 
L 237.379493 71.895663 
L 237.793454 71.895663 
L 237.793454 69.288469 
L 238.207414 69.288469 
L 238.207414 65.936362 
L 238.621375 65.936362 
L 238.621375 64.07408 
L 239.035335 64.07408 
L 239.035335 62.956711 
L 239.449296 62.956711 
L 239.449296 59.977061 
L 239.863256 59.977061 
L 239.863256 59.232148 
L 240.277217 59.232148 
L 240.277217 57.742323 
L 240.691177 57.742323 
L 240.691177 56.252497 
L 241.105138 56.252497 
L 241.105138 55.135128 
L 241.519098 55.135128 
L 241.519098 54.01776 
L 241.933059 54.01776 
L 241.933059 52.900391 
L 242.347019 52.900391 
L 242.347019 51.783022 
L 242.76098 51.783022 
L 242.76098 51.038109 
L 243.17494 51.038109 
L 243.17494 49.548284 
L 243.588901 49.548284 
L 243.588901 48.803371 
L 244.002862 48.803371 
L 244.002862 47.686002 
L 244.416822 47.686002 
L 244.416822 46.568633 
L 244.830783 46.568633 
L 244.830783 45.078808 
L 245.244743 45.078808 
L 245.244743 44.333895 
L 245.658704 44.333895 
L 245.658704 43.588983 
L 246.072664 43.588983 
L 246.072664 42.471614 
L 246.486625 42.471614 
L 246.486625 41.726701 
L 246.900585 41.726701 
L 246.900585 40.981788 
L 247.314546 40.981788 
L 247.314546 40.236876 
L 248.970388 40.236876 
L 248.970388 39.864419 
L 249.384348 39.864419 
L 249.384348 39.119507 
L 249.798309 39.119507 
L 249.798309 38.74705 
L 250.212269 38.74705 
L 250.212269 38.002138 
L 250.62623 38.002138 
L 250.62623 37.629681 
L 251.454151 37.629681 
L 251.454151 37.257225 
L 251.868111 37.257225 
L 251.868111 36.884769 
L 252.282072 36.884769 
L 252.282072 36.512312 
L 252.696032 36.512312 
L 252.696032 35.394943 
L 253.523953 35.394943 
L 253.523953 33.905118 
L 254.351874 33.905118 
L 254.351874 33.532662 
L 255.179795 33.532662 
L 255.179795 33.160206 
L 255.593756 33.160206 
L 255.593756 32.787749 
L 256.007716 32.787749 
L 256.007716 32.042837 
L 256.835637 32.042837 
L 256.835637 31.67038 
L 257.249598 31.67038 
L 257.249598 31.297924 
L 258.077519 31.297924 
L 258.077519 30.925468 
L 258.491479 30.925468 
L 258.491479 30.553011 
L 260.147321 30.553011 
L 260.147321 30.180555 
L 260.561282 30.180555 
L 260.561282 29.808099 
L 260.975242 29.808099 
L 260.975242 29.435642 
L 261.803163 29.435642 
L 261.803163 29.063186 
L 262.217124 29.063186 
L 262.217124 28.318273 
L 262.631084 28.318273 
L 262.631084 27.945817 
L 263.045045 27.945817 
L 263.045045 27.573361 
L 263.872966 27.573361 
L 263.872966 26.828448 
L 264.286926 26.828448 
L 264.286926 26.455992 
L 265.528808 26.455992 
L 265.528808 26.083535 
L 270.496334 26.083535 
L 270.496334 25.711079 
L 285.812872 25.711079 
L 285.812872 25.338623 
L 288.710596 25.338623 
L 288.710596 24.966166 
L 299.059608 24.966166 
L 299.059608 24.59371 
L 300.30149 24.59371 
L 300.30149 24.221254 
L 309.822581 24.221254 
L 309.822581 23.848798 
L 311.892384 23.848798 
L 311.892384 23.476341 
L 330.106646 23.476341 
L 330.106646 23.103885 
L 811.578125 23.103885 
L 811.578125 23.103885 
" style="fill:none;stroke:#8c564b;stroke-linejoin:miter;"/>
   </g>
   <g id="patch_9">
    <path d="M 111.51375 333.36 
L 111.51375 7.2 
" style="fill:none;stroke:#000000;stroke-linecap:square;stroke-linejoin:miter;stroke-width:0.8;"/>
   </g>
   <g id="patch_10">
    <path d="M 781.11375 333.36 
L 781.11375 7.2 
" style="fill:none;stroke:#000000;stroke-linecap:square;stroke-linejoin:miter;stroke-width:0.8;"/>
   </g>
   <g id="patch_11">
    <path d="M 111.51375 333.36 
L 781.11375 333.36 
" style="fill:none;stroke:#000000;stroke-linecap:square;stroke-linejoin:miter;stroke-width:0.8;"/>
   </g>
   <g id="patch_12">
    <path d="M 111.51375 7.2 
L 781.11375 7.2 
" style="fill:none;stroke:#000000;stroke-linecap:square;stroke-linejoin:miter;stroke-width:0.8;"/>
   </g>
   <g id="legend_1">
    <g id="patch_13">
     <path d="M 621.61125 321.36 
L 764.31375 321.36 
Q 769.11375 321.36 769.11375 316.56 
L 769.11375 107.595 
Q 769.11375 102.795 764.31375 102.795 
L 621.61125 102.795 
Q 616.81125 102.795 616.81125 107.595 
L 616.81125 316.56 
Q 616.81125 321.36 621.61125 321.36 
z
" style="fill:#ffffff;opacity:0.8;stroke:#cccccc;stroke-linejoin:miter;"/>
    </g>
    <g id="patch_14">
     <path d="M 626.41125 130.63125 
L 674.41125 130.63125 
L 674.41125 113.83125 
L 626.41125 113.83125 
z
" style="fill:none;stroke:#1f77b4;stroke-linejoin:miter;"/>
    </g>
    <g id="text_14">
     <!-- GPU0 -->
     <g transform="translate(693.61125 130.63125)scale(0.24 -0.24)">
      <use xlink:href="#DejaVuSans-47"/>
      <use x="77.490234" xlink:href="#DejaVuSans-50"/>
      <use x="137.792969" xlink:href="#DejaVuSans-55"/>
      <use x="210.986328" xlink:href="#DejaVuSans-30"/>
     </g>
    </g>
    <g id="patch_15">
     <path d="M 626.41125 165.85875 
L 674.41125 165.85875 
L 674.41125 149.05875 
L 626.41125 149.05875 
z
" style="fill:none;stroke:#ff7f0e;stroke-linejoin:miter;"/>
    </g>
    <g id="text_15">
     <!-- GPU1 -->
     <g transform="translate(693.61125 165.85875)scale(0.24 -0.24)">
      <use xlink:href="#DejaVuSans-47"/>
      <use x="77.490234" xlink:href="#DejaVuSans-50"/>
      <use x="137.792969" xlink:href="#DejaVuSans-55"/>
      <use x="210.986328" xlink:href="#DejaVuSans-31"/>
     </g>
    </g>
    <g id="patch_16">
     <path d="M 626.41125 201.08625 
L 674.41125 201.08625 
L 674.41125 184.28625 
L 626.41125 184.28625 
z
" style="fill:none;stroke:#2ca02c;stroke-linejoin:miter;"/>
    </g>
    <g id="text_16">
     <!-- GPU2 -->
     <g transform="translate(693.61125 201.08625)scale(0.24 -0.24)">
      <use xlink:href="#DejaVuSans-47"/>
      <use x="77.490234" xlink:href="#DejaVuSans-50"/>
      <use x="137.792969" xlink:href="#DejaVuSans-55"/>
      <use x="210.986328" xlink:href="#DejaVuSans-32"/>
     </g>
    </g>
    <g id="patch_17">
     <path d="M 626.41125 236.31375 
L 674.41125 236.31375 
L 674.41125 219.51375 
L 626.41125 219.51375 
z
" style="fill:none;stroke:#d62728;stroke-linejoin:miter;"/>
    </g>
    <g id="text_17">
     <!-- GPU3 -->
     <g transform="translate(693.61125 236.31375)scale(0.24 -0.24)">
      <defs>
       <path d="M 2597 2516 
Q 3050 2419 3304 2112 
Q 3559 1806 3559 1356 
Q 3559 666 3084 287 
Q 2609 -91 1734 -91 
Q 1441 -91 1130 -33 
Q 819 25 488 141 
L 488 750 
Q 750 597 1062 519 
Q 1375 441 1716 441 
Q 2309 441 2620 675 
Q 2931 909 2931 1356 
Q 2931 1769 2642 2001 
Q 2353 2234 1838 2234 
L 1294 2234 
L 1294 2753 
L 1863 2753 
Q 2328 2753 2575 2939 
Q 2822 3125 2822 3475 
Q 2822 3834 2567 4026 
Q 2313 4219 1838 4219 
Q 1578 4219 1281 4162 
Q 984 4106 628 3988 
L 628 4550 
Q 988 4650 1302 4700 
Q 1616 4750 1894 4750 
Q 2613 4750 3031 4423 
Q 3450 4097 3450 3541 
Q 3450 3153 3228 2886 
Q 3006 2619 2597 2516 
z
" id="DejaVuSans-33" transform="scale(0.015625)"/>
      </defs>
      <use xlink:href="#DejaVuSans-47"/>
      <use x="77.490234" xlink:href="#DejaVuSans-50"/>
      <use x="137.792969" xlink:href="#DejaVuSans-55"/>
      <use x="210.986328" xlink:href="#DejaVuSans-33"/>
     </g>
    </g>
    <g id="patch_18">
     <path d="M 626.41125 271.54125 
L 674.41125 271.54125 
L 674.41125 254.74125 
L 626.41125 254.74125 
z
" style="fill:none;stroke:#9467bd;stroke-linejoin:miter;"/>
    </g>
    <g id="text_18">
     <!-- GPU4 -->
     <g transform="translate(693.61125 271.54125)scale(0.24 -0.24)">
      <use xlink:href="#DejaVuSans-47"/>
      <use x="77.490234" xlink:href="#DejaVuSans-50"/>
      <use x="137.792969" xlink:href="#DejaVuSans-55"/>
      <use x="210.986328" xlink:href="#DejaVuSans-34"/>
     </g>
    </g>
    <g id="patch_19">
     <path d="M 626.41125 306.76875 
L 674.41125 306.76875 
L 674.41125 289.96875 
L 626.41125 289.96875 
z
" style="fill:none;stroke:#8c564b;stroke-linejoin:miter;"/>
    </g>
    <g id="text_19">
     <!-- GPU5 -->
     <g transform="translate(693.61125 306.76875)scale(0.24 -0.24)">
      <use xlink:href="#DejaVuSans-47"/>
      <use x="77.490234" xlink:href="#DejaVuSans-50"/>
      <use x="137.792969" xlink:href="#DejaVuSans-55"/>
      <use x="210.986328" xlink:href="#DejaVuSans-35"/>
     </g>
    </g>
   </g>
  </g>
 </g>
 <defs>
  <clipPath id="p536ab3580f">
   <rect height="326.16" width="669.6" x="111.51375" y="7.2"/>
  </clipPath>
 </defs>
</svg>
